<?xml version="1.0" standalone="no"?>
<!DOCTYPE svg PUBLIC "-//W3C//DTD SVG 1.1//EN" "http://www.w3.org/Graphics/SVG/1.1/DTD/svg11.dtd" >
<svg>
<metadata>
Created by FontForge 20110222 at Fri Jun  6 11:51:59 2014
 By deploy user
Copyright (c) Mark Simonson, 2005. All rights reserved.
</metadata>
<defs>
<font id="ProximaNovaExCn-Extrabld" horiz-adv-x="434" >
  <font-face 
    font-family="Proxima Nova ExCn Th"
    font-weight="800"
    font-stretch="normal"
    units-per-em="1000"
    panose-1="2 0 5 6 3 0 0 2 0 4"
    ascent="790"
    descent="-210"
    x-height="483"
    cap-height="667"
    bbox="-114 -290 873 886"
    underline-thickness="20"
    underline-position="-113"
    unicode-range="U+000D-FB04"
  />
<missing-glyph horiz-adv-x="445" 
d="M398 -90h-351v842h351v-842zM366 -60v782h-288v-782h288z" />
    <glyph glyph-name="f_f_j" unicode="ffj" horiz-adv-x="741" 
d="M454 0h-135v365h-43v118h43v34q0 77 34.5 118.5t96.5 41.5q47 0 77 -13l-19 -108q-6 6 -19 6q-35 0 -35 -45v-34h59v-118h-59v-365zM632 532q-33 0 -56 23t-23 57q0 33 23 56.5t56 23.5t56.5 -23.5t23.5 -56.5q0 -34 -23.5 -57t-56.5 -23zM551 -196q-42 0 -69 20l26 106
q9 -11 25 -11q31 0 31 54v510h136v-510q0 -169 -149 -169zM192 0h-135v365h-43v118h43v34q0 78 36.5 119t106.5 41q58 0 92 -26l-31 -104q-15 15 -32 15q-37 0 -37 -45v-34h59v-118h-59v-365z" />
    <glyph glyph-name="f_j" unicode="fj" horiz-adv-x="479" 
d="M192 0h-135v365h-43v118h43v34q0 77 34.5 118.5t96.5 41.5q47 0 77 -13l-19 -108q-6 6 -19 6q-35 0 -35 -45v-34h59v-118h-59v-365zM370 532q-33 0 -56 23t-23 57q0 33 23 56.5t56 23.5t56.5 -23.5t23.5 -56.5q0 -34 -23.5 -57t-56.5 -23zM289 -196q-42 0 -69 20l26 106
q9 -11 25 -11q31 0 31 54v510h136v-510q0 -169 -149 -169z" />
    <glyph glyph-name="f_f" unicode="ff" horiz-adv-x="524" 
d="M192 0h-135v365h-43v118h43v34q0 78 36.5 119t106.5 41q58 0 92 -26l-31 -104q-15 15 -32 15q-37 0 -37 -45v-34h59v-118h-59v-365zM454 0h-135v365h-43v118h43v34q0 78 36.5 119t106.5 41q58 0 92 -26l-31 -104q-15 15 -32 15q-37 0 -37 -45v-34h59v-118h-59v-365z" />
    <glyph glyph-name="fi" unicode="fi" horiz-adv-x="479" 
d="M192 0h-135v365h-43v118h43v34q0 77 34.5 118.5t96.5 41.5q47 0 77 -13l-19 -108q-6 6 -19 6q-35 0 -35 -45v-34h59v-118h-59v-365zM370 532q-33 0 -56 23t-23 57q0 33 23 56.5t56 23.5t56.5 -23.5t23.5 -56.5q0 -34 -23.5 -57t-56.5 -23zM438 0h-136v483h136v-483z" />
    <glyph glyph-name="fl" unicode="fl" horiz-adv-x="479" 
d="M192 0h-135v365h-43v118h43v34q0 77 34.5 118.5t96.5 41.5q47 0 77 -13l-19 -108q-6 6 -19 6q-35 0 -35 -45v-34h59v-118h-59v-365zM438 0h-136v667h136v-667z" />
    <glyph glyph-name="f_f_i" unicode="ffi" horiz-adv-x="741" 
d="M454 0h-135v365h-43v118h43v34q0 77 34.5 118.5t96.5 41.5q47 0 77 -13l-19 -108q-6 6 -19 6q-35 0 -35 -45v-34h59v-118h-59v-365zM632 532q-33 0 -56 23t-23 57q0 33 23 56.5t56 23.5t56.5 -23.5t23.5 -56.5q0 -34 -23.5 -57t-56.5 -23zM700 0h-136v483h136v-483z
M192 0h-135v365h-43v118h43v34q0 78 36.5 119t106.5 41q58 0 92 -26l-31 -104q-15 15 -32 15q-37 0 -37 -45v-34h59v-118h-59v-365z" />
    <glyph glyph-name="f_f_l" unicode="ffl" horiz-adv-x="741" 
d="M454 0h-135v365h-43v118h43v34q0 77 34.5 118.5t96.5 41.5q47 0 77 -13l-19 -108q-6 6 -19 6q-35 0 -35 -45v-34h59v-118h-59v-365zM700 0h-136v667h136v-667zM192 0h-135v365h-43v118h43v34q0 78 36.5 119t106.5 41q58 0 92 -26l-31 -104q-15 15 -32 15q-37 0 -37 -45
v-34h59v-118h-59v-365z" />
    <glyph glyph-name="f_b" unicode="fb" horiz-adv-x="705" 
d="M192 0h-135v365h-43v118h43v34q0 77 34.5 118.5t96.5 41.5q47 0 77 -13l-19 -108q-6 6 -19 6q-35 0 -35 -45v-34h59v-118h-59v-365zM438 155q17 -48 49 -48q58 0 58 135q0 134 -58 134q-32 0 -49 -47v-174zM438 0h-136v667h136v-241q14 34 40.5 51.5t55.5 17.5
q71 0 110 -68t39 -185q0 -120 -38.5 -187t-110.5 -67q-64 0 -96 69v-57z" />
    <glyph glyph-name="f_h" unicode="fh" horiz-adv-x="703" 
d="M192 0h-135v365h-43v118h43v34q0 77 34.5 118.5t96.5 41.5q47 0 77 -13l-19 -108q-6 6 -19 6q-35 0 -35 -45v-34h59v-118h-59v-365zM663 0h-136v332q0 44 -33 44q-35 0 -56 -55v-321h-136v667h136v-244q15 28 49.5 50t67.5 22q108 0 108 -111v-384z" />
    <glyph glyph-name="f_k" unicode="fk" horiz-adv-x="686" 
d="M192 0h-135v365h-43v118h43v34q0 77 34.5 118.5t96.5 41.5q47 0 77 -13l-19 -108q-6 6 -19 6q-35 0 -35 -45v-34h59v-118h-59v-365zM686 0h-148l-62 179l-38 -72v-107h-136v667h136v-384l92 200h149l-111 -214z" />
    <glyph glyph-name=".notdef" horiz-adv-x="445" 
d="M398 -90h-351v842h351v-842zM366 -60v782h-288v-782h288z" />
    <glyph glyph-name=".null" horiz-adv-x="0" 
 />
    <glyph glyph-name=".null" horiz-adv-x="0" 
 />
    <glyph glyph-name="nonmarkingreturn" horiz-adv-x="333" 
 />
    <glyph glyph-name="CR" unicode="&#xd;" horiz-adv-x="0" 
 />
    <glyph glyph-name="space" unicode=" " horiz-adv-x="159" 
 />
    <glyph glyph-name="exclam" unicode="!" horiz-adv-x="259" 
d="M190 222h-120l-22 445h163zM129 -12q-34 0 -59 25t-25 60t24.5 60t59.5 25t60.5 -25t25.5 -60t-25.5 -60t-60.5 -25z" />
    <glyph glyph-name="quotedbl" unicode="&#x22;" horiz-adv-x="415" 
d="M144 370h-59q-43 216 -43 235q0 30 21.5 51t50.5 21q30 0 51.5 -21t21.5 -51q0 -8 -10.5 -67t-21.5 -114zM330 370h-57q-44 216 -44 235q0 30 21 51t52 21q29 0 50 -21t21 -51q0 -8 -10.5 -67t-21.5 -114z" />
    <glyph glyph-name="numbersign" unicode="#" horiz-adv-x="471" 
d="M285 0h-99l40 168h-59l-38 -168h-99l39 168h-54l20 85h54l38 160h-57l19 84h57l39 170h99l-39 -170h58l38 170h99l-39 -170h55l-18 -84h-57l-37 -160h59l-20 -85h-60zM245 253l38 160h-58l-37 -160h57z" />
    <glyph glyph-name="dollar" unicode="$" horiz-adv-x="412" 
d="M163 -100v89q-97 9 -155 68l63 118q44 -53 114 -53q26 0 41 16.5t15 41.5q0 27 -22 49.5t-53.5 41.5t-63 43.5t-53.5 67.5t-22 100q0 64 36 116t100 71v99h100v-92q73 -9 124 -55l-56 -117q-40 40 -97 40q-24 0 -38.5 -15t-14.5 -39q0 -21 16 -40t39.5 -33t51.5 -35
t51.5 -44t39.5 -61.5t16 -85.5q0 -71 -35 -122.5t-97 -70.5v-98h-100z" />
    <glyph glyph-name="percent" unicode="%" horiz-adv-x="596" 
d="M151 344q-61 0 -98 47.5t-37 118.5q0 72 37 119.5t98 47.5q60 0 96.5 -47.5t36.5 -119.5q0 -71 -36.5 -118.5t-96.5 -47.5zM185 0h-55l281 667h56zM446 -12q-61 0 -98 47t-37 118q0 72 37 120t98 48q60 0 96.5 -48t36.5 -120q0 -71 -36.5 -118t-96.5 -47zM151 427
q22 0 34.5 22t12.5 61q0 40 -12.5 62.5t-34.5 22.5t-34.5 -22.5t-12.5 -62.5q0 -39 12.5 -61t34.5 -22zM446 70q22 0 34.5 22.5t12.5 60.5q0 41 -12.5 63.5t-34.5 22.5t-34.5 -22.5t-12.5 -63.5q0 -38 12.5 -60.5t34.5 -22.5z" />
    <glyph glyph-name="ampersand" unicode="&#x26;" horiz-adv-x="471" 
d="M479 0h-142l-23 35q-56 -47 -130 -47q-71 0 -117 51t-46 140q0 115 105 195q-36 86 -36 136q0 72 42.5 119.5t105.5 47.5q60 0 102 -43t42 -105q0 -44 -20 -81t-40 -55t-59 -48q11 -22 31 -56l27 -48q15 44 28 103l107 -49q-28 -100 -65 -165q33 -50 88 -130zM214 94
q25 0 47 25q-31 51 -47 82l-36 65q-23 -34 -23 -78q0 -38 17.5 -66t41.5 -28zM208 510q0 -27 13 -68q46 39 46 82q0 56 -29 56q-30 0 -30 -70z" />
    <glyph glyph-name="quotesingle" unicode="'" horiz-adv-x="229" 
d="M144 370h-59q-43 216 -43 235q0 30 21.5 51t50.5 21q30 0 51.5 -21t21.5 -51q0 -8 -10.5 -67t-21.5 -114z" />
    <glyph glyph-name="parenleft" unicode="(" horiz-adv-x="282" 
d="M261 -154l-100 -45q-114 207 -114 442t114 442l100 -44q-67 -191 -67 -398t67 -397z" />
    <glyph glyph-name="parenright" unicode=")" horiz-adv-x="282" 
d="M121 -199l-100 45q67 190 67 397t-67 398l100 44q114 -207 114 -442t-114 -442z" />
    <glyph glyph-name="asterisk" unicode="*" horiz-adv-x="329" 
d="M198 363h-66l5 109l-92 -58l-33 56l97 50l-97 50l33 56l92 -58l-5 109h66l-5 -109l91 58l33 -56l-97 -50l97 -50l-33 -56l-91 58z" />
    <glyph glyph-name="plus" unicode="+" horiz-adv-x="386" 
d="M357 296h-119v-142h-91v142h-118v82h118v135h91v-135h119v-82z" />
    <glyph glyph-name="comma" unicode="," horiz-adv-x="259" 
d="M220 52q0 -116 -107 -190l-57 46q25 14 48.5 42t30.5 54q-6 -4 -20 -4q-30 0 -50 21t-20 54q0 34 24 58.5t58 24.5q39 0 66 -29t27 -77z" />
    <glyph glyph-name="hyphen" unicode="-" horiz-adv-x="244" 
d="M214 185h-184v114h184v-114z" />
    <glyph glyph-name="period" unicode="." horiz-adv-x="259" 
d="M129 -11q-35 0 -59.5 25t-24.5 60q0 34 24.5 59t59.5 25t60 -25t25 -59q0 -35 -25 -60t-60 -25z" />
    <glyph glyph-name="slash" unicode="/" horiz-adv-x="241" 
d="M94 -20h-94l147 707h94z" />
    <glyph glyph-name="zero" unicode="0" horiz-adv-x="474" 
d="M238 -12q-71 0 -120.5 50.5t-71.5 126.5t-22 168q0 93 22 168.5t71.5 125.5t120.5 50q70 0 119.5 -50t71 -125.5t21.5 -168.5t-21.5 -168.5t-71 -126t-119.5 -50.5zM238 122q35 0 46.5 49.5t11.5 161.5t-11.5 161t-46.5 49q-36 0 -47.5 -48.5t-11.5 -161.5t11.5 -162
t47.5 -49z" />
    <glyph glyph-name="one" unicode="1" horiz-adv-x="377" 
d="M330 0h-151v473l-89 -92l-86 90l195 196h131v-667z" />
    <glyph glyph-name="two" unicode="2" horiz-adv-x="466" 
d="M438 0h-402v125q167 189 206.5 244.5t39.5 101.5q0 31 -17 51.5t-47 20.5q-64 0 -109 -69l-93 92q79 111 210 111q95 0 152 -55t57 -147q0 -66 -39.5 -133.5t-156.5 -209.5h199v-132z" />
    <glyph glyph-name="three" unicode="3" horiz-adv-x="465" 
d="M228 -12q-70 0 -125.5 29.5t-86.5 77.5l100 90q41 -63 105 -63q72 0 72 75q0 40 -23 57.5t-55 17.5q-31 0 -42 -2v136q8 -1 36 -1q77 0 77 68q0 70 -67 70q-29 0 -56.5 -15t-42.5 -42l-96 82q72 109 204 109q92 0 148 -46t56 -136q0 -53 -32 -97t-81 -54q54 -10 88 -55
t34 -104q0 -89 -58.5 -143t-154.5 -54z" />
    <glyph glyph-name="four" unicode="4" horiz-adv-x="463" 
d="M398 0h-151v133h-231v134l206 400h176v-401h49v-133h-49v-133zM247 266v228l-108 -228h108z" />
    <glyph glyph-name="five" unicode="5" horiz-adv-x="472" 
d="M230 -12q-138 0 -208 107l97 92q41 -65 101 -65q35 0 55 27t20 66q0 43 -17 67t-49 24q-45 0 -78 -52l-112 27v386h375v-132h-223v-151q32 52 98 52q72 0 116 -57.5t44 -160.5q0 -102 -59 -166t-160 -64z" />
    <glyph glyph-name="six" unicode="6" horiz-adv-x="467" 
d="M248 -12q-113 0 -168.5 96t-55.5 248q0 157 66 251t180 94q97 0 154 -70l-76 -110q-28 46 -74 46q-42 0 -69.5 -51.5t-27.5 -126.5v-7q14 36 45 57t70 21q65 0 109 -58t44 -160q0 -101 -55.5 -165.5t-141.5 -64.5zM238 122q27 0 40.5 27t13.5 64q0 49 -16 71.5t-39 22.5
q-36 0 -61 -58q7 -127 62 -127z" />
    <glyph glyph-name="seven" unicode="7" horiz-adv-x="421" 
d="M232 0h-161l167 535h-222v132h389v-104z" />
    <glyph glyph-name="eight" unicode="8" horiz-adv-x="466" 
d="M233 -12q-102 0 -156 48t-54 135q0 57 34 105.5t81 67.5q-46 17 -76.5 59t-30.5 100q0 86 59 130t143 44t143 -44t59 -130q0 -58 -31 -100t-77 -59q48 -19 82 -67.5t34 -104.5q0 -88 -54 -136t-156 -48zM233 391q53 27 53 82q0 70 -53 70q-25 0 -39.5 -18.5t-14.5 -51.5
q0 -55 54 -82zM233 122q25 0 42 18.5t17 54.5q0 39 -22 65t-37 30q-16 -4 -37.5 -30t-21.5 -65q0 -36 16.5 -54.5t42.5 -18.5z" />
    <glyph glyph-name="nine" unicode="9" horiz-adv-x="467" 
d="M196 -11q-46 0 -86.5 18.5t-66.5 51.5l76 110q28 -46 74 -46q39 0 67.5 50t28.5 127v8q-15 -35 -45.5 -56.5t-68.5 -21.5q-66 0 -109.5 57.5t-43.5 160.5q0 101 55.5 165.5t141.5 64.5q76 0 127.5 -48t73.5 -123t22 -173q0 -157 -65.5 -251t-180.5 -94zM230 359
q35 0 60 58q-6 127 -60 127q-28 0 -42 -27t-14 -63q0 -50 16.5 -72.5t39.5 -22.5z" />
    <glyph glyph-name="colon" unicode=":" horiz-adv-x="259" 
d="M129 320q-34 0 -59 25t-25 60t25 60t59 25q35 0 60 -25t25 -60t-25 -60t-60 -25zM129 -11q-35 0 -59.5 25t-24.5 60q0 34 24.5 59t59.5 25t60 -25t25 -59q0 -35 -25 -60t-60 -25z" />
    <glyph glyph-name="semicolon" unicode=";" horiz-adv-x="259" 
d="M129 320q-34 0 -59 25.5t-25 60.5q0 34 24.5 59t59.5 25t60 -25t25 -59q0 -35 -25.5 -60.5t-59.5 -25.5zM220 53q0 -115 -107 -191l-57 47q25 13 48.5 41t30.5 54q-9 -3 -20 -3q-30 0 -50 21t-20 54q0 34 24 58.5t58 24.5q39 0 66 -29t27 -77z" />
    <glyph glyph-name="less" unicode="&#x3c;" horiz-adv-x="386" 
d="M357 153l-328 133v98l328 133v-98l-233 -85l233 -83v-98z" />
    <glyph glyph-name="equal" unicode="=" horiz-adv-x="386" 
d="M357 387h-328v82h328v-82zM357 199h-328v82h328v-82z" />
    <glyph glyph-name="greater" unicode="&#x3e;" horiz-adv-x="386" 
d="M357 286l-328 -133v98l232 83l-232 85v98l328 -133v-98z" />
    <glyph glyph-name="question" unicode="?" horiz-adv-x="332" 
d="M111 208q-24 30 -24 90q0 35 13.5 65.5t29 48t29 41t13.5 46.5q0 20 -12 34t-31 14q-29 0 -49 -28l-61 92q63 66 147 66q72 0 113.5 -40.5t41.5 -104.5q0 -38 -17 -73.5t-38 -59t-38 -53.5t-17 -57q0 -22 13 -42zM168 -11q-35 0 -60.5 25t-25.5 60q0 34 25.5 59t60.5 25
q34 0 59 -25t25 -59q0 -35 -24.5 -60t-59.5 -25z" />
    <glyph glyph-name="at" unicode="@" horiz-adv-x="653" 
d="M275 -70q-116 0 -178 76t-62 208q0 108 48 206t131.5 158t179.5 60q99 0 161.5 -65t62.5 -174q0 -127 -51.5 -220.5t-125.5 -93.5q-35 0 -60 17.5t-31 47.5l-1 10q-51 -75 -117 -75q-41 0 -68.5 30.5t-27.5 100.5q0 69 23.5 133t69 106.5t101.5 42.5t72 -62l11 48h119
l-51 -241q-3 -15 -3 -25q0 -42 28 -42q7 0 16 9.5t18 29t16.5 45.5t12.5 62t5 75q0 95 -49 148t-133 53q-85 0 -159 -56t-115.5 -143.5t-41.5 -181.5q0 -110 50.5 -179t153.5 -69q74 0 153 55l21 -31q-88 -63 -179 -63zM297 180q15 0 28 10t18 17.5t16 25.5l26 126
q-8 44 -36 44q-40 0 -64 -54.5t-24 -111.5t36 -57z" />
    <glyph glyph-name="A" unicode="A" horiz-adv-x="454" 
d="M457 0h-155l-17 108h-116l-17 -108h-155l143 667h174zM267 240l-40 261l-40 -261h80z" />
    <glyph glyph-name="B" unicode="B" horiz-adv-x="477" 
d="M284 0h-237v667h229q84 0 126 -48.5t42 -121.5q0 -61 -28.5 -101t-75.5 -52q50 -8 81.5 -54t31.5 -109q0 -80 -41.5 -130.5t-127.5 -50.5zM235 405q54 0 54 65t-54 65h-37v-130h37zM239 132q59 0 59 71q0 32 -15.5 51t-43.5 19h-41v-141h41z" />
    <glyph glyph-name="C" unicode="C" horiz-adv-x="448" 
d="M251 -12q-113 0 -170 93.5t-57 251.5t57 251.5t170 93.5q35 0 63 -11t46.5 -27t33.5 -41t23 -45.5t16 -47.5l-120 -44q-9 42 -23 62t-39 20q-72 0 -72 -211t72 -211q51 0 63 95l120 -43q-9 -35 -20 -63t-31.5 -58.5t-54 -47.5t-77.5 -17z" />
    <glyph glyph-name="D" unicode="D" horiz-adv-x="500" 
d="M234 0h-187v667h186q122 0 182.5 -92t60.5 -242q0 -151 -60 -242t-182 -91zM233 132q88 0 88 201q0 202 -88 202h-35v-403h35z" />
    <glyph glyph-name="E" unicode="E" horiz-adv-x="392" 
d="M361 0h-314v667h314v-132h-163v-130h156v-132h-156v-141h163v-132z" />
    <glyph glyph-name="F" unicode="F" horiz-adv-x="388" 
d="M198 0h-151v667h314v-132h-163v-130h156v-132h-156v-273z" />
    <glyph glyph-name="G" unicode="G" horiz-adv-x="474" 
d="M251 -12q-113 0 -170 93t-57 252q0 160 57 252.5t170 92.5q71 0 117 -48t65 -124l-120 -44q-16 82 -62 82q-72 0 -72 -211t72 -211q36 0 54 25v94h-68v132h201v-293q-77 -92 -187 -92z" />
    <glyph glyph-name="H" unicode="H" horiz-adv-x="508" 
d="M461 0h-151v277h-112v-277h-151v667h151v-258h112v258h151v-667z" />
    <glyph glyph-name="I" unicode="I" horiz-adv-x="245" 
d="M198 0h-151v667h151v-667z" />
    <glyph glyph-name="J" unicode="J" horiz-adv-x="362" 
d="M119 -12q-68 0 -111 32l38 124q21 -22 55 -22q30 0 47 16.5t17 48.5v480h152v-488q0 -96 -53 -143.5t-145 -47.5z" />
    <glyph glyph-name="K" unicode="K" horiz-adv-x="497" 
d="M499 0h-171l-90 237l-40 -84v-153h-151v667h151v-289l124 289h165l-159 -312z" />
    <glyph glyph-name="L" unicode="L" horiz-adv-x="380" 
d="M361 0h-314v667h151v-535h163v-132z" />
    <glyph glyph-name="M" unicode="M" horiz-adv-x="646" 
d="M599 0h-149v357l-103 -357h-49l-100 357v-357h-151v667h189l87 -305l89 305h187v-667z" />
    <glyph glyph-name="N" unicode="N" horiz-adv-x="508" 
d="M461 0h-141l-122 315v-315h-151v667h151l112 -300v300h151v-667z" />
    <glyph glyph-name="O" unicode="O" horiz-adv-x="500" 
d="M250 -12q-112 0 -169 94t-57 251t57 251t169 94t169 -94t57 -251t-57 -251t-169 -94zM250 122q71 0 71 211t-71 211t-71 -211t71 -211z" />
    <glyph glyph-name="P" unicode="P" horiz-adv-x="469" 
d="M198 0h-151v667h201q99 0 151 -62t52 -155t-52 -154.5t-151 -61.5h-50v-234zM231 366q31 0 48.5 23t17.5 62q0 38 -17.5 61t-48.5 23h-33v-169h33z" />
    <glyph glyph-name="Q" unicode="Q" horiz-adv-x="501" 
d="M250 -12q-112 0 -169 94t-57 251t57 251t169 94t169 -94t57 -251q0 -174 -67 -266l24 -62l-103 -41l-13 35q-33 -11 -67 -11zM250 122q10 0 18 4l-38 99l88 34q3 35 3 74q0 211 -71 211t-71 -211t71 -211z" />
    <glyph glyph-name="R" unicode="R" horiz-adv-x="485" 
d="M457 0h-162l-65 234h-32v-234h-151v667h209q85 0 140 -59.5t55 -151.5q0 -133 -83 -186zM231 366q31 0 48.5 23t17.5 61q0 39 -17.5 62t-48.5 23h-33v-169h33z" />
    <glyph glyph-name="S" unicode="S" horiz-adv-x="416" 
d="M195 -12q-118 0 -187 69l63 118q44 -53 114 -53q26 0 41 16.5t15 41.5q0 27 -22 49.5t-53.5 41.5t-63 43.5t-53.5 67.5t-22 100q0 81 54 138.5t148 57.5q96 0 158 -57l-56 -117q-40 40 -97 40q-24 0 -38.5 -15t-14.5 -39q0 -21 16 -40t39.5 -33t51.5 -35t51.5 -44
t39.5 -61.5t16 -85.5q0 -90 -54.5 -146.5t-145.5 -56.5z" />
    <glyph glyph-name="T" unicode="T" horiz-adv-x="385" 
d="M269 0h-152v535h-99v132h349v-132h-98v-535z" />
    <glyph glyph-name="U" unicode="U" horiz-adv-x="508" 
d="M254 -12q-86 0 -146.5 55t-60.5 160v464h151v-472q0 -75 56 -75t56 75v472h152v-463q0 -106 -60.5 -161t-147.5 -55z" />
    <glyph glyph-name="V" unicode="V" horiz-adv-x="454" 
d="M314 0h-174l-143 667h155l75 -474l75 474h155z" />
    <glyph glyph-name="W" unicode="W" horiz-adv-x="650" 
d="M524 0h-151l-48 388l-48 -388h-151l-118 667h153l47 -404l59 404h116l60 -404l46 404h154z" />
    <glyph glyph-name="X" unicode="X" horiz-adv-x="474" 
d="M478 0h-167l-74 210l-74 -210h-167l153 341l-145 326h167l66 -199l65 199h167l-145 -326z" />
    <glyph glyph-name="Y" unicode="Y" horiz-adv-x="460" 
d="M306 0h-152v273l-160 394h161l75 -251l76 251h159l-159 -394v-273z" />
    <glyph glyph-name="Z" unicode="Z" horiz-adv-x="394" 
d="M366 0h-338v127l160 408h-160v132h331v-121l-164 -414h171v-132z" />
    <glyph glyph-name="bracketleft" unicode="[" horiz-adv-x="216" 
d="M198 -190h-162v868h162v-89h-66v-690h66v-89z" />
    <glyph glyph-name="backslash" unicode="\" horiz-adv-x="241" 
d="M147 -20l-147 707h94l147 -707h-94z" />
    <glyph glyph-name="bracketright" unicode="]" horiz-adv-x="216" 
d="M181 -190h-163v89h66v690h-66v89h163v-868z" />
    <glyph glyph-name="asciicircum" unicode="^" horiz-adv-x="341" 
d="M322 333h-96l-56 226l-56 -226h-95l103 334h98z" />
    <glyph glyph-name="underscore" unicode="_" horiz-adv-x="279" 
d="M282 -129h-285v89h285v-89z" />
    <glyph glyph-name="grave" unicode="`" horiz-adv-x="193" 
d="M193 556h-84l-109 144h114z" />
    <glyph glyph-name="a" unicode="a" 
d="M394 0h-135v46q-15 -26 -45.5 -42t-59.5 -16q-59 0 -96.5 43t-37.5 117t37 115t97 41q30 0 60.5 -14.5t44.5 -39.5v51q0 37 -18.5 58.5t-53.5 21.5q-48 0 -100 -47l-48 95q31 33 81 49.5t96 16.5q82 0 130 -40.5t48 -120.5v-334zM205 78q38 0 54 40v55q-17 41 -54 41
q-24 0 -37.5 -18.5t-13.5 -49.5t13.5 -49.5t37.5 -18.5z" />
    <glyph glyph-name="b" unicode="b" horiz-adv-x="442" 
d="M176 155q17 -48 49 -48q58 0 58 135q0 134 -58 134q-32 0 -49 -47v-174zM176 0h-136v667h136v-241q14 34 40.5 51.5t55.5 17.5q71 0 110 -68t39 -185q0 -120 -38.5 -187t-110.5 -67q-64 0 -96 69v-57z" />
    <glyph glyph-name="c" unicode="c" horiz-adv-x="358" 
d="M219 -12q-90 0 -144 70.5t-54 183.5t53.5 183t144.5 70q83 0 126 -43l-41 -105q-31 29 -59 29q-40 0 -62.5 -37.5t-22.5 -96.5t22.5 -97t62.5 -38q28 0 59 29l41 -105q-41 -43 -126 -43z" />
    <glyph glyph-name="d" unicode="d" horiz-adv-x="442" 
d="M402 0h-135v57q-33 -69 -97 -69q-72 0 -110.5 67t-38.5 187q0 117 38.5 185t110.5 68q29 0 56 -17t41 -52v241h135v-667zM217 107q15 0 28.5 13.5t21.5 34.5v175q-8 20 -21.5 33t-28.5 13q-57 0 -57 -134q0 -135 57 -135z" />
    <glyph glyph-name="e" unicode="e" horiz-adv-x="420" 
d="M226 -12q-96 0 -150.5 69.5t-54.5 184.5q0 110 51.5 181.5t144.5 71.5t139 -68t46 -182v-48h-250q1 -44 23 -71.5t66 -27.5q45 0 81 42l62 -77q-63 -75 -158 -75zM273 290q0 96 -61 96q-60 0 -60 -96h121z" />
    <glyph glyph-name="f" unicode="f" horiz-adv-x="262" 
d="M192 0h-135v365h-43v118h43v34q0 78 36.5 119t106.5 41q58 0 92 -26l-31 -104q-15 15 -32 15q-37 0 -37 -45v-34h59v-118h-59v-365z" />
    <glyph glyph-name="g" unicode="g" horiz-adv-x="442" 
d="M201 -196q-101 0 -159 54l44 107q48 -46 100 -46q37 0 59 25t22 76v59q-17 -34 -43 -52t-54 -18q-73 0 -111 62t-38 181q0 116 38.5 179.5t110.5 63.5q29 0 56 -17t41 -52v57h135v-459q0 -119 -56.5 -169.5t-144.5 -50.5zM217 129q15 0 28.5 12.5t21.5 32.5v156
q-8 20 -21.5 33t-28.5 13q-57 0 -57 -124q0 -61 13 -92t44 -31z" />
    <glyph glyph-name="h" unicode="h" horiz-adv-x="441" 
d="M401 0h-136v332q0 44 -33 44q-35 0 -56 -55v-321h-136v667h136v-244q15 28 49.5 50t67.5 22q108 0 108 -111v-384z" />
    <glyph glyph-name="i" unicode="i" horiz-adv-x="216" 
d="M108 532q-33 0 -56 23t-23 57q0 33 23 56.5t56 23.5t56.5 -23.5t23.5 -56.5q0 -34 -23.5 -57t-56.5 -23zM176 0h-136v483h136v-483z" />
    <glyph glyph-name="j" unicode="j" horiz-adv-x="216" 
d="M108 532q-33 0 -56 23t-23 57q0 33 23 56.5t56 23.5t56.5 -23.5t23.5 -56.5q0 -34 -23.5 -57t-56.5 -23zM27 -196q-42 0 -69 20l26 106q9 -11 25 -11q31 0 31 54v510h136v-510q0 -169 -149 -169z" />
    <glyph glyph-name="k" unicode="k" horiz-adv-x="424" 
d="M424 0h-148l-62 179l-38 -72v-107h-136v667h136v-384l92 200h149l-111 -214z" />
    <glyph glyph-name="l" unicode="l" horiz-adv-x="216" 
d="M176 0h-136v667h136v-667z" />
    <glyph glyph-name="m" unicode="m" horiz-adv-x="666" 
d="M625 0h-135v331q0 45 -33 45q-34 0 -56 -55v-321h-136v331q0 45 -33 45q-34 0 -56 -55v-321h-136v483h136v-60q12 26 47.5 49t69.5 23q40 0 68.5 -20t34.5 -59q14 31 49.5 55t72.5 24q107 0 107 -113v-382z" />
    <glyph glyph-name="n" unicode="n" horiz-adv-x="441" 
d="M401 0h-136v331q0 45 -33 45q-35 0 -56 -55v-321h-136v483h136v-60q15 28 49.5 50t67.5 22q108 0 108 -113v-382z" />
    <glyph glyph-name="o" unicode="o" 
d="M217 -12q-96 0 -146 73t-50 181t50 180.5t146 72.5t146 -72.5t50 -180.5t-50 -181t-146 -73zM217 107q57 0 57 135q0 134 -57 134q-56 0 -56 -134q0 -135 56 -135z" />
    <glyph glyph-name="p" unicode="p" horiz-adv-x="442" 
d="M272 -12q-29 0 -55.5 17.5t-40.5 51.5v-241h-136v667h136v-57q32 69 96 69q72 0 110.5 -66.5t38.5 -187.5q0 -117 -39 -185t-110 -68zM225 107q58 0 58 134q0 135 -58 135q-32 0 -49 -45v-178q17 -46 49 -46z" />
    <glyph glyph-name="q" unicode="q" horiz-adv-x="442" 
d="M217 107q15 0 28.5 13t21.5 33v178q-17 45 -50 45q-57 0 -57 -135q0 -134 57 -134zM170 -12q-72 0 -110.5 68t-38.5 185q0 121 38.5 187.5t110.5 66.5q64 0 97 -69v57h135v-667h-135v241q-14 -35 -41 -52t-56 -17z" />
    <glyph glyph-name="r" unicode="r" horiz-adv-x="295" 
d="M176 0h-136v483h136v-63q13 31 45 53t62 22v-131q-16 4 -24 4q-22 0 -45.5 -15t-37.5 -38v-315z" />
    <glyph glyph-name="s" unicode="s" horiz-adv-x="364" 
d="M178 -12q-111 0 -170 64l54 93q49 -51 103 -51q25 0 40 11t15 30q0 17 -20 29.5t-48.5 24t-57 28t-48.5 50.5t-20 82q0 62 43.5 104t123.5 42q88 0 154 -59l-53 -91q-14 17 -41.5 30.5t-56.5 13.5q-19 0 -32 -10t-13 -25q0 -16 20.5 -28t49.5 -24t58 -29t49.5 -51
t20.5 -82q0 -67 -47.5 -109.5t-123.5 -42.5z" />
    <glyph glyph-name="t" unicode="t" horiz-adv-x="270" 
d="M179 -12q-65 0 -93.5 32.5t-28.5 100.5v244h-44v118h44v132h135v-132h59v-118h-59v-216q0 -42 24 -42q18 0 26 11l24 -107q-30 -23 -87 -23z" />
    <glyph glyph-name="u" unicode="u" horiz-adv-x="441" 
d="M401 0h-136v58q-15 -28 -49 -49t-68 -21q-108 0 -108 111v384h136v-332q0 -44 33 -44q18 0 33 15.5t23 37.5v323h136v-483z" />
    <glyph glyph-name="v" unicode="v" horiz-adv-x="408" 
d="M276 0h-144l-134 483h143l62 -313l64 313h143z" />
    <glyph glyph-name="w" unicode="w" horiz-adv-x="641" 
d="M526 0h-142l-63 299l-64 -299h-142l-114 483h139l57 -301l56 301h127l64 -301l56 301h140z" />
    <glyph glyph-name="x" unicode="x" horiz-adv-x="395" 
d="M396 0h-144l-55 144l-55 -144h-143l114 243l-109 240h142l51 -141l51 141h142l-109 -240z" />
    <glyph glyph-name="y" unicode="y" horiz-adv-x="408" 
d="M44 -188l19 117q7 -6 21 -6q30 0 39 30l11 37l-136 493h143l62 -312l64 312h143l-155 -558q-20 -69 -54.5 -95t-96.5 -26q-42 0 -60 8z" />
    <glyph glyph-name="z" unicode="z" horiz-adv-x="352" 
d="M329 0h-306v101l139 264h-139v118h302v-96l-140 -269h144v-118z" />
    <glyph glyph-name="braceleft" unicode="{" horiz-adv-x="228" 
d="M211 -190h-27q-52 0 -90 35.5t-38 88.5v207q0 29 -13.5 47.5t-38.5 18.5v74q25 0 38.5 19t13.5 48v205q0 53 38 89t90 36h27v-89h-27q-14 0 -23 -10t-9 -26v-219q0 -71 -45 -90q45 -19 45 -90v-220q0 -15 9.5 -25.5t22.5 -10.5h27v-88z" />
    <glyph glyph-name="bar" unicode="|" horiz-adv-x="182" 
d="M136 -20h-89v707h89v-707z" />
    <glyph glyph-name="braceright" unicode="}" horiz-adv-x="228" 
d="M17 -190v88h27q14 0 23.5 10.5t9.5 25.5v220q0 71 45 90q-45 19 -45 90v219q0 16 -9.5 26t-23.5 10h-27v89h27q52 0 90.5 -36t38.5 -89v-205q0 -29 13.5 -48t38.5 -19v-74q-25 0 -38.5 -18.5t-13.5 -47.5v-207q0 -53 -38.5 -88.5t-90.5 -35.5h-27z" />
    <glyph glyph-name="asciitilde" unicode="~" horiz-adv-x="427" 
d="M310 667l91 -7q-2 -31 -4 -53t-6.5 -54.5t-13.5 -54.5t-22 -43.5t-34 -32.5t-47 -11q-37 0 -59 27t-27.5 60t-13.5 60t-20 27q-17 0 -24 -35.5t-13 -139.5l-91 7q10 250 128 250q37 0 59 -27.5t27.5 -60t13.5 -60t20 -27.5q17 0 23.5 34.5t12.5 140.5z" />
    <glyph glyph-name="nbspace" unicode="&#xa0;" horiz-adv-x="159" 
 />
    <glyph glyph-name="exclamdown" unicode="&#xa1;" horiz-adv-x="259" 
d="M48 -184l22 445h119l22 -445h-163zM45 410q0 35 25 59.5t60 24.5t60 -25t25 -59q0 -35 -25 -60.5t-60 -25.5t-60 25.5t-25 60.5z" />
    <glyph glyph-name="cent" unicode="&#xa2;" horiz-adv-x="358" 
d="M162 -100v97q-66 20 -103.5 86t-37.5 159t37.5 158.5t103.5 85.5v79h98v-74q55 -9 85 -39l-41 -105q-31 29 -59 29q-40 0 -62.5 -37.5t-22.5 -96.5t22.5 -97t62.5 -38q28 0 59 29l41 -105q-28 -30 -85 -39v-92h-98z" />
    <glyph glyph-name="sterling" unicode="&#xa3;" horiz-adv-x="447" 
d="M30 279v85h38q-24 57 -24 110q0 86 62.5 144.5t142.5 58.5q69 0 118 -36t61 -104l-122 -50q-11 68 -48 68q-21 0 -35.5 -22.5t-14.5 -60.5q0 -48 24 -108h70v-85h-50q1 -7 1 -23q0 -29 -15 -64.5t-37 -54.5q19 8 37 8q22 0 49 -11.5t45 -11.5q46 0 69 27l38 -119
q-15 -17 -49 -29.5t-71 -12.5q-40 0 -81.5 21t-62.5 21q-41 0 -89 -37l-41 102q33 22 53.5 54.5t20.5 65.5q0 30 -12 64h-77z" />
    <glyph glyph-name="currency" unicode="&#xa4;" horiz-adv-x="466" 
d="M233 96q-49 0 -85 18l-65 -65l-80 79l65 65q-31 59 -31 140q0 83 32 141l-66 66l80 79l67 -68q38 18 83 18q44 0 83 -18l68 68l79 -79l-66 -66q32 -61 32 -141q0 -83 -32 -141l66 -65l-79 -79l-67 66q-36 -18 -84 -18zM233 212q33 0 50.5 33.5t17.5 87.5q0 53 -17.5 86.5
t-50.5 33.5t-50.5 -33.5t-17.5 -86.5q0 -54 17.5 -87.5t50.5 -33.5z" />
    <glyph glyph-name="yen" unicode="&#xa5;" horiz-adv-x="460" 
d="M431 273h-405v82h405v-82zM431 114h-405v82h405v-82zM306 0h-152v273l-160 394h161l75 -251l76 251h159l-159 -394v-273z" />
    <glyph glyph-name="brokenbar" unicode="&#xa6;" horiz-adv-x="182" 
d="M136 -20h-89v316h89v-316zM136 371h-89v316h89v-316z" />
    <glyph glyph-name="section" unicode="&#xa7;" horiz-adv-x="365" 
d="M349 322q0 -81 -71 -125q71 -47 71 -126q0 -64 -49 -108t-122 -44q-111 0 -170 64l54 90q17 -20 46 -37t57 -17q27 0 41 14t14 34q0 21 -20 37t-48.5 28.5t-57 29t-48.5 48.5t-20 77q0 43 21.5 74t56.5 46q-78 47 -78 131q0 62 44 100.5t113 38.5q102 0 163 -61l-52 -81
q-46 47 -95 47q-22 0 -35 -11.5t-13 -30.5q0 -20 20.5 -35t49.5 -27.5t58 -29.5t49.5 -49t20.5 -77zM231 289q0 55 -43 77q-44 -10 -44 -53q0 -49 55 -77q32 17 32 53z" />
    <glyph glyph-name="dieresis" unicode="&#xa8;" horiz-adv-x="284" 
d="M301 612q0 -30 -21 -50.5t-51 -20.5q-29 0 -50 20.5t-21 50.5t21 50.5t50 20.5q30 0 51 -20.5t21 -50.5zM126 612q0 -29 -20.5 -50t-50.5 -21q-29 0 -50 21t-21 50t21 50t50 21q30 0 50.5 -21t20.5 -50z" />
    <glyph glyph-name="copyright" unicode="&#xa9;" horiz-adv-x="778" 
d="M734 334q0 -142 -101 -243.5t-244 -101.5t-244 101.5t-101 243.5t101 243.5t244 101.5t244 -101.5t101 -243.5zM696 334q0 126 -90.5 216.5t-216.5 90.5t-216.5 -90.5t-90.5 -216.5t90.5 -216.5t216.5 -90.5t216.5 90.5t90.5 216.5zM511 223l34 -31q-59 -69 -150 -69
q-87 0 -147.5 60.5t-60.5 151.5q0 90 60.5 150t147.5 60q91 0 148 -67l-32 -32q-43 58 -116 58q-67 0 -114 -47.5t-47 -121.5q0 -73 47.5 -122t113.5 -49q72 0 116 59z" />
    <glyph glyph-name="ordfeminine" unicode="&#xaa;" horiz-adv-x="312" 
d="M278 326h-97v31q-21 -39 -73 -39q-40 0 -66 26.5t-26 75.5t26 76t66 27q50 0 73 -35v33q0 26 -13 40t-36 14q-36 0 -69 -36l-34 64q21 23 56.5 34t67.5 11q58 0 91.5 -28t33.5 -86v-208zM145 381q26 0 36 25v36q-10 24 -36 24q-15 0 -24 -11.5t-9 -30.5q0 -43 33 -43z
" />
    <glyph glyph-name="guillemotleft" unicode="&#xab;" horiz-adv-x="416" 
d="M386 63h-103l-90 180l90 177h103l-90 -177zM222 63h-102l-90 180l90 177h102l-90 -177z" />
    <glyph glyph-name="logicalnot" unicode="&#xac;" horiz-adv-x="386" 
d="M357 469v-270h-86v188h-242v82h328z" />
    <glyph glyph-name="uni00AD" unicode="&#xad;" horiz-adv-x="244" 
d="M214 185h-184v114h184v-114z" />
    <glyph glyph-name="registered" unicode="&#xae;" horiz-adv-x="494" 
d="M459 465q0 -88 -62 -150t-150 -62t-150 62t-62 150t62 150t150 62q89 0 150.5 -61.5t61.5 -150.5zM426 465q0 76 -52 127.5t-127 51.5t-127 -51.5t-52 -127.5q0 -74 52 -126.5t127 -52.5t127 52.5t52 126.5zM347 343h-43l-63 96h-41v-96h-35v243h99q32 0 56 -20.5
t24 -53.5q0 -35 -22.5 -53.5t-39.5 -18.5zM308 512q0 19 -13.5 31.5t-30.5 12.5h-64v-86h64q17 0 30.5 12t13.5 30z" />
    <glyph glyph-name="macron" unicode="&#xaf;" horiz-adv-x="263" 
d="M263 560h-263v76h263v-76z" />
    <glyph glyph-name="degree" unicode="&#xb0;" horiz-adv-x="314" 
d="M294 540q0 -57 -40.5 -97t-97.5 -40q-56 0 -96.5 40t-40.5 97q0 56 40.5 96.5t96.5 40.5q57 0 97.5 -40.5t40.5 -96.5zM222 540q0 26 -19.5 45.5t-46.5 19.5q-26 0 -45 -19.5t-19 -45.5q0 -27 19 -46t45 -19q27 0 46.5 19t19.5 46z" />
    <glyph glyph-name="plusminus" unicode="&#xb1;" horiz-adv-x="386" 
d="M357 296h-119v-142h-91v142h-118v82h118v135h91v-135h119v-82zM357 18h-328v83h328v-83z" />
    <glyph glyph-name="twosuperior" unicode="&#xb2;" horiz-adv-x="308" 
d="M294 421h-268v74q107 104 136.5 140.5t29.5 66.5q0 20 -12.5 32.5t-33.5 12.5q-42 0 -73 -47l-59 60q53 67 138 67q64 0 102 -32t38 -89q0 -41 -30 -83.5t-109 -121.5h141v-80z" />
    <glyph glyph-name="threesuperior" unicode="&#xb3;" horiz-adv-x="308" 
d="M293 532q0 -54 -39 -86t-102 -32q-96 0 -140 64l63 61q30 -45 73 -45q23 0 35 13t12 32q0 46 -53 46q-24 0 -30 -1v79q5 -1 26 -1q52 0 52 42q0 43 -45 43q-43 0 -68 -40l-61 55q48 65 136 65q62 0 98.5 -28t36.5 -81q0 -32 -21 -58.5t-52 -32.5q34 -5 56.5 -32t22.5 -63
z" />
    <glyph glyph-name="acute" unicode="&#xb4;" horiz-adv-x="193" 
d="M193 700l-109 -144h-84l80 144h113z" />
    <glyph glyph-name="mu" unicode="&#xb5;" horiz-adv-x="455" 
d="M176 -3v-181h-136v667h136v-332q0 -44 34 -44q35 0 55 53v323h136v-343q0 -33 24 -33q6 0 14 2l9 -112q-22 -9 -60 -9q-101 0 -118 87q-9 -38 -28 -62.5t-41 -24.5q-16 0 -25 9z" />
    <glyph glyph-name="paragraph" unicode="&#xb6;" horiz-adv-x="449" 
d="M406 -100h-65v702h-77v-702h-65v423q-71 0 -121.5 50.5t-50.5 121.5t50.5 121.5t121.5 50.5h207v-767z" />
    <glyph glyph-name="periodcentered" unicode="&#xb7;" horiz-adv-x="259" 
d="M215 244q0 -35 -25.5 -60t-60.5 -25q-34 0 -59 25t-25 60t25 60.5t59 25.5q35 0 60.5 -25.5t25.5 -60.5z" />
    <glyph glyph-name="cedilla" unicode="&#xb8;" horiz-adv-x="191" 
d="M90 -196q-53 0 -90 32l25 51q32 -27 62 -27q17 0 27.5 8.5t10.5 22.5q0 24 -21 24q-14 0 -25 -13l-47 27l30 82h66l-26 -62q13 10 29 10q25 0 42.5 -20t17.5 -50q0 -39 -28 -62t-73 -23z" />
    <glyph glyph-name="onesuperior" unicode="&#xb9;" horiz-adv-x="259" 
d="M220 421h-102v271l-55 -56l-57 60l127 125h87v-400z" />
    <glyph glyph-name="ordmasculine" unicode="&#xba;" horiz-adv-x="318" 
d="M158 318q-66 0 -102 47.5t-36 117.5t36 117.5t102 47.5q67 0 103.5 -47.5t36.5 -117.5t-36.5 -117.5t-103.5 -47.5zM158 396q23 0 31 21.5t8 65.5t-8 65t-31 21q-38 0 -38 -86q0 -87 38 -87z" />
    <glyph glyph-name="guillemotright" unicode="&#xbb;" horiz-adv-x="416" 
d="M222 243l-90 -180h-102l90 180l-90 177h102zM386 243l-90 -180h-103l90 180l-90 177h103z" />
    <glyph glyph-name="onequarter" unicode="&#xbc;" horiz-adv-x="684" 
d="M220 267h-102v271l-55 -56l-57 60l127 125h87v-400zM672 83h-32v-83h-101v83h-151v78l130 239h122v-237h32v-80zM539 163v129l-67 -129h67zM512 667l-283 -667h-55l282 667h56z" />
    <glyph glyph-name="onehalf" unicode="&#xbd;" horiz-adv-x="721" 
d="M220 267h-102v271l-55 -56l-57 60l127 125h87v-400zM708 0h-268v74q107 104 136.5 140.5t29.5 66.5q0 20 -12.5 32.5t-33.5 12.5q-42 0 -73 -47l-59 60q53 67 138 67q64 0 102 -32t38 -89q0 -41 -30 -83.5t-109 -121.5h141v-80zM512 667l-283 -667h-55l282 667h56z" />
    <glyph glyph-name="threequarters" unicode="&#xbe;" horiz-adv-x="720" 
d="M708 83h-32v-83h-101v83h-151v78l130 239h122v-237h32v-80zM575 163v129l-67 -129h67zM548 667l-283 -667h-55l282 667h56zM293 378q0 -54 -39 -86t-102 -32q-96 0 -140 64l63 61q30 -45 73 -45q23 0 35 13t12 32q0 46 -53 46q-24 0 -30 -1v79q5 -1 26 -1q52 0 52 42
q0 43 -45 43q-43 0 -68 -40l-61 55q48 65 136 65q62 0 98.5 -28t36.5 -81q0 -32 -21 -58.5t-52 -32.5q34 -5 56.5 -32t22.5 -63z" />
    <glyph glyph-name="questiondown" unicode="&#xbf;" horiz-adv-x="296" 
d="M221 275q24 -35 24 -90q0 -35 -13.5 -66t-29 -49t-29 -41.5t-13.5 -46.5q0 -19 12 -33.5t31 -14.5q27 0 49 30l60 -93q-60 -66 -147 -66q-72 0 -113 40.5t-41 103.5q0 38 17 74t37.5 59.5t37.5 53.5t17 57q0 23 -13 42zM164 494q35 0 60 -25t25 -59q0 -35 -25 -60
t-60 -25t-60 25t-25 60t25 59.5t60 24.5z" />
    <glyph glyph-name="Agrave" unicode="&#xc0;" horiz-adv-x="454" 
d="M457 0h-155l-17 108h-116l-17 -108h-155l143 667h174zM267 240l-40 261l-40 -261h80zM275 723h-84l-109 144h114z" />
    <glyph glyph-name="Aacute" unicode="&#xc1;" horiz-adv-x="454" 
d="M457 0h-155l-17 108h-116l-17 -108h-155l143 667h174zM267 240l-40 261l-40 -261h80zM372 867l-109 -144h-84l80 144h113z" />
    <glyph glyph-name="Acircumflex" unicode="&#xc2;" horiz-adv-x="454" 
d="M350 723h-73l-51 86l-47 -86h-74l61 144h120zM457 0h-155l-17 108h-116l-17 -108h-155l143 667h174zM267 240l-40 261l-40 -261h80z" />
    <glyph glyph-name="Atilde" unicode="&#xc3;" horiz-adv-x="454" 
d="M457 0h-155l-17 108h-116l-17 -108h-155l143 667h174zM267 240l-40 261l-40 -261h80zM272 721q-22 0 -38.5 16t-28.5 32t-22 16q-25 0 -25 -58h-66q0 60 24.5 97t66.5 37q22 0 38.5 -16t28.5 -32t23 -16q24 0 24 58h66q0 -60 -24 -97t-67 -37z" />
    <glyph glyph-name="Adieresis" unicode="&#xc4;" horiz-adv-x="454" 
d="M385 779q0 -30 -21 -50.5t-51 -20.5q-29 0 -50 20.5t-21 50.5t21 50.5t50 20.5q30 0 51 -20.5t21 -50.5zM210 779q0 -29 -20.5 -50t-50.5 -21q-29 0 -50 21t-21 50t21 50t50 21q30 0 50.5 -21t20.5 -50zM457 0h-155l-17 108h-116l-17 -108h-155l143 667h174zM267 240
l-40 261l-40 -261h80z" />
    <glyph glyph-name="Aring" unicode="&#xc5;" horiz-adv-x="454" 
d="M457 0h-155l-17 108h-116l-17 -108h-155l143 667h174zM267 240l-40 261l-40 -261h80zM228 690q-38 0 -65 27t-27 65t27 65t65 27q37 0 63.5 -27t26.5 -65t-26.5 -65t-63.5 -27zM228 747q14 0 24 10t10 25t-10 25t-24 10t-24.5 -10t-10.5 -25t10.5 -25t24.5 -10z" />
    <glyph glyph-name="AE" unicode="&#xc6;" horiz-adv-x="633" 
d="M608 0h-313v108h-109l-31 -108h-154l228 667h379v-132h-162v-130h155v-132h-155v-141h162v-132zM295 240v261l-74 -261h74z" />
    <glyph glyph-name="Ccedilla" unicode="&#xc7;" horiz-adv-x="448" 
d="M246 -192q-53 0 -90 32l25 51q32 -27 62 -27q17 0 27.5 8.5t10.5 22.5q0 24 -21 24q-14 0 -25 -13l-47 27l21 59q-93 17 -139 107.5t-46 233.5q0 158 57 251.5t170 93.5q35 0 63 -11t46.5 -27t33.5 -41t23 -45.5t16 -47.5l-120 -44q-9 42 -23 62t-39 20q-72 0 -72 -211
t72 -211q51 0 63 95l120 -43q-42 -171 -161 -185l-15 -36q13 10 29 10q25 0 42.5 -20t17.5 -50q0 -39 -28 -62t-73 -23z" />
    <glyph glyph-name="Egrave" unicode="&#xc8;" horiz-adv-x="392" 
d="M361 0h-314v667h314v-132h-163v-130h156v-132h-156v-141h163v-132zM251 723h-84l-109 144h114z" />
    <glyph glyph-name="Eacute" unicode="&#xc9;" horiz-adv-x="392" 
d="M348 867l-109 -144h-84l80 144h113zM361 0h-314v667h314v-132h-163v-130h156v-132h-156v-141h163v-132z" />
    <glyph glyph-name="Ecircumflex" unicode="&#xca;" horiz-adv-x="392" 
d="M326 723h-73l-51 86l-47 -86h-74l61 144h120zM361 0h-314v667h314v-132h-163v-130h156v-132h-156v-141h163v-132z" />
    <glyph glyph-name="Edieresis" unicode="&#xcb;" horiz-adv-x="392" 
d="M365 779q0 -30 -21 -50.5t-51 -20.5q-29 0 -50 20.5t-21 50.5t21 50.5t50 20.5q30 0 51 -20.5t21 -50.5zM190 779q0 -29 -20.5 -50t-50.5 -21q-29 0 -50 21t-21 50t21 50t50 21q30 0 50.5 -21t20.5 -50zM361 0h-314v667h314v-132h-163v-130h156v-132h-156v-141h163v-132z
" />
    <glyph glyph-name="Igrave" unicode="&#xcc;" horiz-adv-x="245" 
d="M198 0h-151v667h151v-667zM170 723h-84l-109 144h114z" />
    <glyph glyph-name="Iacute" unicode="&#xcd;" horiz-adv-x="245" 
d="M198 0h-151v667h151v-667zM267 867l-109 -144h-84l80 144h113z" />
    <glyph glyph-name="Icircumflex" unicode="&#xce;" horiz-adv-x="245" 
d="M245 723h-73l-51 86l-47 -86h-74l61 144h120zM198 0h-151v667h151v-667z" />
    <glyph glyph-name="Idieresis" unicode="&#xcf;" horiz-adv-x="245" 
d="M282 779q0 -30 -21 -50.5t-51 -20.5q-29 0 -50 20.5t-21 50.5t21 50.5t50 20.5q30 0 51 -20.5t21 -50.5zM107 779q0 -29 -20.5 -50t-50.5 -21q-29 0 -50 21t-21 50t21 50t50 21q30 0 50.5 -21t20.5 -50zM198 0h-151v667h151v-667z" />
    <glyph glyph-name="Eth" unicode="&#xd0;" horiz-adv-x="524" 
d="M258 0h-187v275h-58v112h58v280h186q122 0 182.5 -92t60.5 -242q0 -151 -60 -242t-182 -91zM257 132q88 0 88 201q0 202 -88 202h-35v-148h61v-112h-61v-143h35z" />
    <glyph glyph-name="Ntilde" unicode="&#xd1;" horiz-adv-x="508" 
d="M298 721q-22 0 -38.5 16t-28.5 32t-22 16q-25 0 -25 -58h-66q0 60 24.5 97t66.5 37q22 0 38.5 -16t28.5 -32t23 -16q24 0 24 58h66q0 -60 -24 -97t-67 -37zM461 0h-141l-122 315v-315h-151v667h151l112 -300v300h151v-667z" />
    <glyph glyph-name="Ograve" unicode="&#xd2;" horiz-adv-x="500" 
d="M298 723h-84l-109 144h114zM250 -12q-112 0 -169 94t-57 251t57 251t169 94t169 -94t57 -251t-57 -251t-169 -94zM250 122q71 0 71 211t-71 211t-71 -211t71 -211z" />
    <glyph glyph-name="Oacute" unicode="&#xd3;" horiz-adv-x="500" 
d="M395 867l-109 -144h-84l80 144h113zM250 -12q-112 0 -169 94t-57 251t57 251t169 94t169 -94t57 -251t-57 -251t-169 -94zM250 122q71 0 71 211t-71 211t-71 -211t71 -211z" />
    <glyph glyph-name="Ocircumflex" unicode="&#xd4;" horiz-adv-x="500" 
d="M374 723h-73l-51 86l-47 -86h-74l61 144h120zM250 -12q-112 0 -169 94t-57 251t57 251t169 94t169 -94t57 -251t-57 -251t-169 -94zM250 122q71 0 71 211t-71 211t-71 -211t71 -211z" />
    <glyph glyph-name="Otilde" unicode="&#xd5;" horiz-adv-x="500" 
d="M250 -12q-112 0 -169 94t-57 251t57 251t169 94t169 -94t57 -251t-57 -251t-169 -94zM250 122q71 0 71 211t-71 211t-71 -211t71 -211zM296 721q-22 0 -38.5 16t-28.5 32t-22 16q-25 0 -25 -58h-66q0 60 24.5 97t66.5 37q22 0 38.5 -16t28.5 -32t23 -16q24 0 24 58h66
q0 -60 -24 -97t-67 -37z" />
    <glyph glyph-name="Odieresis" unicode="&#xd6;" horiz-adv-x="500" 
d="M409 779q0 -30 -21 -50.5t-51 -20.5q-29 0 -50 20.5t-21 50.5t21 50.5t50 20.5q30 0 51 -20.5t21 -50.5zM234 779q0 -29 -20.5 -50t-50.5 -21q-29 0 -50 21t-21 50t21 50t50 21q30 0 50.5 -21t20.5 -50zM250 -12q-112 0 -169 94t-57 251t57 251t169 94t169 -94t57 -251
t-57 -251t-169 -94zM250 122q71 0 71 211t-71 211t-71 -211t71 -211z" />
    <glyph glyph-name="multiply" unicode="&#xd7;" horiz-adv-x="386" 
d="M291 179l-98 97l-98 -97l-58 58l98 97l-98 97l58 58l98 -97l98 97l58 -58l-97 -97l97 -97z" />
    <glyph glyph-name="Oslash" unicode="&#xd8;" horiz-adv-x="500" 
d="M250 -12q-67 0 -117 36l-12 -24h-84l43 83q-56 91 -56 250q0 157 57 251t169 94q68 0 117 -37l13 26h84l-44 -85q56 -91 56 -249q0 -157 -57 -251t-169 -94zM179 333q0 -37 1 -55l117 228q-17 38 -47 38q-71 0 -71 -211zM250 122q71 0 71 211q0 36 -1 53l-117 -227
q17 -37 47 -37z" />
    <glyph glyph-name="Ugrave" unicode="&#xd9;" horiz-adv-x="508" 
d="M254 -12q-86 0 -146.5 55t-60.5 160v464h151v-472q0 -75 56 -75t56 75v472h152v-463q0 -106 -60.5 -161t-147.5 -55zM302 723h-84l-109 144h114z" />
    <glyph glyph-name="Uacute" unicode="&#xda;" horiz-adv-x="508" 
d="M399 867l-109 -144h-84l80 144h113zM254 -12q-86 0 -146.5 55t-60.5 160v464h151v-472q0 -75 56 -75t56 75v472h152v-463q0 -106 -60.5 -161t-147.5 -55z" />
    <glyph glyph-name="Ucircumflex" unicode="&#xdb;" horiz-adv-x="508" 
d="M378 723h-73l-51 86l-47 -86h-74l61 144h120zM254 -12q-86 0 -146.5 55t-60.5 160v464h151v-472q0 -75 56 -75t56 75v472h152v-463q0 -106 -60.5 -161t-147.5 -55z" />
    <glyph glyph-name="Udieresis" unicode="&#xdc;" horiz-adv-x="508" 
d="M413 779q0 -30 -21 -50.5t-51 -20.5q-29 0 -50 20.5t-21 50.5t21 50.5t50 20.5q30 0 51 -20.5t21 -50.5zM238 779q0 -29 -20.5 -50t-50.5 -21q-29 0 -50 21t-21 50t21 50t50 21q30 0 50.5 -21t20.5 -50zM254 -12q-86 0 -146.5 55t-60.5 160v464h151v-472q0 -75 56 -75
t56 75v472h152v-463q0 -106 -60.5 -161t-147.5 -55z" />
    <glyph glyph-name="Yacute" unicode="&#xdd;" horiz-adv-x="460" 
d="M306 0h-152v273l-160 394h161l75 -251l76 251h159l-159 -394v-273zM375 867l-109 -144h-84l80 144h113z" />
    <glyph glyph-name="Thorn" unicode="&#xde;" horiz-adv-x="469" 
d="M198 0h-151v667h151v-106h50q99 0 151 -62.5t52 -154.5t-52 -154t-151 -62h-50v-128zM231 260q31 0 48.5 22.5t17.5 61.5t-17.5 62t-48.5 23h-33v-169h33z" />
    <glyph glyph-name="germandbls" unicode="&#xdf;" horiz-adv-x="549" 
d="M537 140q0 -60 -46 -106t-117 -46q-97 0 -158 64l46 94q43 -50 84 -50q22 0 35 10.5t13 29.5q0 20 -26 38.5t-57.5 33.5t-57.5 49.5t-26 84.5q0 26 9.5 47.5t22.5 35t26.5 25.5t23 26.5t9.5 30.5q0 21 -18.5 36t-46.5 15q-73 0 -73 -83v-475h-136v475q0 85 57 143.5
t152 58.5q81 0 141 -45t60 -109q0 -37 -15 -65.5t-33 -42.5t-33 -30t-15 -31q0 -16 18.5 -28.5t45 -24.5t52.5 -28.5t44.5 -50.5t18.5 -82z" />
    <glyph glyph-name="agrave" unicode="&#xe0;" 
d="M394 0h-135v46q-15 -26 -45.5 -42t-59.5 -16q-59 0 -96.5 43t-37.5 117t37 115t97 41q30 0 60.5 -14.5t44.5 -39.5v51q0 37 -18.5 58.5t-53.5 21.5q-48 0 -100 -47l-48 95q31 33 81 49.5t96 16.5q82 0 130 -40.5t48 -120.5v-334zM205 78q38 0 54 40v55q-17 41 -54 41
q-24 0 -37.5 -18.5t-13.5 -49.5t13.5 -49.5t37.5 -18.5zM264 556h-84l-109 144h114z" />
    <glyph glyph-name="aacute" unicode="&#xe1;" 
d="M394 0h-135v46q-15 -26 -45.5 -42t-59.5 -16q-59 0 -96.5 43t-37.5 117t37 115t97 41q30 0 60.5 -14.5t44.5 -39.5v51q0 37 -18.5 58.5t-53.5 21.5q-48 0 -100 -47l-48 95q31 33 81 49.5t96 16.5q82 0 130 -40.5t48 -120.5v-334zM205 78q38 0 54 40v55q-17 41 -54 41
q-24 0 -37.5 -18.5t-13.5 -49.5t13.5 -49.5t37.5 -18.5zM361 700l-109 -144h-84l80 144h113z" />
    <glyph glyph-name="acircumflex" unicode="&#xe2;" 
d="M394 0h-135v46q-15 -26 -45.5 -42t-59.5 -16q-59 0 -96.5 43t-37.5 117t37 115t97 41q30 0 60.5 -14.5t44.5 -39.5v51q0 37 -18.5 58.5t-53.5 21.5q-48 0 -100 -47l-48 95q31 33 81 49.5t96 16.5q82 0 130 -40.5t48 -120.5v-334zM205 78q38 0 54 40v55q-17 41 -54 41
q-24 0 -37.5 -18.5t-13.5 -49.5t13.5 -49.5t37.5 -18.5zM343 556h-73l-51 86l-47 -86h-74l61 144h120z" />
    <glyph glyph-name="atilde" unicode="&#xe3;" 
d="M394 0h-135v46q-15 -26 -45.5 -42t-59.5 -16q-59 0 -96.5 43t-37.5 117t37 115t97 41q30 0 60.5 -14.5t44.5 -39.5v51q0 37 -18.5 58.5t-53.5 21.5q-48 0 -100 -47l-48 95q31 33 81 49.5t96 16.5q82 0 130 -40.5t48 -120.5v-334zM205 78q38 0 54 40v55q-17 41 -54 41
q-24 0 -37.5 -18.5t-13.5 -49.5t13.5 -49.5t37.5 -18.5zM263 554q-22 0 -38.5 16t-28.5 32t-22 16q-25 0 -25 -58h-66q0 60 24.5 97t66.5 37q22 0 38.5 -16t28.5 -32t23 -16q24 0 24 58h66q0 -60 -24 -97t-67 -37z" />
    <glyph glyph-name="adieresis" unicode="&#xe4;" 
d="M394 0h-135v46q-15 -26 -45.5 -42t-59.5 -16q-59 0 -96.5 43t-37.5 117t37 115t97 41q30 0 60.5 -14.5t44.5 -39.5v51q0 37 -18.5 58.5t-53.5 21.5q-48 0 -100 -47l-48 95q31 33 81 49.5t96 16.5q82 0 130 -40.5t48 -120.5v-334zM205 78q38 0 54 40v55q-17 41 -54 41
q-24 0 -37.5 -18.5t-13.5 -49.5t13.5 -49.5t37.5 -18.5zM378 612q0 -30 -21 -50.5t-51 -20.5q-29 0 -50 20.5t-21 50.5t21 50.5t50 20.5q30 0 51 -20.5t21 -50.5zM203 612q0 -29 -20.5 -50t-50.5 -21q-29 0 -50 21t-21 50t21 50t50 21q30 0 50.5 -21t20.5 -50z" />
    <glyph glyph-name="aring" unicode="&#xe5;" 
d="M394 0h-135v46q-15 -26 -45.5 -42t-59.5 -16q-59 0 -96.5 43t-37.5 117t37 115t97 41q30 0 60.5 -14.5t44.5 -39.5v51q0 37 -18.5 58.5t-53.5 21.5q-48 0 -100 -47l-48 95q31 33 81 49.5t96 16.5q82 0 130 -40.5t48 -120.5v-334zM205 78q38 0 54 40v55q-17 41 -54 41
q-24 0 -37.5 -18.5t-13.5 -49.5t13.5 -49.5t37.5 -18.5zM217 532q-38 0 -65 27t-27 65t27 65t65 27q37 0 63.5 -27t26.5 -65t-26.5 -65t-63.5 -27zM217 589q14 0 24 10t10 25t-10 25t-24 10t-24.5 -10t-10.5 -25t10.5 -25t24.5 -10z" />
    <glyph glyph-name="ae" unicode="&#xe6;" horiz-adv-x="656" 
d="M638 197h-249q5 -99 89 -99q45 0 79 42l63 -77q-63 -75 -157 -75q-47 0 -78 17.5t-58 54.5q-57 -72 -150 -72q-70 0 -113.5 41.5t-43.5 115.5t37.5 116.5t97.5 42.5q30 0 60.5 -14.5t44.5 -39.5v51q0 37 -18.5 58.5t-53.5 21.5q-49 0 -101 -47l-48 95q31 33 79.5 49.5
t87.5 16.5q89 0 123 -62q48 62 129 62q89 0 134.5 -69.5t45.5 -183.5v-45zM389 290h120q0 96 -59 96q-33 0 -47 -29t-14 -67zM260 159v14q-16 41 -57 41q-24 0 -38.5 -17t-14.5 -44q0 -61 53 -61q25 0 41 20t16 47z" />
    <glyph glyph-name="ccedilla" unicode="&#xe7;" horiz-adv-x="358" 
d="M218 -194q-53 0 -90 32l25 51q32 -27 62 -27q17 0 27.5 8.5t10.5 22.5q0 24 -21 24q-14 0 -25 -13l-47 27l22 61q-75 14 -118 82t-43 168q0 113 53.5 183t144.5 70q83 0 126 -43l-41 -105q-31 29 -59 29q-40 0 -62.5 -37.5t-22.5 -96.5t22.5 -97t62.5 -38q28 0 59 29
l41 -105q-34 -34 -99 -41l-16 -39q13 10 29 10q25 0 42.5 -20t17.5 -50q0 -39 -28 -62t-73 -23z" />
    <glyph glyph-name="egrave" unicode="&#xe8;" horiz-adv-x="420" 
d="M226 -12q-96 0 -150.5 69.5t-54.5 184.5q0 110 51.5 181.5t144.5 71.5t139 -68t46 -182v-48h-250q1 -44 23 -71.5t66 -27.5q45 0 81 42l62 -77q-63 -75 -158 -75zM273 290q0 96 -61 96q-60 0 -60 -96h121zM265 556h-84l-109 144h114z" />
    <glyph glyph-name="eacute" unicode="&#xe9;" horiz-adv-x="420" 
d="M361 700l-109 -144h-84l80 144h113zM226 -12q-96 0 -150.5 69.5t-54.5 184.5q0 110 51.5 181.5t144.5 71.5t139 -68t46 -182v-48h-250q1 -44 23 -71.5t66 -27.5q45 0 81 42l62 -77q-63 -75 -158 -75zM273 290q0 96 -61 96q-60 0 -60 -96h121z" />
    <glyph glyph-name="ecircumflex" unicode="&#xea;" horiz-adv-x="420" 
d="M337 556h-73l-51 86l-47 -86h-74l61 144h120zM226 -12q-96 0 -150.5 69.5t-54.5 184.5q0 110 51.5 181.5t144.5 71.5t139 -68t46 -182v-48h-250q1 -44 23 -71.5t66 -27.5q45 0 81 42l62 -77q-63 -75 -158 -75zM273 290q0 96 -61 96q-60 0 -60 -96h121z" />
    <glyph glyph-name="edieresis" unicode="&#xeb;" horiz-adv-x="420" 
d="M373 612q0 -30 -21 -50.5t-51 -20.5q-29 0 -50 20.5t-21 50.5t21 50.5t50 20.5q30 0 51 -20.5t21 -50.5zM198 612q0 -29 -20.5 -50t-50.5 -21q-29 0 -50 21t-21 50t21 50t50 21q30 0 50.5 -21t20.5 -50zM226 -12q-96 0 -150.5 69.5t-54.5 184.5q0 110 51.5 181.5
t144.5 71.5t139 -68t46 -182v-48h-250q1 -44 23 -71.5t66 -27.5q45 0 81 42l62 -77q-63 -75 -158 -75zM273 290q0 96 -61 96q-60 0 -60 -96h121z" />
    <glyph glyph-name="igrave" unicode="&#xec;" horiz-adv-x="216" 
d="M176 0h-136v483h136v-483zM156 556h-84l-109 144h114z" />
    <glyph glyph-name="iacute" unicode="&#xed;" horiz-adv-x="216" 
d="M253 700l-109 -144h-84l80 144h113zM176 0h-136v483h136v-483z" />
    <glyph glyph-name="icircumflex" unicode="&#xee;" horiz-adv-x="216" 
d="M231 556h-73l-51 86l-47 -86h-74l61 144h120zM176 0h-136v483h136v-483z" />
    <glyph glyph-name="idieresis" unicode="&#xef;" horiz-adv-x="216" 
d="M267 612q0 -30 -21 -50.5t-51 -20.5q-29 0 -50 20.5t-21 50.5t21 50.5t50 20.5q30 0 51 -20.5t21 -50.5zM92 612q0 -29 -20.5 -50t-50.5 -21q-29 0 -50 21t-21 50t21 50t50 21q30 0 50.5 -21t20.5 -50zM176 0h-136v483h136v-483z" />
    <glyph glyph-name="eth" unicode="&#xf0;" 
d="M145 490l-28 62l92 40q-9 20 -33 62l118 54q24 -42 34 -64l63 28l26 -61l-62 -28q58 -147 58 -305q0 -138 -48.5 -214t-147.5 -76q-96 0 -146 67.5t-50 168.5q0 98 41.5 166t113.5 68q66 0 98 -72q-11 73 -38 144zM217 107q57 0 57 116q0 115 -57 115q-56 0 -56 -115
q0 -116 56 -116z" />
    <glyph glyph-name="ntilde" unicode="&#xf1;" horiz-adv-x="441" 
d="M401 0h-136v331q0 45 -33 45q-35 0 -56 -55v-321h-136v483h136v-60q15 28 49.5 50t67.5 22q108 0 108 -113v-382zM266 554q-22 0 -38.5 16t-28.5 32t-22 16q-25 0 -25 -58h-66q0 60 24.5 97t66.5 37q22 0 38.5 -16t28.5 -32t23 -16q24 0 24 58h66q0 -60 -24 -97t-67 -37z
" />
    <glyph glyph-name="ograve" unicode="&#xf2;" 
d="M217 -12q-96 0 -146 73t-50 181t50 180.5t146 72.5t146 -72.5t50 -180.5t-50 -181t-146 -73zM217 107q57 0 57 135q0 134 -57 134q-56 0 -56 -134q0 -135 56 -135zM265 556h-84l-109 144h114z" />
    <glyph glyph-name="oacute" unicode="&#xf3;" 
d="M361 700l-109 -144h-84l80 144h113zM217 -12q-96 0 -146 73t-50 181t50 180.5t146 72.5t146 -72.5t50 -180.5t-50 -181t-146 -73zM217 107q57 0 57 135q0 134 -57 134q-56 0 -56 -134q0 -135 56 -135z" />
    <glyph glyph-name="ocircumflex" unicode="&#xf4;" 
d="M341 556h-73l-51 86l-47 -86h-74l61 144h120zM217 -12q-96 0 -146 73t-50 181t50 180.5t146 72.5t146 -72.5t50 -180.5t-50 -181t-146 -73zM217 107q57 0 57 135q0 134 -57 134q-56 0 -56 -134q0 -135 56 -135z" />
    <glyph glyph-name="otilde" unicode="&#xf5;" 
d="M217 -12q-96 0 -146 73t-50 181t50 180.5t146 72.5t146 -72.5t50 -180.5t-50 -181t-146 -73zM217 107q57 0 57 135q0 134 -57 134q-56 0 -56 -134q0 -135 56 -135zM262 554q-22 0 -38.5 16t-28.5 32t-22 16q-25 0 -25 -58h-66q0 60 24.5 97t66.5 37q22 0 38.5 -16
t28.5 -32t23 -16q24 0 24 58h66q0 -60 -24 -97t-67 -37z" />
    <glyph glyph-name="odieresis" unicode="&#xf6;" 
d="M376 612q0 -30 -21 -50.5t-51 -20.5q-29 0 -50 20.5t-21 50.5t21 50.5t50 20.5q30 0 51 -20.5t21 -50.5zM201 612q0 -29 -20.5 -50t-50.5 -21q-29 0 -50 21t-21 50t21 50t50 21q30 0 50.5 -21t20.5 -50zM217 -12q-96 0 -146 73t-50 181t50 180.5t146 72.5t146 -72.5
t50 -180.5t-50 -181t-146 -73zM217 107q57 0 57 135q0 134 -57 134q-56 0 -56 -134q0 -135 56 -135z" />
    <glyph glyph-name="divide" unicode="&#xf7;" horiz-adv-x="374" 
d="M251 483q0 -26 -18.5 -44.5t-45.5 -18.5q-25 0 -43.5 18.5t-18.5 44.5t18 44.5t44 18.5q27 0 45.5 -18.5t18.5 -44.5zM345 296h-316v82h316v-82zM251 190q0 -26 -18.5 -44.5t-45.5 -18.5q-26 0 -44 18.5t-18 44.5t18 44.5t44 18.5q27 0 45.5 -18.5t18.5 -44.5z" />
    <glyph glyph-name="oslash" unicode="&#xf8;" 
d="M100 0h-73l41 65q-47 68 -47 177q0 108 50 180.5t146 72.5q60 0 105 -32l13 20h72l-41 -65q47 -68 47 -176t-50 -181t-146 -73q-59 0 -105 31zM161 242v-31l92 144q-13 21 -36 21q-56 0 -56 -134zM217 107q57 0 57 135q0 20 -1 30l-92 -145q12 -20 36 -20z" />
    <glyph glyph-name="ugrave" unicode="&#xf9;" horiz-adv-x="441" 
d="M401 0h-136v58q-15 -28 -49 -49t-68 -21q-108 0 -108 111v384h136v-332q0 -44 33 -44q18 0 33 15.5t23 37.5v323h136v-483zM268 556h-84l-109 144h114z" />
    <glyph glyph-name="uacute" unicode="&#xfa;" horiz-adv-x="441" 
d="M365 700l-109 -144h-84l80 144h113zM401 0h-136v58q-15 -28 -49 -49t-68 -21q-108 0 -108 111v384h136v-332q0 -44 33 -44q18 0 33 15.5t23 37.5v323h136v-483z" />
    <glyph glyph-name="ucircumflex" unicode="&#xfb;" horiz-adv-x="441" 
d="M344 556h-73l-51 86l-47 -86h-74l61 144h120zM401 0h-136v58q-15 -28 -49 -49t-68 -21q-108 0 -108 111v384h136v-332q0 -44 33 -44q18 0 33 15.5t23 37.5v323h136v-483z" />
    <glyph glyph-name="udieresis" unicode="&#xfc;" horiz-adv-x="441" 
d="M380 612q0 -30 -21 -50.5t-51 -20.5q-29 0 -50 20.5t-21 50.5t21 50.5t50 20.5q30 0 51 -20.5t21 -50.5zM205 612q0 -29 -20.5 -50t-50.5 -21q-29 0 -50 21t-21 50t21 50t50 21q30 0 50.5 -21t20.5 -50zM401 0h-136v58q-15 -28 -49 -49t-68 -21q-108 0 -108 111v384h136
v-332q0 -44 33 -44q18 0 33 15.5t23 37.5v323h136v-483z" />
    <glyph glyph-name="yacute" unicode="&#xfd;" horiz-adv-x="408" 
d="M44 -188l19 117q7 -6 21 -6q30 0 39 30l11 37l-136 493h143l62 -312l64 312h143l-155 -558q-20 -69 -54.5 -95t-96.5 -26q-42 0 -60 8zM348 700l-109 -144h-84l80 144h113z" />
    <glyph glyph-name="thorn" unicode="&#xfe;" horiz-adv-x="442" 
d="M272 -12q-68 0 -96 67v-239h-136v851h136v-239q31 67 96 67q72 0 110.5 -66.5t38.5 -187.5q0 -117 -39 -185t-110 -68zM225 107q58 0 58 134q0 135 -58 135q-32 0 -49 -45v-178q17 -46 49 -46z" />
    <glyph glyph-name="ydieresis" unicode="&#xff;" horiz-adv-x="408" 
d="M44 -188l19 117q7 -6 21 -6q30 0 39 30l11 37l-136 493h143l62 -312l64 312h143l-155 -558q-20 -69 -54.5 -95t-96.5 -26q-42 0 -60 8zM364 612q0 -30 -21 -50.5t-51 -20.5q-29 0 -50 20.5t-21 50.5t21 50.5t50 20.5q30 0 51 -20.5t21 -50.5zM189 612q0 -29 -20.5 -50
t-50.5 -21q-29 0 -50 21t-21 50t21 50t50 21q30 0 50.5 -21t20.5 -50z" />
    <glyph glyph-name="Amacron" unicode="&#x100;" horiz-adv-x="454" 
d="M457 0h-155l-17 108h-116l-17 -108h-155l143 667h174zM267 240l-40 261l-40 -261h80zM358 727h-263v76h263v-76z" />
    <glyph glyph-name="amacron" unicode="&#x101;" 
d="M394 0h-135v46q-15 -26 -45.5 -42t-59.5 -16q-59 0 -96.5 43t-37.5 117t37 115t97 41q30 0 60.5 -14.5t44.5 -39.5v51q0 37 -18.5 58.5t-53.5 21.5q-48 0 -100 -47l-48 95q31 33 81 49.5t96 16.5q82 0 130 -40.5t48 -120.5v-334zM205 78q38 0 54 40v55q-17 41 -54 41
q-24 0 -37.5 -18.5t-13.5 -49.5t13.5 -49.5t37.5 -18.5zM349 560h-263v76h263v-76z" />
    <glyph glyph-name="Abreve" unicode="&#x102;" horiz-adv-x="454" 
d="M457 0h-155l-17 108h-116l-17 -108h-155l143 667h174zM267 240l-40 261l-40 -261h80zM353 772q-47 -63 -126 -63q-80 0 -127 63l62 47q22 -35 65 -35q41 0 65 35z" />
    <glyph glyph-name="abreve" unicode="&#x103;" 
d="M394 0h-135v46q-15 -26 -45.5 -42t-59.5 -16q-59 0 -96.5 43t-37.5 117t37 115t97 41q30 0 60.5 -14.5t44.5 -39.5v51q0 37 -18.5 58.5t-53.5 21.5q-48 0 -100 -47l-48 95q31 33 81 49.5t96 16.5q82 0 130 -40.5t48 -120.5v-334zM205 78q38 0 54 40v55q-17 41 -54 41
q-24 0 -37.5 -18.5t-13.5 -49.5t13.5 -49.5t37.5 -18.5zM344 605q-47 -63 -126 -63q-80 0 -127 63l62 47q22 -35 65 -35q41 0 65 35z" />
    <glyph glyph-name="Aogonek" unicode="&#x104;" horiz-adv-x="454" 
d="M449 -105l53 -28q-24 -53 -78 -53q-40 0 -63 21.5t-23 63.5q0 54 39 101h-75l-17 108h-116l-17 -108h-155l143 667h174l143 -667q-54 -39 -54 -96q0 -34 22 -34q17 0 24 25zM267 240l-40 261l-40 -261h80z" />
    <glyph glyph-name="aogonek" unicode="&#x105;" 
d="M386 -105l53 -28q-24 -53 -78 -53q-40 0 -63 21.5t-23 63.5q0 54 39 101h-55v46q-15 -26 -45.5 -42t-59.5 -16q-59 0 -96.5 43t-37.5 117t37 115t97 41q30 0 60.5 -14.5t44.5 -39.5v51q0 37 -18.5 58.5t-53.5 21.5q-48 0 -100 -47l-48 95q31 33 81 49.5t96 16.5
q82 0 130 -40.5t48 -120.5v-334q-54 -39 -54 -96q0 -34 22 -34q17 0 24 25zM205 78q38 0 54 40v55q-17 41 -54 41q-24 0 -37.5 -18.5t-13.5 -49.5t13.5 -49.5t37.5 -18.5z" />
    <glyph glyph-name="Cacute" unicode="&#x106;" horiz-adv-x="448" 
d="M396 867l-109 -144h-84l80 144h113zM251 -12q-113 0 -170 93.5t-57 251.5t57 251.5t170 93.5q35 0 63 -11t46.5 -27t33.5 -41t23 -45.5t16 -47.5l-120 -44q-9 42 -23 62t-39 20q-72 0 -72 -211t72 -211q51 0 63 95l120 -43q-9 -35 -20 -63t-31.5 -58.5t-54 -47.5
t-77.5 -17z" />
    <glyph glyph-name="cacute" unicode="&#x107;" horiz-adv-x="358" 
d="M364 700l-109 -144h-84l80 144h113zM219 -12q-90 0 -144 70.5t-54 183.5t53.5 183t144.5 70q83 0 126 -43l-41 -105q-31 29 -59 29q-40 0 -62.5 -37.5t-22.5 -96.5t22.5 -97t62.5 -38q28 0 59 29l41 -105q-41 -43 -126 -43z" />
    <glyph glyph-name="Ccircumflex" unicode="&#x108;" horiz-adv-x="448" 
d="M374 723h-73l-51 86l-47 -86h-74l61 144h120zM251 -12q-113 0 -170 93.5t-57 251.5t57 251.5t170 93.5q35 0 63 -11t46.5 -27t33.5 -41t23 -45.5t16 -47.5l-120 -44q-9 42 -23 62t-39 20q-72 0 -72 -211t72 -211q51 0 63 95l120 -43q-9 -35 -20 -63t-31.5 -58.5
t-54 -47.5t-77.5 -17z" />
    <glyph glyph-name="ccircumflex" unicode="&#x109;" horiz-adv-x="358" 
d="M343 556h-73l-51 86l-47 -86h-74l61 144h120zM219 -12q-90 0 -144 70.5t-54 183.5t53.5 183t144.5 70q83 0 126 -43l-41 -105q-31 29 -59 29q-40 0 -62.5 -37.5t-22.5 -96.5t22.5 -97t62.5 -38q28 0 59 29l41 -105q-41 -43 -126 -43z" />
    <glyph glyph-name="Cdotaccent" unicode="&#x10a;" horiz-adv-x="448" 
d="M251 -12q-113 0 -170 93.5t-57 251.5t57 251.5t170 93.5q35 0 63 -11t46.5 -27t33.5 -41t23 -45.5t16 -47.5l-120 -44q-9 42 -23 62t-39 20q-72 0 -72 -211t72 -211q51 0 63 95l120 -43q-9 -35 -20 -63t-31.5 -58.5t-54 -47.5t-77.5 -17zM249 708q-29 0 -50 20.5
t-21 50.5q0 29 21 49.5t50 20.5t50 -20.5t21 -49.5q0 -30 -21 -50.5t-50 -20.5z" />
    <glyph glyph-name="cdotaccent" unicode="&#x10b;" horiz-adv-x="358" 
d="M219 -12q-90 0 -144 70.5t-54 183.5t53.5 183t144.5 70q83 0 126 -43l-41 -105q-31 29 -59 29q-40 0 -62.5 -37.5t-22.5 -96.5t22.5 -97t62.5 -38q28 0 59 29l41 -105q-41 -43 -126 -43zM220 541q-29 0 -50 20.5t-21 50.5q0 29 21 49.5t50 20.5t50 -20.5t21 -49.5
q0 -30 -21 -50.5t-50 -20.5z" />
    <glyph glyph-name="Ccaron" unicode="&#x10c;" horiz-adv-x="448" 
d="M313 723h-120l-64 144h74l50 -86l48 86h73zM251 -12q-113 0 -170 93.5t-57 251.5t57 251.5t170 93.5q35 0 63 -11t46.5 -27t33.5 -41t23 -45.5t16 -47.5l-120 -44q-9 42 -23 62t-39 20q-72 0 -72 -211t72 -211q51 0 63 95l120 -43q-9 -35 -20 -63t-31.5 -58.5t-54 -47.5
t-77.5 -17z" />
    <glyph glyph-name="ccaron" unicode="&#x10d;" horiz-adv-x="358" 
d="M282 556h-120l-64 144h74l50 -86l48 86h73zM219 -12q-90 0 -144 70.5t-54 183.5t53.5 183t144.5 70q83 0 126 -43l-41 -105q-31 29 -59 29q-40 0 -62.5 -37.5t-22.5 -96.5t22.5 -97t62.5 -38q28 0 59 29l41 -105q-41 -43 -126 -43z" />
    <glyph glyph-name="Dcaron" unicode="&#x10e;" horiz-adv-x="500" 
d="M309 723h-120l-64 144h74l50 -86l48 86h73zM234 0h-187v667h186q122 0 182.5 -92t60.5 -242q0 -151 -60 -242t-182 -91zM233 132q88 0 88 201q0 202 -88 202h-35v-403h35z" />
    <glyph glyph-name="dcaron" unicode="&#x10f;" horiz-adv-x="570" 
d="M576 594q0 -92 -84 -151l-45 36q20 12 39.5 35t24.5 44q-5 -3 -15 -3q-24 0 -40 16.5t-16 42.5t19 45.5t45 19.5q30 0 51 -23.5t21 -61.5zM402 0h-135v57q-33 -69 -97 -69q-72 0 -110.5 67t-38.5 187q0 117 38.5 185t110.5 68q29 0 56 -17t41 -52v241h135v-667zM217 107
q15 0 28.5 13.5t21.5 34.5v175q-8 20 -21.5 33t-28.5 13q-57 0 -57 -134q0 -135 57 -135z" />
    <glyph glyph-name="Dcroat" unicode="&#x110;" horiz-adv-x="524" 
d="M258 0h-187v275h-58v112h58v280h186q122 0 182.5 -92t60.5 -242q0 -151 -60 -242t-182 -91zM257 132q88 0 88 201q0 202 -88 202h-35v-148h61v-112h-61v-143h35z" />
    <glyph glyph-name="dcroat" unicode="&#x111;" horiz-adv-x="446" 
d="M402 0h-135v57q-33 -69 -97 -69q-72 0 -110.5 67t-38.5 187q0 117 38.5 185t110.5 68q29 0 56 -17t41 -52v102h-119v76h119v63h135v-63h34v-76h-34v-528zM217 107q15 0 28.5 13.5t21.5 34.5v175q-8 20 -21.5 33t-28.5 13q-57 0 -57 -134q0 -135 57 -135z" />
    <glyph glyph-name="Emacron" unicode="&#x112;" horiz-adv-x="392" 
d="M361 0h-314v667h314v-132h-163v-130h156v-132h-156v-141h163v-132zM335 727h-263v76h263v-76z" />
    <glyph glyph-name="emacron" unicode="&#x113;" horiz-adv-x="420" 
d="M226 -12q-96 0 -150.5 69.5t-54.5 184.5q0 110 51.5 181.5t144.5 71.5t139 -68t46 -182v-48h-250q1 -44 23 -71.5t66 -27.5q45 0 81 42l62 -77q-63 -75 -158 -75zM273 290q0 96 -61 96q-60 0 -60 -96h121zM344 560h-263v76h263v-76z" />
    <glyph glyph-name="Ebreve" unicode="&#x114;" horiz-adv-x="392" 
d="M361 0h-314v667h314v-132h-163v-130h156v-132h-156v-141h163v-132zM330 772q-47 -63 -126 -63q-80 0 -127 63l62 47q22 -35 65 -35q41 0 65 35z" />
    <glyph glyph-name="ebreve" unicode="&#x115;" horiz-adv-x="420" 
d="M226 -12q-96 0 -150.5 69.5t-54.5 184.5q0 110 51.5 181.5t144.5 71.5t139 -68t46 -182v-48h-250q1 -44 23 -71.5t66 -27.5q45 0 81 42l62 -77q-63 -75 -158 -75zM273 290q0 96 -61 96q-60 0 -60 -96h121zM344 605q-47 -63 -126 -63q-80 0 -127 63l62 47q22 -35 65 -35
q41 0 65 35z" />
    <glyph glyph-name="Edotaccent" unicode="&#x116;" horiz-adv-x="392" 
d="M361 0h-314v667h314v-132h-163v-130h156v-132h-156v-141h163v-132zM208 708q-29 0 -50 20.5t-21 50.5q0 29 21 49.5t50 20.5t50 -20.5t21 -49.5q0 -30 -21 -50.5t-50 -20.5z" />
    <glyph glyph-name="edotaccent" unicode="&#x117;" horiz-adv-x="420" 
d="M226 -12q-96 0 -150.5 69.5t-54.5 184.5q0 110 51.5 181.5t144.5 71.5t139 -68t46 -182v-48h-250q1 -44 23 -71.5t66 -27.5q45 0 81 42l62 -77q-63 -75 -158 -75zM273 290q0 96 -61 96q-60 0 -60 -96h121zM216 541q-29 0 -50 20.5t-21 50.5q0 29 21 49.5t50 20.5
t50 -20.5t21 -49.5q0 -30 -21 -50.5t-50 -20.5z" />
    <glyph glyph-name="Eogonek" unicode="&#x118;" horiz-adv-x="392" 
d="M361 0q-54 -39 -54 -96q0 -34 22 -34q17 0 24 25l53 -28q-24 -53 -78 -53q-40 0 -63 21.5t-23 63.5q0 54 39 101h-234v667h314v-132h-163v-130h156v-132h-156v-141h163v-132z" />
    <glyph glyph-name="eogonek" unicode="&#x119;" horiz-adv-x="420" 
d="M285 -105l53 -28q-24 -53 -78 -53q-40 0 -63 21.5t-23 63.5q0 50 31 90q-87 8 -135.5 76.5t-48.5 176.5q0 110 51.5 181.5t144.5 71.5t139 -68t46 -182v-48h-250q1 -44 23 -71.5t66 -27.5q45 0 81 42l62 -77q-36 -44 -91 -63q-54 -39 -54 -96q0 -34 22 -34q17 0 24 25z
M273 290q0 96 -61 96q-60 0 -60 -96h121z" />
    <glyph glyph-name="Ecaron" unicode="&#x11a;" horiz-adv-x="392" 
d="M263 723h-120l-64 144h74l50 -86l48 86h73zM361 0h-314v667h314v-132h-163v-130h156v-132h-156v-141h163v-132z" />
    <glyph glyph-name="ecaron" unicode="&#x11b;" horiz-adv-x="420" 
d="M279 556h-120l-64 144h74l50 -86l48 86h73zM226 -12q-96 0 -150.5 69.5t-54.5 184.5q0 110 51.5 181.5t144.5 71.5t139 -68t46 -182v-48h-250q1 -44 23 -71.5t66 -27.5q45 0 81 42l62 -77q-63 -75 -158 -75zM273 290q0 96 -61 96q-60 0 -60 -96h121z" />
    <glyph glyph-name="Gcircumflex" unicode="&#x11c;" horiz-adv-x="474" 
d="M374 723h-73l-51 86l-47 -86h-74l61 144h120zM251 -12q-113 0 -170 93t-57 252q0 160 57 252.5t170 92.5q71 0 117 -48t65 -124l-120 -44q-16 82 -62 82q-72 0 -72 -211t72 -211q36 0 54 25v94h-68v132h201v-293q-77 -92 -187 -92z" />
    <glyph glyph-name="gcircumflex" unicode="&#x11d;" horiz-adv-x="442" 
d="M345 556h-73l-51 86l-47 -86h-74l61 144h120zM201 -196q-101 0 -159 54l44 107q48 -46 100 -46q37 0 59 25t22 76v59q-17 -34 -43 -52t-54 -18q-73 0 -111 62t-38 181q0 116 38.5 179.5t110.5 63.5q29 0 56 -17t41 -52v57h135v-459q0 -119 -56.5 -169.5t-144.5 -50.5z
M217 129q15 0 28.5 12.5t21.5 32.5v156q-8 20 -21.5 33t-28.5 13q-57 0 -57 -124q0 -61 13 -92t44 -31z" />
    <glyph glyph-name="Gbreve" unicode="&#x11e;" horiz-adv-x="474" 
d="M251 -12q-113 0 -170 93t-57 252q0 160 57 252.5t170 92.5q71 0 117 -48t65 -124l-120 -44q-16 82 -62 82q-72 0 -72 -211t72 -211q36 0 54 25v94h-68v132h201v-293q-77 -92 -187 -92zM379 772q-47 -63 -126 -63q-80 0 -127 63l62 47q22 -35 65 -35q41 0 65 35z" />
    <glyph glyph-name="gbreve" unicode="&#x11f;" horiz-adv-x="442" 
d="M201 -196q-101 0 -159 54l44 107q48 -46 100 -46q37 0 59 25t22 76v59q-17 -34 -43 -52t-54 -18q-73 0 -111 62t-38 181q0 116 38.5 179.5t110.5 63.5q29 0 56 -17t41 -52v57h135v-459q0 -119 -56.5 -169.5t-144.5 -50.5zM217 129q15 0 28.5 12.5t21.5 32.5v156
q-8 20 -21.5 33t-28.5 13q-57 0 -57 -124q0 -61 13 -92t44 -31zM346 605q-47 -63 -126 -63q-80 0 -127 63l62 47q22 -35 65 -35q41 0 65 35z" />
    <glyph glyph-name="Gdotaccent" unicode="&#x120;" horiz-adv-x="474" 
d="M251 -12q-113 0 -170 93t-57 252q0 160 57 252.5t170 92.5q71 0 117 -48t65 -124l-120 -44q-16 82 -62 82q-72 0 -72 -211t72 -211q36 0 54 25v94h-68v132h201v-293q-77 -92 -187 -92zM251 708q-29 0 -50 20.5t-21 50.5q0 29 21 49.5t50 20.5t50 -20.5t21 -49.5
q0 -30 -21 -50.5t-50 -20.5z" />
    <glyph glyph-name="gdotaccent" unicode="&#x121;" horiz-adv-x="442" 
d="M201 -196q-101 0 -159 54l44 107q48 -46 100 -46q37 0 59 25t22 76v59q-17 -34 -43 -52t-54 -18q-73 0 -111 62t-38 181q0 116 38.5 179.5t110.5 63.5q29 0 56 -17t41 -52v57h135v-459q0 -119 -56.5 -169.5t-144.5 -50.5zM217 129q15 0 28.5 12.5t21.5 32.5v156
q-8 20 -21.5 33t-28.5 13q-57 0 -57 -124q0 -61 13 -92t44 -31zM225 541q-29 0 -50 20.5t-21 50.5q0 29 21 49.5t50 20.5t50 -20.5t21 -49.5q0 -30 -21 -50.5t-50 -20.5z" />
    <glyph glyph-name="Gcommaaccent" unicode="&#x122;" horiz-adv-x="474" 
d="M311 -139q0 -92 -84 -151l-45 36q20 12 39.5 35t24.5 44q-4 -3 -15 -3q-24 0 -40 16.5t-16 42.5t19 45.5t45 19.5q30 0 51 -23.5t21 -61.5zM251 -12q-113 0 -170 93t-57 252q0 160 57 252.5t170 92.5q71 0 117 -48t65 -124l-120 -44q-16 82 -62 82q-72 0 -72 -211
t72 -211q36 0 54 25v94h-68v132h201v-293q-77 -92 -187 -92z" />
    <glyph glyph-name="gcommaaccent" unicode="&#x123;" horiz-adv-x="442" 
d="M152 612q0 101 81 157l46 -36q-20 -10 -40 -32t-23 -42q3 1 6 1q24 0 43.5 -18t19.5 -43q0 -27 -19.5 -46.5t-46.5 -19.5q-25 0 -46 19t-21 60zM201 -196q-101 0 -159 54l44 107q48 -46 100 -46q37 0 59 25t22 76v59q-17 -34 -43 -52t-54 -18q-73 0 -111 62t-38 181
q0 116 38.5 179.5t110.5 63.5q29 0 56 -17t41 -52v57h135v-459q0 -119 -56.5 -169.5t-144.5 -50.5zM217 129q15 0 28.5 12.5t21.5 32.5v156q-8 20 -21.5 33t-28.5 13q-57 0 -57 -124q0 -61 13 -92t44 -31z" />
    <glyph glyph-name="Hcircumflex" unicode="&#x124;" horiz-adv-x="508" 
d="M376 723h-73l-51 86l-47 -86h-74l61 144h120zM461 0h-151v277h-112v-277h-151v667h151v-258h112v258h151v-667z" />
    <glyph glyph-name="hcircumflex" unicode="&#x125;" horiz-adv-x="441" 
d="M343 723h-73l-51 86l-47 -86h-74l61 144h120zM401 0h-136v332q0 44 -33 44q-35 0 -56 -55v-321h-136v667h136v-244q15 28 49.5 50t67.5 22q108 0 108 -111v-384z" />
    <glyph glyph-name="Hbar" unicode="&#x126;" horiz-adv-x="533" 
d="M474 0h-151v277h-112v-277h-151v501h-47v76h47v90h151v-90h112v90h151v-90h42v-76h-42v-501zM211 409h112v92h-112v-92z" />
    <glyph glyph-name="hbar" unicode="&#x127;" horiz-adv-x="451" 
d="M301 528h-115v-105q15 28 49.5 50t67.5 22q108 0 108 -111v-384h-136v332q0 44 -33 44q-35 0 -56 -55v-321h-136v528h-37v76h37v63h136v-63h115v-76z" />
    <glyph glyph-name="Itilde" unicode="&#x128;" horiz-adv-x="245" 
d="M198 0h-151v667h151v-667zM170 721q-22 0 -38.5 16t-28.5 32t-22 16q-25 0 -25 -58h-66q0 60 24.5 97t66.5 37q22 0 38.5 -16t28.5 -32t23 -16q24 0 24 58h66q0 -60 -24 -97t-67 -37z" />
    <glyph glyph-name="itilde" unicode="&#x129;" horiz-adv-x="216" 
d="M176 0h-136v483h136v-483zM153 554q-22 0 -38.5 16t-28.5 32t-22 16q-25 0 -25 -58h-66q0 60 24.5 97t66.5 37q22 0 38.5 -16t28.5 -32t23 -16q24 0 24 58h66q0 -60 -24 -97t-67 -37z" />
    <glyph glyph-name="Imacron" unicode="&#x12a;" horiz-adv-x="245" 
d="M198 0h-151v667h151v-667zM253 727h-263v76h263v-76z" />
    <glyph glyph-name="imacron" unicode="&#x12b;" horiz-adv-x="216" 
d="M176 0h-136v483h136v-483zM239 560h-263v76h263v-76z" />
    <glyph glyph-name="Ibreve" unicode="&#x12c;" horiz-adv-x="245" 
d="M198 0h-151v667h151v-667zM250 772q-47 -63 -126 -63q-80 0 -127 63l62 47q22 -35 65 -35q41 0 65 35z" />
    <glyph glyph-name="ibreve" unicode="&#x12d;" horiz-adv-x="216" 
d="M176 0h-136v483h136v-483zM234 605q-47 -63 -126 -63q-80 0 -127 63l62 47q22 -35 65 -35q41 0 65 35z" />
    <glyph glyph-name="Iogonek" unicode="&#x12e;" horiz-adv-x="245" 
d="M191 -105l53 -28q-24 -53 -78 -53q-40 0 -63 21.5t-23 63.5q0 54 39 101h-72v667h151v-667h1q-54 -39 -54 -96q0 -34 22 -34q17 0 24 25z" />
    <glyph glyph-name="iogonek" unicode="&#x12f;" horiz-adv-x="216" 
d="M168 -105l53 -28q-24 -53 -78 -53q-40 0 -63 21.5t-23 63.5q0 54 39 101h-56v483h136v-483q-54 -39 -54 -96q0 -34 22 -34q17 0 24 25zM108 532q-33 0 -56 23t-23 57q0 33 23 56.5t56 23.5t56.5 -23.5t23.5 -56.5q0 -34 -23.5 -57t-56.5 -23z" />
    <glyph glyph-name="Idotaccent" unicode="&#x130;" horiz-adv-x="245" 
d="M198 0h-151v667h151v-667zM123 708q-29 0 -50 20.5t-21 50.5q0 29 21 49.5t50 20.5t50 -20.5t21 -49.5q0 -30 -21 -50.5t-50 -20.5z" />
    <glyph glyph-name="dotlessi" unicode="&#x131;" horiz-adv-x="216" 
d="M176 0h-136v483h136v-483z" />
    <glyph glyph-name="IJ" unicode="&#x132;" horiz-adv-x="607" 
d="M198 0h-151v667h151v-667zM364 -12q-68 0 -111 32l38 124q21 -22 55 -22q30 0 47 16.5t17 48.5v480h152v-488q0 -96 -53 -143.5t-145 -47.5z" />
    <glyph glyph-name="ij" unicode="&#x133;" horiz-adv-x="432" 
d="M108 532q-33 0 -56 23t-23 57q0 33 23 56.5t56 23.5t56.5 -23.5t23.5 -56.5q0 -34 -23.5 -57t-56.5 -23zM176 0h-136v483h136v-483zM324 532q-33 0 -56 23t-23 57q0 33 23 56.5t56 23.5t56.5 -23.5t23.5 -56.5q0 -34 -23.5 -57t-56.5 -23zM243 -196q-42 0 -69 20l26 106
q9 -11 25 -11q31 0 31 54v510h136v-510q0 -169 -149 -169z" />
    <glyph glyph-name="Jcircumflex" unicode="&#x134;" horiz-adv-x="362" 
d="M364 723h-73l-51 86l-47 -86h-74l61 144h120zM119 -12q-68 0 -111 32l38 124q21 -22 55 -22q30 0 47 16.5t17 48.5v480h152v-488q0 -96 -53 -143.5t-145 -47.5z" />
    <glyph glyph-name="jcircumflex" unicode="&#x135;" horiz-adv-x="216" 
d="M232 556h-73l-51 86l-47 -86h-74l61 144h120zM19 -196q-40 0 -61 20l26 110q8 -11 25 -11q31 0 31 50v510h136v-510q0 -85 -36.5 -127t-120.5 -42z" />
    <glyph glyph-name="Kcommaaccent" unicode="&#x136;" horiz-adv-x="497" 
d="M321 -139q0 -92 -84 -151l-45 36q20 12 39.5 35t24.5 44q-4 -3 -15 -3q-24 0 -40 16.5t-16 42.5t19 45.5t45 19.5q30 0 51 -23.5t21 -61.5zM499 0h-171l-90 237l-40 -84v-153h-151v667h151v-289l124 289h165l-159 -312z" />
    <glyph glyph-name="kcommaaccent" unicode="&#x137;" horiz-adv-x="424" 
d="M285 -139q0 -92 -84 -151l-45 36q20 12 39.5 35t24.5 44q-4 -3 -15 -3q-24 0 -40 16.5t-16 42.5t19 45.5t45 19.5q30 0 51 -23.5t21 -61.5zM424 0h-148l-62 179l-38 -72v-107h-136v667h136v-384l92 200h149l-111 -214z" />
    <glyph glyph-name="kgreenlandic" unicode="&#x138;" horiz-adv-x="424" 
d="M424 0h-148l-62 179l-38 -72v-107h-136v483h136v-200l92 200h149l-111 -214z" />
    <glyph glyph-name="Lacute" unicode="&#x139;" horiz-adv-x="380" 
d="M348 867l-109 -144h-84l80 144h113zM361 0h-314v667h151v-535h163v-132z" />
    <glyph glyph-name="lacute" unicode="&#x13a;" horiz-adv-x="216" 
d="M253 867l-109 -144h-84l80 144h113zM176 0h-136v667h136v-667z" />
    <glyph glyph-name="Lcommaaccent" unicode="&#x13b;" horiz-adv-x="380" 
d="M263 -139q0 -92 -84 -151l-45 36q20 12 39.5 35t24.5 44q-4 -3 -15 -3q-24 0 -40 16.5t-16 42.5t19 45.5t45 19.5q30 0 51 -23.5t21 -61.5zM361 0h-314v667h151v-535h163v-132z" />
    <glyph glyph-name="lcommaaccent" unicode="&#x13c;" horiz-adv-x="216" 
d="M181 -139q0 -92 -84 -151l-45 36q20 12 39.5 35t24.5 44q-4 -3 -15 -3q-24 0 -40 16.5t-16 42.5t19 45.5t45 19.5q30 0 51 -23.5t21 -61.5zM176 0h-136v667h136v-667z" />
    <glyph glyph-name="Lcaron" unicode="&#x13d;" horiz-adv-x="380" 
d="M378 596q0 -92 -84 -151l-45 36q20 12 39.5 35t24.5 44q-5 -3 -15 -3q-24 0 -40 16.5t-16 42.5t19 45.5t45 19.5q30 0 51 -23.5t21 -61.5zM361 0h-314v667h151v-535h163v-132z" />
    <glyph glyph-name="lcaron" unicode="&#x13e;" horiz-adv-x="344" 
d="M361 596q0 -92 -84 -151l-45 36q20 12 39.5 35t24.5 44q-4 -3 -15 -3q-24 0 -40 16.5t-16 42.5t19 45.5t45 19.5q30 0 51 -23.5t21 -61.5zM176 0h-136v667h136v-667z" />
    <glyph glyph-name="Ldot" unicode="&#x13f;" horiz-adv-x="462" 
d="M361 0h-314v667h151v-535h163v-132zM439 342q0 -35 -25.5 -60t-60.5 -25q-34 0 -59 25t-25 60t25 60.5t59 25.5q35 0 60.5 -25.5t25.5 -60.5z" />
    <glyph glyph-name="ldot" unicode="&#x140;" horiz-adv-x="391" 
d="M176 0h-136v667h136v-667zM389 244q0 -35 -25.5 -60t-60.5 -25q-34 0 -59 25t-25 60t25 60.5t59 25.5q35 0 60.5 -25.5t25.5 -60.5z" />
    <glyph glyph-name="Lslash" unicode="&#x141;" horiz-adv-x="388" 
d="M13 204v123l42 24v316h151v-229l58 34v-123l-58 -34v-183h163v-132h-314v228z" />
    <glyph glyph-name="lslash" unicode="&#x142;" horiz-adv-x="251" 
d="M13 221v98l44 25v323h136v-246l45 26v-98l-45 -26v-323h-136v246z" />
    <glyph glyph-name="Nacute" unicode="&#x143;" horiz-adv-x="508" 
d="M398 867l-109 -144h-84l80 144h113zM461 0h-141l-122 315v-315h-151v667h151l112 -300v300h151v-667z" />
    <glyph glyph-name="nacute" unicode="&#x144;" horiz-adv-x="441" 
d="M365 700l-109 -144h-84l80 144h113zM401 0h-136v331q0 45 -33 45q-35 0 -56 -55v-321h-136v483h136v-60q15 28 49.5 50t67.5 22q108 0 108 -113v-382z" />
    <glyph glyph-name="Ncommaaccent" unicode="&#x145;" horiz-adv-x="508" 
d="M326 -139q0 -92 -84 -151l-45 36q20 12 39.5 35t24.5 44q-5 -3 -15 -3q-24 0 -40 16.5t-16 42.5t19 45.5t45 19.5q30 0 51 -23.5t21 -61.5zM461 0h-141l-122 315v-315h-151v667h151l112 -300v300h151v-667z" />
    <glyph glyph-name="ncommaaccent" unicode="&#x146;" horiz-adv-x="441" 
d="M293 -139q0 -92 -84 -151l-45 36q20 12 39.5 35t24.5 44q-4 -3 -15 -3q-24 0 -40 16.5t-16 42.5t19 45.5t45 19.5q30 0 51 -23.5t21 -61.5zM401 0h-136v331q0 45 -33 45q-35 0 -56 -55v-321h-136v483h136v-60q15 28 49.5 50t67.5 22q108 0 108 -113v-382z" />
    <glyph glyph-name="Ncaron" unicode="&#x147;" horiz-adv-x="508" 
d="M315 723h-120l-64 144h74l50 -86l48 86h73zM461 0h-141l-122 315v-315h-151v667h151l112 -300v300h151v-667z" />
    <glyph glyph-name="ncaron" unicode="&#x148;" horiz-adv-x="441" 
d="M282 556h-120l-64 144h74l50 -86l48 86h73zM401 0h-136v331q0 45 -33 45q-35 0 -56 -55v-321h-136v483h136v-60q15 28 49.5 50t67.5 22q108 0 108 -113v-382z" />
    <glyph glyph-name="napostrophe" unicode="&#x149;" horiz-adv-x="441" 
d="M164 683q0 -92 -84 -151l-45 36q20 12 39.5 35t24.5 44q-5 -3 -15 -3q-24 0 -40 16.5t-16 42.5t19 45.5t45 19.5q30 0 51 -23.5t21 -61.5zM401 0h-136v331q0 45 -33 45q-35 0 -56 -55v-321h-136v483h136v-60q15 28 49.5 50t67.5 22q108 0 108 -113v-382z" />
    <glyph glyph-name="Eng" unicode="&#x14a;" horiz-adv-x="508" 
d="M264 -196q-68 0 -111 32l37 121q22 -22 56 -22q29 0 46.5 16.5t17.5 48.5v26l-112 289v-315h-151v667h151l112 -300v300h151v-672q0 -97 -52.5 -144t-144.5 -47z" />
    <glyph glyph-name="eng" unicode="&#x14b;" horiz-adv-x="441" 
d="M401 382v-409q0 -85 -36.5 -127t-120.5 -42q-40 0 -61 20l26 110q8 -11 24 -11q32 0 32 50v358q0 45 -33 45q-35 0 -56 -55v-321h-136v483h136v-60q15 28 49.5 50t67.5 22q108 0 108 -113z" />
    <glyph glyph-name="Omacron" unicode="&#x14c;" horiz-adv-x="500" 
d="M381 727h-263v76h263v-76zM250 -12q-112 0 -169 94t-57 251t57 251t169 94t169 -94t57 -251t-57 -251t-169 -94zM250 122q71 0 71 211t-71 211t-71 -211t71 -211z" />
    <glyph glyph-name="omacron" unicode="&#x14d;" 
d="M349 560h-263v76h263v-76zM217 -12q-96 0 -146 73t-50 181t50 180.5t146 72.5t146 -72.5t50 -180.5t-50 -181t-146 -73zM217 107q57 0 57 135q0 134 -57 134q-56 0 -56 -134q0 -135 56 -135z" />
    <glyph glyph-name="Obreve" unicode="&#x14e;" horiz-adv-x="500" 
d="M250 -12q-112 0 -169 94t-57 251t57 251t169 94t169 -94t57 -251t-57 -251t-169 -94zM250 122q71 0 71 211t-71 211t-71 -211t71 -211zM378 772q-47 -63 -126 -63q-80 0 -127 63l62 47q22 -35 65 -35q41 0 65 35z" />
    <glyph glyph-name="obreve" unicode="&#x14f;" 
d="M217 -12q-96 0 -146 73t-50 181t50 180.5t146 72.5t146 -72.5t50 -180.5t-50 -181t-146 -73zM217 107q57 0 57 135q0 134 -57 134q-56 0 -56 -134q0 -135 56 -135zM344 605q-47 -63 -126 -63q-80 0 -127 63l62 47q22 -35 65 -35q41 0 65 35z" />
    <glyph glyph-name="Ohungarumlaut" unicode="&#x150;" horiz-adv-x="500" 
d="M288 867l-82 -144h-69l52 144h99zM422 867l-82 -144h-69l52 144h99zM250 -12q-112 0 -169 94t-57 251t57 251t169 94t169 -94t57 -251t-57 -251t-169 -94zM250 122q71 0 71 211t-71 211t-71 -211t71 -211z" />
    <glyph glyph-name="ohungarumlaut" unicode="&#x151;" 
d="M255 700l-82 -144h-69l52 144h99zM389 700l-82 -144h-69l52 144h99zM217 -12q-96 0 -146 73t-50 181t50 180.5t146 72.5t146 -72.5t50 -180.5t-50 -181t-146 -73zM217 107q57 0 57 135q0 134 -57 134q-56 0 -56 -134q0 -135 56 -135z" />
    <glyph glyph-name="OE" unicode="&#x152;" horiz-adv-x="652" 
d="M627 0h-313v42q-15 -26 -42 -40t-54 -14q-97 0 -145.5 94t-48.5 251t48.5 250.5t145.5 93.5q27 0 54 -13.5t42 -38.5v42h313v-132h-162v-130h155v-132h-155v-141h162v-132zM314 197v272q-19 74 -63 74q-72 0 -72 -210q0 -211 72 -211q20 0 37 19t26 56z" />
    <glyph glyph-name="oe" unicode="&#x153;" horiz-adv-x="672" 
d="M654 197h-250q4 -99 89 -99q45 0 81 42l62 -77q-63 -75 -158 -75q-87 0 -134 78q-46 -78 -127 -78q-96 0 -146 73t-50 181t50 180.5t146 72.5q82 0 126 -76q46 76 126 76q93 0 139 -69t46 -184v-45zM404 290h121q0 96 -60 96q-33 0 -47 -29t-14 -67zM274 242
q0 134 -57 134q-56 0 -56 -134q0 -135 56 -135q57 0 57 135z" />
    <glyph glyph-name="Racute" unicode="&#x154;" horiz-adv-x="485" 
d="M394 867l-109 -144h-84l80 144h113zM457 0h-162l-65 234h-32v-234h-151v667h209q85 0 140 -59.5t55 -151.5q0 -133 -83 -186zM231 366q31 0 48.5 23t17.5 61q0 39 -17.5 62t-48.5 23h-33v-169h33z" />
    <glyph glyph-name="racute" unicode="&#x155;" horiz-adv-x="295" 
d="M306 700l-109 -144h-84l80 144h113zM176 0h-136v483h136v-63q13 31 45 53t62 22v-131q-16 4 -24 4q-22 0 -45.5 -15t-37.5 -38v-315z" />
    <glyph glyph-name="Rcommaaccent" unicode="&#x156;" horiz-adv-x="485" 
d="M314 -139q0 -92 -84 -151l-45 36q20 12 39.5 35t24.5 44q-5 -3 -15 -3q-24 0 -40 16.5t-16 42.5t19 45.5t45 19.5q30 0 51 -23.5t21 -61.5zM457 0h-162l-65 234h-32v-234h-151v667h209q85 0 140 -59.5t55 -151.5q0 -133 -83 -186zM231 366q31 0 48.5 23t17.5 61
q0 39 -17.5 62t-48.5 23h-33v-169h33z" />
    <glyph glyph-name="rcommaaccent" unicode="&#x157;" horiz-adv-x="295" 
d="M219 -139q0 -92 -84 -151l-45 36q20 12 39.5 35t24.5 44q-4 -3 -15 -3q-24 0 -40 16.5t-16 42.5t19 45.5t45 19.5q30 0 51 -23.5t21 -61.5zM176 0h-136v483h136v-63q13 31 45 53t62 22v-131q-16 4 -24 4q-22 0 -45.5 -15t-37.5 -38v-315z" />
    <glyph glyph-name="Rcaron" unicode="&#x158;" horiz-adv-x="485" 
d="M303 723h-120l-64 144h74l50 -86l48 86h73zM457 0h-162l-65 234h-32v-234h-151v667h209q85 0 140 -59.5t55 -151.5q0 -133 -83 -186zM231 366q31 0 48.5 23t17.5 61q0 39 -17.5 62t-48.5 23h-33v-169h33z" />
    <glyph glyph-name="rcaron" unicode="&#x159;" horiz-adv-x="295" 
d="M222 556h-120l-64 144h74l50 -86l48 86h73zM176 0h-136v483h136v-63q13 31 45 53t62 22v-131q-16 4 -24 4q-22 0 -45.5 -15t-37.5 -38v-315z" />
    <glyph glyph-name="Sacute" unicode="&#x15a;" horiz-adv-x="416" 
d="M357 867l-109 -144h-84l80 144h113zM195 -12q-118 0 -187 69l63 118q44 -53 114 -53q26 0 41 16.5t15 41.5q0 27 -22 49.5t-53.5 41.5t-63 43.5t-53.5 67.5t-22 100q0 81 54 138.5t148 57.5q96 0 158 -57l-56 -117q-40 40 -97 40q-24 0 -38.5 -15t-14.5 -39q0 -21 16 -40
t39.5 -33t51.5 -35t51.5 -44t39.5 -61.5t16 -85.5q0 -90 -54.5 -146.5t-145.5 -56.5z" />
    <glyph glyph-name="sacute" unicode="&#x15b;" horiz-adv-x="364" 
d="M329 700l-109 -144h-84l80 144h113zM178 -12q-111 0 -170 64l54 93q49 -51 103 -51q25 0 40 11t15 30q0 17 -20 29.5t-48.5 24t-57 28t-48.5 50.5t-20 82q0 62 43.5 104t123.5 42q88 0 154 -59l-53 -91q-14 17 -41.5 30.5t-56.5 13.5q-19 0 -32 -10t-13 -25
q0 -16 20.5 -28t49.5 -24t58 -29t49.5 -51t20.5 -82q0 -67 -47.5 -109.5t-123.5 -42.5z" />
    <glyph glyph-name="Scircumflex" unicode="&#x15c;" horiz-adv-x="416" 
d="M352 723h-73l-51 86l-47 -86h-74l61 144h120zM195 -12q-118 0 -187 69l63 118q44 -53 114 -53q26 0 41 16.5t15 41.5q0 27 -22 49.5t-53.5 41.5t-63 43.5t-53.5 67.5t-22 100q0 81 54 138.5t148 57.5q96 0 158 -57l-56 -117q-40 40 -97 40q-24 0 -38.5 -15t-14.5 -39
q0 -21 16 -40t39.5 -33t51.5 -35t51.5 -44t39.5 -61.5t16 -85.5q0 -90 -54.5 -146.5t-145.5 -56.5z" />
    <glyph glyph-name="scircumflex" unicode="&#x15d;" horiz-adv-x="364" 
d="M309 556h-73l-51 86l-47 -86h-74l61 144h120zM178 -12q-111 0 -170 64l54 93q49 -51 103 -51q25 0 40 11t15 30q0 17 -20 29.5t-48.5 24t-57 28t-48.5 50.5t-20 82q0 62 43.5 104t123.5 42q88 0 154 -59l-53 -91q-14 17 -41.5 30.5t-56.5 13.5q-19 0 -32 -10t-13 -25
q0 -16 20.5 -28t49.5 -24t58 -29t49.5 -51t20.5 -82q0 -67 -47.5 -109.5t-123.5 -42.5z" />
    <glyph glyph-name="Scedilla" unicode="&#x15e;" horiz-adv-x="416" 
d="M190 -196q-53 0 -90 32l25 51q32 -27 62 -27q17 0 27.5 8.5t10.5 22.5q0 24 -21 24q-14 0 -25 -13l-47 27l22 61q-89 10 -146 67l63 118q44 -53 114 -53q26 0 41 16.5t15 41.5q0 27 -22 49.5t-53.5 41.5t-63 43.5t-53.5 67.5t-22 100q0 81 54 138.5t148 57.5
q96 0 158 -57l-56 -117q-40 40 -97 40q-24 0 -38.5 -15t-14.5 -39q0 -21 16 -40t39.5 -33t51.5 -35t51.5 -44t39.5 -61.5t16 -85.5q0 -84 -47.5 -139t-128.5 -63l-17 -40q13 10 29 10q25 0 42.5 -20t17.5 -50q0 -39 -28 -62t-73 -23z" />
    <glyph glyph-name="scedilla" unicode="&#x15f;" horiz-adv-x="364" 
d="M171 -196q-53 0 -90 32l25 51q32 -27 62 -27q17 0 27.5 8.5t10.5 22.5q0 24 -21 24q-14 0 -25 -13l-47 27l22 62q-81 11 -127 61l54 93q49 -51 103 -51q25 0 40 11t15 30q0 17 -20 29.5t-48.5 24t-57 28t-48.5 50.5t-20 82q0 62 43.5 104t123.5 42q88 0 154 -59l-53 -91
q-14 17 -41.5 30.5t-56.5 13.5q-19 0 -32 -10t-13 -25q0 -16 20.5 -28t49.5 -24t58 -29t49.5 -51t20.5 -82q0 -62 -41 -103t-108 -48l-17 -40q13 10 29 10q25 0 42.5 -20t17.5 -50q0 -39 -28 -62t-73 -23z" />
    <glyph glyph-name="Scaron" unicode="&#x160;" horiz-adv-x="416" 
d="M291 723h-120l-64 144h74l50 -86l48 86h73zM195 -12q-118 0 -187 69l63 118q44 -53 114 -53q26 0 41 16.5t15 41.5q0 27 -22 49.5t-53.5 41.5t-63 43.5t-53.5 67.5t-22 100q0 81 54 138.5t148 57.5q96 0 158 -57l-56 -117q-40 40 -97 40q-24 0 -38.5 -15t-14.5 -39
q0 -21 16 -40t39.5 -33t51.5 -35t51.5 -44t39.5 -61.5t16 -85.5q0 -90 -54.5 -146.5t-145.5 -56.5z" />
    <glyph glyph-name="scaron" unicode="&#x161;" horiz-adv-x="364" 
d="M248 556h-120l-64 144h74l50 -86l48 86h73zM178 -12q-111 0 -170 64l54 93q49 -51 103 -51q25 0 40 11t15 30q0 17 -20 29.5t-48.5 24t-57 28t-48.5 50.5t-20 82q0 62 43.5 104t123.5 42q88 0 154 -59l-53 -91q-14 17 -41.5 30.5t-56.5 13.5q-19 0 -32 -10t-13 -25
q0 -16 20.5 -28t49.5 -24t58 -29t49.5 -51t20.5 -82q0 -67 -47.5 -109.5t-123.5 -42.5z" />
    <glyph glyph-name="Tcommaaccent" unicode="&#x162;" horiz-adv-x="385" 
d="M265 -139q0 -92 -84 -151l-45 36q20 12 39.5 35t24.5 44q-4 -3 -15 -3q-24 0 -40 16.5t-16 42.5t19 45.5t45 19.5q30 0 51 -23.5t21 -61.5zM269 0h-152v535h-99v132h349v-132h-98v-535z" />
    <glyph glyph-name="tcommaaccent" unicode="&#x163;" horiz-adv-x="270" 
d="M207 -139q0 -92 -84 -151l-45 36q20 12 39.5 35t24.5 44q-4 -3 -15 -3q-24 0 -40 16.5t-16 42.5t19 45.5t45 19.5q30 0 51 -23.5t21 -61.5zM179 -12q-65 0 -93.5 32.5t-28.5 100.5v244h-44v118h44v132h135v-132h59v-118h-59v-216q0 -42 24 -42q18 0 26 11l24 -107
q-30 -23 -87 -23z" />
    <glyph glyph-name="Tcaron" unicode="&#x164;" horiz-adv-x="385" 
d="M254 723h-120l-64 144h74l50 -86l48 86h73zM269 0h-152v535h-99v132h349v-132h-98v-535z" />
    <glyph glyph-name="tcaron" unicode="&#x165;" horiz-adv-x="270" 
d="M356 683q0 -92 -84 -151l-45 36q20 12 39.5 35t24.5 44q-5 -3 -15 -3q-24 0 -40 16.5t-16 42.5t19 45.5t45 19.5q30 0 51 -23.5t21 -61.5zM179 -12q-65 0 -93.5 32.5t-28.5 100.5v244h-44v118h44v132h135v-132h59v-118h-59v-216q0 -42 24 -42q18 0 26 11l24 -107
q-30 -23 -87 -23z" />
    <glyph glyph-name="Tbar" unicode="&#x166;" horiz-adv-x="385" 
d="M269 0h-152v259h-67v76h67v200h-99v132h349v-132h-98v-200h65v-76h-65v-259z" />
    <glyph glyph-name="tbar" unicode="&#x167;" horiz-adv-x="270" 
d="M179 -12q-65 0 -93.5 32.5t-28.5 100.5v86h-44v76h44v82h-44v118h44v132h135v-132h59v-118h-59v-82h32v-76h-32v-58q0 -42 24 -42q18 0 26 11l24 -107q-30 -23 -87 -23z" />
    <glyph glyph-name="Utilde" unicode="&#x168;" horiz-adv-x="508" 
d="M254 -12q-86 0 -146.5 55t-60.5 160v464h151v-472q0 -75 56 -75t56 75v472h152v-463q0 -106 -60.5 -161t-147.5 -55zM300 721q-22 0 -38.5 16t-28.5 32t-22 16q-25 0 -25 -58h-66q0 60 24.5 97t66.5 37q22 0 38.5 -16t28.5 -32t23 -16q24 0 24 58h66q0 -60 -24 -97
t-67 -37z" />
    <glyph glyph-name="utilde" unicode="&#x169;" horiz-adv-x="441" 
d="M401 0h-136v58q-15 -28 -49 -49t-68 -21q-108 0 -108 111v384h136v-332q0 -44 33 -44q18 0 33 15.5t23 37.5v323h136v-483zM265 554q-22 0 -38.5 16t-28.5 32t-22 16q-25 0 -25 -58h-66q0 60 24.5 97t66.5 37q22 0 38.5 -16t28.5 -32t23 -16q24 0 24 58h66q0 -60 -24 -97
t-67 -37z" />
    <glyph glyph-name="Umacron" unicode="&#x16a;" horiz-adv-x="508" 
d="M254 -12q-86 0 -146.5 55t-60.5 160v464h151v-472q0 -75 56 -75t56 75v472h152v-463q0 -106 -60.5 -161t-147.5 -55zM386 727h-263v76h263v-76z" />
    <glyph glyph-name="umacron" unicode="&#x16b;" horiz-adv-x="441" 
d="M401 0h-136v58q-15 -28 -49 -49t-68 -21q-108 0 -108 111v384h136v-332q0 -44 33 -44q18 0 33 15.5t23 37.5v323h136v-483zM352 560h-263v76h263v-76z" />
    <glyph glyph-name="Ubreve" unicode="&#x16c;" horiz-adv-x="508" 
d="M254 -12q-86 0 -146.5 55t-60.5 160v464h151v-472q0 -75 56 -75t56 75v472h152v-463q0 -106 -60.5 -161t-147.5 -55zM382 772q-47 -63 -126 -63q-80 0 -127 63l62 47q22 -35 65 -35q41 0 65 35z" />
    <glyph glyph-name="ubreve" unicode="&#x16d;" horiz-adv-x="441" 
d="M401 0h-136v58q-15 -28 -49 -49t-68 -21q-108 0 -108 111v384h136v-332q0 -44 33 -44q18 0 33 15.5t23 37.5v323h136v-483zM348 605q-47 -63 -126 -63q-80 0 -127 63l62 47q22 -35 65 -35q41 0 65 35z" />
    <glyph glyph-name="Uring" unicode="&#x16e;" horiz-adv-x="508" 
d="M255 690q-38 0 -65 27t-27 65t27 65t65 27q37 0 63.5 -27t26.5 -65t-26.5 -65t-63.5 -27zM255 747q14 0 24 10t10 25t-10 25t-24 10t-24.5 -10t-10.5 -25t10.5 -25t24.5 -10zM254 -12q-86 0 -146.5 55t-60.5 160v464h151v-472q0 -75 56 -75t56 75v472h152v-463
q0 -106 -60.5 -161t-147.5 -55z" />
    <glyph glyph-name="uring" unicode="&#x16f;" horiz-adv-x="441" 
d="M221 532q-38 0 -65 27t-27 65t27 65t65 27q37 0 63.5 -27t26.5 -65t-26.5 -65t-63.5 -27zM221 589q14 0 24 10t10 25t-10 25t-24 10t-24.5 -10t-10.5 -25t10.5 -25t24.5 -10zM401 0h-136v58q-15 -28 -49 -49t-68 -21q-108 0 -108 111v384h136v-332q0 -44 33 -44
q18 0 33 15.5t23 37.5v323h136v-483z" />
    <glyph glyph-name="Uhungarumlaut" unicode="&#x170;" horiz-adv-x="508" 
d="M254 -12q-86 0 -146.5 55t-60.5 160v464h151v-472q0 -75 56 -75t56 75v472h152v-463q0 -106 -60.5 -161t-147.5 -55zM292 867l-82 -144h-69l52 144h99zM426 867l-82 -144h-69l52 144h99z" />
    <glyph glyph-name="uhungarumlaut" unicode="&#x171;" horiz-adv-x="441" 
d="M401 0h-136v58q-15 -28 -49 -49t-68 -21q-108 0 -108 111v384h136v-332q0 -44 33 -44q18 0 33 15.5t23 37.5v323h136v-483zM259 700l-82 -144h-69l52 144h99zM393 700l-82 -144h-69l52 144h99z" />
    <glyph glyph-name="Uogonek" unicode="&#x172;" horiz-adv-x="508" 
d="M321 -105l53 -28q-24 -53 -78 -53q-40 0 -63 21.5t-23 63.5q0 49 30 90q-81 4 -137 58.5t-56 155.5v464h151v-472q0 -75 56 -75t56 75v472h152v-463q0 -81 -36.5 -132.5t-96.5 -71.5q-54 -39 -54 -96q0 -34 22 -34q17 0 24 25z" />
    <glyph glyph-name="uogonek" unicode="&#x173;" horiz-adv-x="441" 
d="M401 0q-54 -39 -54 -96q0 -34 22 -34q17 0 24 25l53 -28q-24 -53 -78 -53q-40 0 -63 21.5t-23 63.5q0 54 39 101h-56v58q-15 -28 -49 -49t-68 -21q-108 0 -108 111v384h136v-332q0 -44 33 -44q18 0 33 15.5t23 37.5v323h136v-483z" />
    <glyph glyph-name="Wcircumflex" unicode="&#x174;" horiz-adv-x="650" 
d="M448 723h-73l-51 86l-47 -86h-74l61 144h120zM524 0h-151l-48 388l-48 -388h-151l-118 667h153l47 -404l59 404h116l60 -404l46 404h154z" />
    <glyph glyph-name="wcircumflex" unicode="&#x175;" horiz-adv-x="641" 
d="M444 556h-73l-51 86l-47 -86h-74l61 144h120zM526 0h-142l-63 299l-64 -299h-142l-114 483h139l57 -301l56 301h127l64 -301l56 301h140z" />
    <glyph glyph-name="Ycircumflex" unicode="&#x176;" horiz-adv-x="460" 
d="M353 723h-73l-51 86l-47 -86h-74l61 144h120zM306 0h-152v273l-160 394h161l75 -251l76 251h159l-159 -394v-273z" />
    <glyph glyph-name="ycircumflex" unicode="&#x177;" horiz-adv-x="408" 
d="M44 -188l19 117q7 -6 21 -6q30 0 39 30l11 37l-136 493h143l62 -312l64 312h143l-155 -558q-20 -69 -54.5 -95t-96.5 -26q-42 0 -60 8zM328 556h-73l-51 86l-47 -86h-74l61 144h120z" />
    <glyph glyph-name="Ydieresis" unicode="&#x178;" horiz-adv-x="460" 
d="M390 779q0 -30 -21 -50.5t-51 -20.5q-29 0 -50 20.5t-21 50.5t21 50.5t50 20.5q30 0 51 -20.5t21 -50.5zM215 779q0 -29 -20.5 -50t-50.5 -21q-29 0 -50 21t-21 50t21 50t50 21q30 0 50.5 -21t20.5 -50zM306 0h-152v273l-160 394h161l75 -251l76 251h159l-159 -394v-273z
" />
    <glyph glyph-name="Zacute" unicode="&#x179;" horiz-adv-x="394" 
d="M342 867l-109 -144h-84l80 144h113zM366 0h-338v127l160 408h-160v132h331v-121l-164 -414h171v-132z" />
    <glyph glyph-name="zacute" unicode="&#x17a;" horiz-adv-x="352" 
d="M320 700l-109 -144h-84l80 144h113zM329 0h-306v101l139 264h-139v118h302v-96l-140 -269h144v-118z" />
    <glyph glyph-name="Zdotaccent" unicode="&#x17b;" horiz-adv-x="394" 
d="M366 0h-338v127l160 408h-160v132h331v-121l-164 -414h171v-132zM196 708q-29 0 -50 20.5t-21 50.5q0 29 21 49.5t50 20.5t50 -20.5t21 -49.5q0 -30 -21 -50.5t-50 -20.5z" />
    <glyph glyph-name="zdotaccent" unicode="&#x17c;" horiz-adv-x="352" 
d="M329 0h-306v101l139 264h-139v118h302v-96l-140 -269h144v-118zM174 541q-29 0 -50 20.5t-21 50.5q0 29 21 49.5t50 20.5t50 -20.5t21 -49.5q0 -30 -21 -50.5t-50 -20.5z" />
    <glyph glyph-name="Zcaron" unicode="&#x17d;" horiz-adv-x="394" 
d="M259 723h-120l-64 144h74l50 -86l48 86h73zM366 0h-338v127l160 408h-160v132h331v-121l-164 -414h171v-132z" />
    <glyph glyph-name="zcaron" unicode="&#x17e;" horiz-adv-x="352" 
d="M235 556h-120l-64 144h74l50 -86l48 86h73zM329 0h-306v101l139 264h-139v118h302v-96l-140 -269h144v-118z" />
    <glyph glyph-name="longs" unicode="&#x17f;" horiz-adv-x="262" 
d="M192 0h-135v365h-43v118h43v34q0 78 36.5 119t106.5 41q58 0 92 -26l-31 -104q-15 15 -32 15q-37 0 -37 -45v-517z" />
    <glyph glyph-name="florin" unicode="&#x192;" horiz-adv-x="414" 
d="M163 -161h-154l87 397h-39v119h66l39 181q14 63 64 102t110 39q57 0 88 -23l-39 -120q-11 11 -28 11q-38 0 -48 -49l-31 -141h72v-119h-99z" />
    <glyph glyph-name="Ohorn" unicode="&#x1a0;" horiz-adv-x="500" 
d="M250 -12q-112 0 -169 94t-57 251t57 251t169 94q111 0 170 -96q26 26 32 52q-3 -3 -14 -3q-21 0 -35 15t-14 38q0 24 16.5 41t40.5 17q27 0 46 -20.5t19 -55.5q0 -76 -68 -131q33 -84 33 -202q0 -157 -57 -251t-169 -94zM250 122q71 0 71 211t-71 211t-71 -211t71 -211z
" />
    <glyph glyph-name="ohorn" unicode="&#x1a1;" 
d="M429 532q0 -69 -58 -122q42 -69 42 -168q0 -108 -50 -181t-146 -73t-146 73t-50 181t50 180.5t146 72.5q73 0 122 -46q25 25 31 51q-3 -3 -14 -3q-21 0 -35 15t-14 38q0 24 16.5 41t40.5 17q27 0 46 -20.5t19 -55.5zM217 107q57 0 57 135q0 134 -57 134q-56 0 -56 -134
q0 -135 56 -135z" />
    <glyph glyph-name="Uhorn" unicode="&#x1af;" horiz-adv-x="508" 
d="M558 727q0 -43 -24.5 -83t-71.5 -67v-373q0 -106 -60.5 -161t-147.5 -55q-86 0 -146.5 55t-60.5 160v464h151v-472q0 -75 56 -75t56 75v472h152v-30q31 29 37 57q-4 -2 -14 -2q-21 0 -35 14.5t-14 37.5q0 24 16.5 41t40.5 17q27 0 46 -20.5t19 -54.5z" />
    <glyph glyph-name="uhorn" unicode="&#x1b0;" horiz-adv-x="441" 
d="M401 0h-136v58q-15 -28 -49 -49t-68 -21q-108 0 -108 111v384h136v-332q0 -44 33 -44q18 0 33 15.5t23 37.5v323h125q10 14 15 31q-5 -3 -15 -3q-21 0 -35 15t-14 38q0 24 16.5 41t40.5 17q27 0 46 -20.5t19 -54.5q0 -73 -62 -126v-421z" />
    <glyph glyph-name="AEacute" unicode="&#x1fc;" horiz-adv-x="633" 
d="M517 867l-109 -144h-84l80 144h113zM608 0h-313v108h-109l-31 -108h-154l228 667h379v-132h-162v-130h155v-132h-155v-141h162v-132zM295 240v261l-74 -261h74z" />
    <glyph glyph-name="aeacute" unicode="&#x1fd;" horiz-adv-x="656" 
d="M468 700l-109 -144h-84l80 144h113zM638 197h-249q5 -99 89 -99q45 0 79 42l63 -77q-63 -75 -157 -75q-47 0 -78 17.5t-58 54.5q-57 -72 -150 -72q-70 0 -113.5 41.5t-43.5 115.5t37.5 116.5t97.5 42.5q30 0 60.5 -14.5t44.5 -39.5v51q0 37 -18.5 58.5t-53.5 21.5
q-49 0 -101 -47l-48 95q31 33 79.5 49.5t87.5 16.5q89 0 123 -62q48 62 129 62q89 0 134.5 -69.5t45.5 -183.5v-45zM389 290h120q0 96 -59 96q-33 0 -47 -29t-14 -67zM260 159v14q-16 41 -57 41q-24 0 -38.5 -17t-14.5 -44q0 -61 53 -61q25 0 41 20t16 47z" />
    <glyph glyph-name="Oslashacute" unicode="&#x1fe;" horiz-adv-x="500" 
d="M395 867l-109 -144h-84l80 144h113zM250 -12q-67 0 -117 36l-12 -24h-84l43 83q-56 91 -56 250q0 157 57 251t169 94q68 0 117 -37l13 26h84l-44 -85q56 -91 56 -249q0 -157 -57 -251t-169 -94zM179 333q0 -37 1 -55l117 228q-17 38 -47 38q-71 0 -71 -211zM250 122
q71 0 71 211q0 36 -1 53l-117 -227q17 -37 47 -37z" />
    <glyph glyph-name="oslashacute" unicode="&#x1ff;" 
d="M361 700l-109 -144h-84l80 144h113zM100 0h-73l41 65q-47 68 -47 177q0 108 50 180.5t146 72.5q60 0 105 -32l13 20h72l-41 -65q47 -68 47 -176t-50 -181t-146 -73q-59 0 -105 31zM161 242v-31l92 144q-13 21 -36 21q-56 0 -56 -134zM217 107q57 0 57 135q0 20 -1 30
l-92 -145q12 -20 36 -20z" />
    <glyph glyph-name="Scommaaccent" unicode="&#x218;" horiz-adv-x="416" 
d="M278 -139q0 -92 -84 -151l-45 36q20 12 39.5 35t24.5 44q-5 -3 -15 -3q-24 0 -40 16.5t-16 42.5t19 45.5t45 19.5q30 0 51 -23.5t21 -61.5zM195 -12q-118 0 -187 69l63 118q44 -53 114 -53q26 0 41 16.5t15 41.5q0 27 -22 49.5t-53.5 41.5t-63 43.5t-53.5 67.5t-22 100
q0 81 54 138.5t148 57.5q96 0 158 -57l-56 -117q-40 40 -97 40q-24 0 -38.5 -15t-14.5 -39q0 -21 16 -40t39.5 -33t51.5 -35t51.5 -44t39.5 -61.5t16 -85.5q0 -90 -54.5 -146.5t-145.5 -56.5z" />
    <glyph glyph-name="scommaaccent" unicode="&#x219;" horiz-adv-x="364" 
d="M257 -139q0 -92 -84 -151l-45 36q20 12 39.5 35t24.5 44q-4 -3 -15 -3q-24 0 -40 16.5t-16 42.5t19 45.5t45 19.5q30 0 51 -23.5t21 -61.5zM178 -12q-111 0 -170 64l54 93q49 -51 103 -51q25 0 40 11t15 30q0 17 -20 29.5t-48.5 24t-57 28t-48.5 50.5t-20 82
q0 62 43.5 104t123.5 42q88 0 154 -59l-53 -91q-14 17 -41.5 30.5t-56.5 13.5q-19 0 -32 -10t-13 -25q0 -16 20.5 -28t49.5 -24t58 -29t49.5 -51t20.5 -82q0 -67 -47.5 -109.5t-123.5 -42.5z" />
    <glyph glyph-name="uni021A" unicode="&#x21a;" horiz-adv-x="385" 
d="M265 -139q0 -92 -84 -151l-45 36q20 12 39.5 35t24.5 44q-4 -3 -15 -3q-24 0 -40 16.5t-16 42.5t19 45.5t45 19.5q30 0 51 -23.5t21 -61.5zM269 0h-152v535h-99v132h349v-132h-98v-535z" />
    <glyph glyph-name="uni021B" unicode="&#x21b;" horiz-adv-x="270" 
d="M207 -139q0 -92 -84 -151l-45 36q20 12 39.5 35t24.5 44q-4 -3 -15 -3q-24 0 -40 16.5t-16 42.5t19 45.5t45 19.5q30 0 51 -23.5t21 -61.5zM179 -12q-65 0 -93.5 32.5t-28.5 100.5v244h-44v118h44v132h135v-132h59v-118h-59v-216q0 -42 24 -42q18 0 26 11l24 -107
q-30 -23 -87 -23z" />
    <glyph glyph-name="uni0237" unicode="&#x237;" horiz-adv-x="216" 
d="M19 -196q-40 0 -61 20l26 110q8 -11 25 -11q31 0 31 50v510h136v-510q0 -85 -36.5 -127t-120.5 -42z" />
    <glyph glyph-name="hsuperior" unicode="&#x2b0;" horiz-adv-x="321" 
d="M289 326h-97v209q0 29 -25 29q-23 0 -37 -33v-205h-97v434h97v-158q11 18 34.5 32t47.5 14q77 0 77 -77v-245z" />
    <glyph glyph-name="uni02BC" unicode="&#x2bc;" horiz-adv-x="262" 
d="M220 570q0 -57 -28 -106.5t-78 -83.5l-58 47q25 13 49.5 41t30.5 54q-12 -3 -20 -3q-30 0 -50.5 21t-20.5 54q0 34 24.5 58.5t58.5 24.5q38 0 65 -29t27 -78z" />
    <glyph glyph-name="circumflex" unicode="&#x2c6;" horiz-adv-x="245" 
d="M245 556h-73l-51 86l-47 -86h-74l61 144h120z" />
    <glyph glyph-name="caron" unicode="&#x2c7;" horiz-adv-x="245" 
d="M184 556h-120l-64 144h74l50 -86l48 86h73z" />
    <glyph glyph-name="uni02C9" unicode="&#x2c9;" horiz-adv-x="263" 
d="M263 591h-263v76h263v-76z" />
    <glyph glyph-name="uni02CB" unicode="&#x2cb;" horiz-adv-x="193" 
d="M193 556h-84l-109 144h114z" />
    <glyph glyph-name="breve" unicode="&#x2d8;" horiz-adv-x="253" 
d="M253 605q-47 -63 -126 -63q-80 0 -127 63l62 47q22 -35 65 -35q41 0 65 35z" />
    <glyph glyph-name="dotaccent" unicode="&#x2d9;" horiz-adv-x="183" 
d="M92 541q-29 0 -50 20.5t-21 50.5q0 29 21 49.5t50 20.5t50 -20.5t21 -49.5q0 -30 -21 -50.5t-50 -20.5z" />
    <glyph glyph-name="ring" unicode="&#x2da;" horiz-adv-x="182" 
d="M92 532q-38 0 -65 27t-27 65t27 65t65 27q37 0 63.5 -27t26.5 -65t-26.5 -65t-63.5 -27zM92 589q14 0 24 10t10 25t-10 25t-24 10t-24.5 -10t-10.5 -25t10.5 -25t24.5 -10z" />
    <glyph glyph-name="ogonek" unicode="&#x2db;" horiz-adv-x="164" 
d="M111 -105l53 -28q-24 -53 -78 -53q-40 0 -63 21.5t-23 63.5q0 72 71 132l48 -31q-54 -39 -54 -96q0 -34 22 -34q17 0 24 25z" />
    <glyph glyph-name="tilde" unicode="&#x2dc;" horiz-adv-x="271" 
d="M180 554q-22 0 -38.5 16t-28.5 32t-22 16q-25 0 -25 -58h-66q0 60 24.5 97t66.5 37q22 0 38.5 -16t28.5 -32t23 -16q24 0 24 58h66q0 -60 -24 -97t-67 -37z" />
    <glyph glyph-name="hungarumlaut" unicode="&#x2dd;" horiz-adv-x="285" 
d="M151 700l-82 -144h-69l52 144h99zM285 700l-82 -144h-69l52 144h99z" />
    <glyph glyph-name="hookabovecomb" unicode="&#x309;" horiz-adv-x="164" 
d="M63 726l-49 8q5 26 23.5 41t45.5 15q29 0 46.5 -17.5t17.5 -51.5q0 -26 -14 -54h-51q16 23 16 51t-17 28q-15 0 -18 -20z" />
    <glyph glyph-name="uni037E" unicode="&#x37e;" horiz-adv-x="259" 
d="M129 320q-34 0 -59 25.5t-25 60.5q0 34 24.5 59t59.5 25t60 -25t25 -59q0 -35 -25.5 -60.5t-59.5 -25.5zM220 53q0 -115 -107 -191l-57 47q25 13 48.5 41t30.5 54q-9 -3 -20 -3q-30 0 -50 21t-20 54q0 34 24 58.5t58 24.5q39 0 66 -29t27 -77z" />
    <glyph glyph-name="tonos" unicode="&#x384;" horiz-adv-x="229" 
d="M168 551h-59l21 214h109z" />
    <glyph glyph-name="dieresistonos" unicode="&#x385;" horiz-adv-x="441" 
d="M233 551h-58l20 214h110zM437 612q0 -30 -21 -50.5t-50 -20.5t-50 20.5t-21 50.5t21 50.5t50 20.5t50 -20.5t21 -50.5zM146 612q0 -29 -21 -50t-50 -21t-50 21t-21 50t21 50t50 21t50 -21t21 -50z" />
    <glyph glyph-name="Alphatonos" unicode="&#x386;" horiz-adv-x="454" 
d="M72 551h-59l21 214h109zM457 0h-155l-17 108h-116l-17 -108h-155l143 667h174zM267 240l-40 261l-40 -261h80z" />
    <glyph glyph-name="Epsilontonos" unicode="&#x388;" horiz-adv-x="456" 
d="M56 551h-59l21 214h109zM425 0h-314v667h314v-132h-163v-130h156v-132h-156v-141h163v-132z" />
    <glyph glyph-name="Etatonos" unicode="&#x389;" horiz-adv-x="573" 
d="M56 551h-59l21 214h109zM525 0h-151v277h-112v-277h-151v667h151v-258h112v258h151v-667z" />
    <glyph glyph-name="Iotatonos" unicode="&#x38a;" horiz-adv-x="309" 
d="M56 551h-59l21 214h109zM262 0h-151v667h151v-667z" />
    <glyph glyph-name="Omicrontonos" unicode="&#x38c;" horiz-adv-x="529" 
d="M64 551h-59l21 214h109zM280 -12q-112 0 -169 94t-57 251t57 251t169 94t169 -94t57 -251t-57 -251t-169 -94zM280 122q71 0 71 211t-71 211t-71 -211t71 -211z" />
    <glyph glyph-name="Upsilontonos" unicode="&#x38e;" horiz-adv-x="568" 
d="M53 551h-59l21 214h109zM414 0h-152v273l-160 394h161l75 -251l76 251h159l-159 -394v-273z" />
    <glyph glyph-name="Omegatonos" unicode="&#x38f;" horiz-adv-x="529" 
d="M64 551h-59l21 214h109zM68 132h78q-88 86 -88 236q0 143 57 226.5t168 83.5t168.5 -83.5t57.5 -226.5q0 -149 -91 -236h80v-132h-189v132q20 20 32.5 79.5t12.5 121.5q0 210 -71 210q-72 0 -72 -210q0 -62 13 -121t33 -80v-132h-189v132z" />
    <glyph glyph-name="iotadieresistonos" unicode="&#x390;" horiz-adv-x="230" 
d="M128 551h-58l20 214h110zM332 612q0 -30 -21 -50.5t-50 -20.5t-50 20.5t-21 50.5t21 50.5t50 20.5t50 -20.5t21 -50.5zM41 612q0 -29 -21 -50t-50 -21t-50 21t-21 50t21 50t50 21t50 -21t21 -50zM163 -12q-65 0 -94 32.5t-29 100.5v362h136v-343q0 -33 24 -33q6 0 14 2
l10 -112q-23 -9 -61 -9z" />
    <glyph glyph-name="Alpha" unicode="&#x391;" horiz-adv-x="454" 
d="M457 0h-155l-17 108h-116l-17 -108h-155l143 667h174zM267 240l-40 261l-40 -261h80z" />
    <glyph glyph-name="Beta" unicode="&#x392;" horiz-adv-x="477" 
d="M284 0h-237v667h229q84 0 126 -48.5t42 -121.5q0 -61 -28.5 -101t-75.5 -52q50 -8 81.5 -54t31.5 -109q0 -80 -41.5 -130.5t-127.5 -50.5zM235 405q54 0 54 65t-54 65h-37v-130h37zM239 132q59 0 59 71q0 32 -15.5 51t-43.5 19h-41v-141h41z" />
    <glyph glyph-name="Gamma" unicode="&#x393;" horiz-adv-x="388" 
d="M198 0h-151v667h314v-132h-163v-535z" />
    <glyph glyph-name="uni0394" unicode="&#x394;" horiz-adv-x="466" 
d="M469 0h-472l148 667h175zM294 132l-61 369l-62 -369h123z" />
    <glyph glyph-name="Epsilon" unicode="&#x395;" horiz-adv-x="392" 
d="M361 0h-314v667h314v-132h-163v-130h156v-132h-156v-141h163v-132z" />
    <glyph glyph-name="Zeta" unicode="&#x396;" horiz-adv-x="394" 
d="M366 0h-338v127l160 408h-160v132h331v-121l-164 -414h171v-132z" />
    <glyph glyph-name="Eta" unicode="&#x397;" horiz-adv-x="508" 
d="M461 0h-151v277h-112v-277h-151v667h151v-258h112v258h151v-667z" />
    <glyph glyph-name="Theta" unicode="&#x398;" horiz-adv-x="500" 
d="M300 273h-100v132h100v-132zM250 -12q-112 0 -169 94t-57 251t57 251t169 94t169 -94t57 -251t-57 -251t-169 -94zM250 122q71 0 71 211t-71 211t-71 -211t71 -211z" />
    <glyph glyph-name="Iota" unicode="&#x399;" horiz-adv-x="245" 
d="M198 0h-151v667h151v-667z" />
    <glyph glyph-name="Kappa" unicode="&#x39a;" horiz-adv-x="497" 
d="M499 0h-171l-90 237l-40 -84v-153h-151v667h151v-289l124 289h165l-159 -312z" />
    <glyph glyph-name="Lambda" unicode="&#x39b;" horiz-adv-x="454" 
d="M457 0h-155l-75 501l-75 -501h-155l143 667h174z" />
    <glyph glyph-name="Mu" unicode="&#x39c;" horiz-adv-x="646" 
d="M599 0h-149v357l-103 -357h-49l-100 357v-357h-151v667h189l87 -305l89 305h187v-667z" />
    <glyph glyph-name="Nu" unicode="&#x39d;" horiz-adv-x="508" 
d="M461 0h-141l-122 315v-315h-151v667h151l112 -300v300h151v-667z" />
    <glyph glyph-name="Xi" unicode="&#x39e;" horiz-adv-x="412" 
d="M381 535h-349v132h349v-132zM381 0h-349v132h349v-132zM374 273h-335v132h335v-132z" />
    <glyph glyph-name="Omicron" unicode="&#x39f;" horiz-adv-x="500" 
d="M250 -12q-112 0 -169 94t-57 251t57 251t169 94t169 -94t57 -251t-57 -251t-169 -94zM250 122q71 0 71 211t-71 211t-71 -211t71 -211z" />
    <glyph glyph-name="Pi" unicode="&#x3a0;" horiz-adv-x="508" 
d="M461 0h-151v535h-112v-535h-151v667h414v-667z" />
    <glyph glyph-name="Rho" unicode="&#x3a1;" horiz-adv-x="469" 
d="M198 0h-151v667h201q99 0 151 -62t52 -155t-52 -154.5t-151 -61.5h-50v-234zM231 366q31 0 48.5 23t17.5 62q0 38 -17.5 61t-48.5 23h-33v-169h33z" />
    <glyph glyph-name="Sigma" unicode="&#x3a3;" horiz-adv-x="381" 
d="M189 535l109 -193l-114 -210h170v-132h-322v138l110 205l-110 192v132h322v-132h-165z" />
    <glyph glyph-name="Tau" unicode="&#x3a4;" horiz-adv-x="385" 
d="M269 0h-152v535h-99v132h349v-132h-98v-535z" />
    <glyph glyph-name="Upsilon" unicode="&#x3a5;" horiz-adv-x="460" 
d="M306 0h-152v273l-160 394h161l75 -251l76 251h159l-159 -394v-273z" />
    <glyph glyph-name="Phi" unicode="&#x3a6;" horiz-adv-x="691" 
d="M421 0h-151v69q-123 17 -184.5 87.5t-61.5 176.5t61.5 176.5t184.5 87.5v70h151v-70q122 -17 184 -87.5t62 -176.5t-62 -176.5t-184 -87.5v-69zM513 333q0 100 -92 126v-252q92 27 92 126zM179 333q0 -99 91 -126v252q-91 -26 -91 -126z" />
    <glyph glyph-name="Chi" unicode="&#x3a7;" horiz-adv-x="474" 
d="M478 0h-167l-74 210l-74 -210h-167l153 341l-145 326h167l66 -199l65 199h167l-145 -326z" />
    <glyph glyph-name="Psi" unicode="&#x3a8;" horiz-adv-x="723" 
d="M437 0h-151v129q-105 16 -172 75t-67 158v305h153v-304q0 -80 86 -100v404h151v-403q86 21 86 99v304h153v-304q0 -100 -67.5 -159t-171.5 -75v-129z" />
    <glyph glyph-name="uni03A9" unicode="&#x3a9;" horiz-adv-x="494" 
d="M32 132h78q-88 86 -88 236q0 143 57 226.5t168 83.5t168.5 -83.5t57.5 -226.5q0 -149 -91 -236h80v-132h-189v132q20 20 32.5 79.5t12.5 121.5q0 210 -71 210q-72 0 -72 -210q0 -62 13 -121t33 -80v-132h-189v132z" />
    <glyph glyph-name="Iotadieresis" unicode="&#x3aa;" horiz-adv-x="245" 
d="M198 0h-151v667h151v-667zM281 796q0 -30 -21 -50.5t-51 -20.5q-29 0 -50 20.5t-21 50.5t21 50.5t50 20.5q30 0 51 -20.5t21 -50.5zM106 796q0 -29 -20.5 -50t-50.5 -21q-29 0 -50 21t-21 50t21 50t50 21q30 0 50.5 -21t20.5 -50z" />
    <glyph glyph-name="Upsilondieresis" unicode="&#x3ab;" horiz-adv-x="460" 
d="M306 0h-152v273l-160 394h161l75 -251l76 251h159l-159 -394v-273zM388 796q0 -30 -21 -50.5t-51 -20.5q-29 0 -50 20.5t-21 50.5t21 50.5t50 20.5q30 0 51 -20.5t21 -50.5zM213 796q0 -29 -20.5 -50t-50.5 -21q-29 0 -50 21t-21 50t21 50t50 21q30 0 50.5 -21t20.5 -50z
" />
    <glyph glyph-name="alphatonos" unicode="&#x3ac;" horiz-adv-x="456" 
d="M246 551h-59l21 214h109zM440 109l10 -112q-23 -9 -61 -9q-56 0 -81.5 21t-34.5 59q-14 -35 -42 -57.5t-61 -22.5q-72 0 -110.5 67t-38.5 187q0 117 38.5 185t110.5 68q29 0 56 -17t41 -52v57h135v-343q0 -33 24 -33q6 0 14 2zM217 107q15 0 28.5 13.5t21.5 34.5v174
q-8 20 -21.5 33t-28.5 13q-57 0 -57 -133q0 -135 57 -135z" />
    <glyph glyph-name="epsilontonos" unicode="&#x3ad;" horiz-adv-x="391" 
d="M213 551h-59l21 214h109zM202 -12q-81 0 -131 40t-50 105q0 44 29 76t75 39q-42 7 -70 40.5t-28 72.5q0 65 51.5 99.5t140.5 34.5q97 0 160 -72l-63 -81q-38 45 -97 45q-62 0 -62 -45q0 -44 61 -44h80v-108h-86q-19 0 -30.5 -2t-22 -12.5t-10.5 -29.5q0 -49 60 -49
q75 0 112 46l63 -80q-64 -75 -182 -75z" />
    <glyph glyph-name="etatonos" unicode="&#x3ae;" horiz-adv-x="441" 
d="M238 551h-59l21 214h109zM401 -184h-136v515q0 45 -33 45q-35 0 -56 -55v-321h-136v483h136v-60q15 28 49.5 50t67.5 22q108 0 108 -113v-566z" />
    <glyph glyph-name="iotatonos" unicode="&#x3af;" horiz-adv-x="230" 
d="M133 551h-59l21 214h109zM163 -12q-65 0 -94 32.5t-29 100.5v362h136v-343q0 -33 24 -33q6 0 14 2l10 -112q-23 -9 -61 -9z" />
    <glyph glyph-name="upsilondieresistonos" unicode="&#x3b0;" horiz-adv-x="438" 
d="M232 551h-58l20 214h110zM436 612q0 -30 -21 -50.5t-50 -20.5t-50 20.5t-21 50.5t21 50.5t50 20.5t50 -20.5t21 -50.5zM145 612q0 -29 -21 -50t-50 -21t-50 21t-21 50t21 50t50 21t50 -21t21 -50zM220 -12q-75 0 -127.5 48t-52.5 135v312h136v-310q0 -66 45 -66
q32 0 44.5 38.5t12.5 115.5q0 98 -42 190l128 44q53 -109 53 -234q0 -122 -49.5 -197.5t-147.5 -75.5z" />
    <glyph glyph-name="alpha" unicode="&#x3b1;" horiz-adv-x="456" 
d="M440 109l10 -112q-23 -9 -61 -9q-56 0 -81.5 21t-34.5 59q-14 -35 -42 -57.5t-61 -22.5q-72 0 -110.5 67t-38.5 187q0 117 38.5 185t110.5 68q29 0 56 -17t41 -52v57h135v-343q0 -33 24 -33q6 0 14 2zM217 107q15 0 28.5 13.5t21.5 34.5v174q-8 20 -21.5 33t-28.5 13
q-57 0 -57 -133q0 -135 57 -135z" />
    <glyph glyph-name="beta" unicode="&#x3b2;" horiz-adv-x="442" 
d="M176 458v-303q17 -48 51 -48q26 0 39 25.5t13 59.5q0 44 -14.5 65t-36.5 21h-16v120h10q46 0 46 79q0 80 -41 80q-51 0 -51 -99zM176 57v-241h-136v642q0 114 53 166.5t136 52.5q81 0 130 -47t49 -135q0 -56 -22.5 -96.5t-68.5 -54.5q48 -12 76 -59t28 -119
q0 -70 -39.5 -124t-107.5 -54q-66 0 -98 69z" />
    <glyph glyph-name="gamma" unicode="&#x3b3;" horiz-adv-x="408" 
d="M271 -184h-135v106q0 158 -40 303.5t-108 257.5h147q73 -157 82 -297q41 125 41 297h135q0 -115 -35 -243t-87 -227v-197z" />
    <glyph glyph-name="delta" unicode="&#x3b4;" 
d="M223 -12q-100 0 -151 63.5t-51 157.5q0 122 85 209q-48 48 -48 115q0 62 43.5 104t124.5 42q87 0 153 -59l-52 -91q-40 44 -99 44q-19 0 -32 -10t-13 -25q0 -16 23.5 -34.5t57.5 -41.5t68 -54.5t57.5 -86.5t23.5 -124q0 -88 -47 -148.5t-143 -60.5zM288 197
q0 50 -21.5 84t-60.5 63q-45 -57 -45 -134q0 -103 64 -103q63 0 63 90z" />
    <glyph glyph-name="epsilon" unicode="&#x3b5;" horiz-adv-x="391" 
d="M202 -12q-81 0 -131 40t-50 105q0 44 29 76t75 39q-42 7 -70 40.5t-28 72.5q0 65 51.5 99.5t140.5 34.5q97 0 160 -72l-63 -81q-38 45 -97 45q-62 0 -62 -45q0 -44 61 -44h80v-108h-86q-19 0 -30.5 -2t-22 -12.5t-10.5 -29.5q0 -49 60 -49q75 0 112 46l63 -80
q-64 -75 -182 -75z" />
    <glyph glyph-name="zeta" unicode="&#x3b6;" horiz-adv-x="358" 
d="M224 -38q0 26 -24 26q-75 0 -127 58.5t-52 143.5q0 208 178 359h-172v118h306v-96q-79 -76 -126 -172t-47 -182q0 -51 21.5 -80.5t64.5 -29.5q95 0 95 -103q0 -63 -42 -161h-116q41 77 41 119z" />
    <glyph glyph-name="eta" unicode="&#x3b7;" horiz-adv-x="441" 
d="M401 -184h-136v515q0 45 -33 45q-35 0 -56 -55v-321h-136v483h136v-60q15 28 49.5 50t67.5 22q108 0 108 -113v-566z" />
    <glyph glyph-name="theta" unicode="&#x3b8;" 
d="M217 -12q-97 0 -146.5 96.5t-49.5 249.5q0 154 49.5 249.5t146.5 95.5q66 0 111 -46.5t65 -122.5t20 -176q0 -154 -49.5 -250t-146.5 -96zM217 107q28 0 41 39t15 130h-112q2 -92 14.5 -130.5t41.5 -38.5zM217 560q-28 0 -41 -38.5t-15 -127.5h112q-2 89 -15 127.5
t-41 38.5z" />
    <glyph glyph-name="iota" unicode="&#x3b9;" horiz-adv-x="230" 
d="M163 -12q-65 0 -94 32.5t-29 100.5v362h136v-343q0 -33 24 -33q6 0 14 2l10 -112q-23 -9 -61 -9z" />
    <glyph glyph-name="kappa" unicode="&#x3ba;" horiz-adv-x="424" 
d="M424 0h-148l-62 179l-38 -72v-107h-136v483h136v-200l92 200h149l-111 -214z" />
    <glyph glyph-name="lambda" unicode="&#x3bb;" horiz-adv-x="408" 
d="M63 554l-19 117q18 8 60 8q62 0 96.5 -26t54.5 -95l155 -558h-143l-64 312l-62 -312h-143l136 493l-11 37q-9 30 -39 30q-14 0 -21 -6z" />
    <glyph glyph-name="uni03BC" unicode="&#x3bc;" horiz-adv-x="455" 
d="M176 -3v-181h-136v667h136v-332q0 -44 34 -44q35 0 55 53v323h136v-343q0 -33 24 -33q6 0 14 2l9 -112q-22 -9 -60 -9q-101 0 -118 87q-9 -38 -28 -62.5t-41 -24.5q-16 0 -25 9z" />
    <glyph glyph-name="nu" unicode="&#x3bd;" horiz-adv-x="408" 
d="M265 0h-133l-134 483h143l66 -331q51 146 51 331h135q0 -118 -37 -250t-91 -233z" />
    <glyph glyph-name="xi" unicode="&#x3be;" horiz-adv-x="358" 
d="M200 -12q-76 0 -127.5 49.5t-51.5 127.5q0 52 27 92t74 58q-46 9 -69 41.5t-23 73.5q0 35 20.5 68t56.5 51h-68v118h290v-118h-129q-38 -22 -38 -72q0 -39 20 -59.5t54 -20.5h86v-118h-86q-31 0 -53.5 -21.5t-22.5 -64.5q0 -35 21 -60.5t65 -25.5q95 0 95 -103
q0 -63 -42 -161h-116q41 77 41 119q0 26 -24 26z" />
    <glyph glyph-name="omicron" unicode="&#x3bf;" 
d="M217 -12q-96 0 -146 73t-50 181t50 180.5t146 72.5t146 -72.5t50 -180.5t-50 -181t-146 -73zM217 107q57 0 57 135q0 134 -57 134q-56 0 -56 -134q0 -135 56 -135z" />
    <glyph glyph-name="pi" unicode="&#x3c0;" horiz-adv-x="474" 
d="M417 0h-136v365h-89v-365h-135v365h-44v118h448v-118h-44v-365z" />
    <glyph glyph-name="rho" unicode="&#x3c1;" horiz-adv-x="442" 
d="M272 -12q-29 0 -55.5 17.5t-40.5 51.5v-241h-136v426q0 108 49 180.5t141 72.5q93 0 142 -72t49 -182q0 -117 -39 -185t-110 -68zM225 107q58 0 58 134q0 135 -54 135q-53 0 -53 -134v-89q17 -46 49 -46z" />
    <glyph glyph-name="sigma1" unicode="&#x3c2;" horiz-adv-x="355" 
d="M201 -12q-74 0 -127 72.5t-53 181.5q0 113 53.5 183t144.5 70q83 0 126 -43l-41 -105q-31 29 -59 29q-40 0 -62.5 -37.5t-22.5 -96.5t22.5 -97t62.5 -38q94 0 94 -103q0 -67 -42 -161h-114q42 79 42 119q0 26 -24 26z" />
    <glyph glyph-name="sigma" unicode="&#x3c3;" 
d="M406 213q0 -57 -18 -106t-62.5 -84t-108.5 -35q-91 0 -143.5 71.5t-52.5 182.5q0 102 52.5 171.5t157.5 69.5h188v-119h-63q50 -60 50 -151zM274 227q0 101 -32 137h-10q-41 0 -56 -32.5t-15 -89.5q0 -135 56 -135q57 0 57 120z" />
    <glyph glyph-name="tau" unicode="&#x3c4;" horiz-adv-x="324" 
d="M217 -12q-65 0 -93.5 32.5t-28.5 100.5v244h-80v118h294v-118h-79v-216q0 -42 24 -42q17 0 26 11l23 -107q-28 -23 -86 -23z" />
    <glyph glyph-name="upsilon" unicode="&#x3c5;" horiz-adv-x="438" 
d="M220 -12q-75 0 -127.5 48t-52.5 135v312h136v-310q0 -66 45 -66q32 0 44.5 38.5t12.5 115.5q0 98 -42 190l128 44q53 -109 53 -234q0 -122 -49.5 -197.5t-147.5 -75.5z" />
    <glyph glyph-name="phi" unicode="&#x3c6;" horiz-adv-x="648" 
d="M627 242q0 -94 -60 -163t-175 -86v-177h-135v177q-116 16 -176 86t-60 168q0 168 154 248l61 -105q-75 -46 -75 -143q0 -109 96 -133v381h66q148 0 226 -72.5t78 -180.5zM488 242q0 52 -25 86t-71 41v-254q96 24 96 127z" />
    <glyph glyph-name="chi" unicode="&#x3c7;" horiz-adv-x="395" 
d="M396 -184h-143l-56 200l-56 -200h-142l114 335l-109 332h141l52 -197l52 197h141l-109 -332z" />
    <glyph glyph-name="psi" unicode="&#x3c8;" horiz-adv-x="649" 
d="M392 -184h-135v178q-95 15 -156 73.5t-61 158.5v257h135v-257q0 -90 82 -112v553h135v-553q81 22 81 112v257h135v-257q0 -101 -60 -159t-156 -73v-178z" />
    <glyph glyph-name="omega" unicode="&#x3c9;" horiz-adv-x="666" 
d="M645 242q0 -109 -45 -181.5t-126 -72.5q-53 0 -91.5 31t-48.5 89q-11 -58 -49.5 -89t-91.5 -31q-82 0 -127 72.5t-45 181.5q0 79 27 148t73 105l103 -72q-31 -26 -47 -78.5t-16 -105.5q0 -132 52 -132t52 135v122h136v-122q0 -135 52 -135q53 0 53 135q0 50 -16 102.5
t-47 78.5l102 72q47 -36 73.5 -104.5t26.5 -148.5z" />
    <glyph glyph-name="iotadieresis" unicode="&#x3ca;" horiz-adv-x="230" 
d="M274 612q0 -30 -21 -50.5t-51 -20.5q-29 0 -50 20.5t-21 50.5t21 50.5t50 20.5q30 0 51 -20.5t21 -50.5zM99 612q0 -29 -20.5 -50t-50.5 -21q-29 0 -50 21t-21 50t21 50t50 21q30 0 50.5 -21t20.5 -50zM163 -12q-65 0 -94 32.5t-29 100.5v362h136v-343q0 -33 24 -33
q6 0 14 2l10 -112q-23 -9 -61 -9z" />
    <glyph glyph-name="upsilondieresis" unicode="&#x3cb;" horiz-adv-x="438" 
d="M378 612q0 -30 -21 -50.5t-51 -20.5q-29 0 -50 20.5t-21 50.5t21 50.5t50 20.5q30 0 51 -20.5t21 -50.5zM203 612q0 -29 -20.5 -50t-50.5 -21q-29 0 -50 21t-21 50t21 50t50 21q30 0 50.5 -21t20.5 -50zM220 -12q-75 0 -127.5 48t-52.5 135v312h136v-310q0 -66 45 -66
q32 0 44.5 38.5t12.5 115.5q0 98 -42 190l128 44q53 -109 53 -234q0 -122 -49.5 -197.5t-147.5 -75.5z" />
    <glyph glyph-name="omicrontonos" unicode="&#x3cc;" 
d="M234 551h-59l21 214h109zM217 -12q-96 0 -146 73t-50 181t50 180.5t146 72.5t146 -72.5t50 -180.5t-50 -181t-146 -73zM217 107q57 0 57 135q0 134 -57 134q-56 0 -56 -134q0 -135 56 -135z" />
    <glyph glyph-name="upsilontonos" unicode="&#x3cd;" horiz-adv-x="438" 
d="M237 551h-59l21 214h109zM220 -12q-75 0 -127.5 48t-52.5 135v312h136v-310q0 -66 45 -66q32 0 44.5 38.5t12.5 115.5q0 98 -42 190l128 44q53 -109 53 -234q0 -122 -49.5 -197.5t-147.5 -75.5z" />
    <glyph glyph-name="omegatonos" unicode="&#x3ce;" horiz-adv-x="666" 
d="M350 551h-59l21 214h109zM645 242q0 -109 -45 -181.5t-126 -72.5q-53 0 -91.5 31t-48.5 89q-11 -58 -49.5 -89t-91.5 -31q-82 0 -127 72.5t-45 181.5q0 79 27 148t73 105l103 -72q-31 -26 -47 -78.5t-16 -105.5q0 -132 52 -132t52 135v122h136v-122q0 -135 52 -135
q53 0 53 135q0 50 -16 102.5t-47 78.5l102 72q47 -36 73.5 -104.5t26.5 -148.5z" />
    <glyph glyph-name="afii10023" unicode="&#x401;" horiz-adv-x="392" 
d="M362 779q0 -30 -21 -50.5t-51 -20.5q-29 0 -50 20.5t-21 50.5t21 50.5t50 20.5q30 0 51 -20.5t21 -50.5zM187 779q0 -29 -20.5 -50t-50.5 -21q-29 0 -50 21t-21 50t21 50t50 21q30 0 50.5 -21t20.5 -50zM361 0h-314v667h314v-132h-163v-130h156v-132h-156v-141h163v-132z
" />
    <glyph glyph-name="afii10051" unicode="&#x402;" horiz-adv-x="518" 
d="M275 -12v134q61 0 61 79v15q0 39 -19.5 62t-53.5 23q-25 0 -43 -5l1 -296h-152v535h-99v132h349v-132h-99v-110q32 8 71 8q93 0 145 -62.5t52 -153.5v-16q0 -110 -59 -161.5t-154 -51.5z" />
    <glyph glyph-name="afii10052" unicode="&#x403;" horiz-adv-x="388" 
d="M349 867l-109 -144h-84l80 144h113zM198 0h-151v667h314v-132h-163v-535z" />
    <glyph glyph-name="afii10053" unicode="&#x404;" horiz-adv-x="448" 
d="M251 -12q-113 0 -170 93.5t-57 251.5t57 251.5t170 93.5q35 0 63 -11t46.5 -27t33.5 -41t23 -45.5t16 -47.5l-120 -44q-9 42 -23 62t-39 20q-59 0 -70 -139h173v-132h-173q8 -151 70 -151q51 0 63 95l120 -43q-9 -35 -20 -63t-31.5 -58.5t-54 -47.5t-77.5 -17z" />
    <glyph glyph-name="afii10054" unicode="&#x405;" horiz-adv-x="416" 
d="M195 -12q-118 0 -187 69l63 118q44 -53 114 -53q26 0 41 16.5t15 41.5q0 27 -22 49.5t-53.5 41.5t-63 43.5t-53.5 67.5t-22 100q0 81 54 138.5t148 57.5q96 0 158 -57l-56 -117q-40 40 -97 40q-24 0 -38.5 -15t-14.5 -39q0 -21 16 -40t39.5 -33t51.5 -35t51.5 -44
t39.5 -61.5t16 -85.5q0 -90 -54.5 -146.5t-145.5 -56.5z" />
    <glyph glyph-name="afii10055" unicode="&#x406;" horiz-adv-x="245" 
d="M198 0h-151v667h151v-667z" />
    <glyph glyph-name="afii10056" unicode="&#x407;" horiz-adv-x="245" 
d="M198 0h-151v667h151v-667zM281 779q0 -30 -21 -50.5t-51 -20.5q-29 0 -50 20.5t-21 50.5t21 50.5t50 20.5q30 0 51 -20.5t21 -50.5zM106 779q0 -29 -20.5 -50t-50.5 -21q-29 0 -50 21t-21 50t21 50t50 21q30 0 50.5 -21t20.5 -50z" />
    <glyph glyph-name="afii10057" unicode="&#x408;" horiz-adv-x="362" 
d="M119 -12q-68 0 -111 32l38 124q21 -22 55 -22q30 0 47 16.5t17 48.5v480h152v-488q0 -96 -53 -143.5t-145 -47.5z" />
    <glyph glyph-name="afii10058" unicode="&#x409;" horiz-adv-x="732" 
d="M14 -12v134q22 0 34 10.5t22.5 51.5t16.5 121l24 362h350v-234h50q99 0 150.5 -61.5t51.5 -154.5q0 -92 -51.5 -154.5t-150.5 -62.5h-201v535h-59l-14 -232q-5 -99 -23.5 -163.5t-50.5 -96.5t-66 -43.5t-83 -11.5zM494 301h-33v-169h33q31 0 48.5 23t17.5 61
q0 39 -17.5 62t-48.5 23z" />
    <glyph glyph-name="afii10059" unicode="&#x40a;" horiz-adv-x="732" 
d="M47 0v667h151v-258h112v258h151v-258h50q99 0 150.5 -58.5t51.5 -145.5t-51.5 -146t-150.5 -59h-201v277h-112v-277h-151zM461 132h33q31 0 48.5 19.5t17.5 53.5q0 33 -17.5 52.5t-48.5 19.5h-33v-145z" />
    <glyph glyph-name="afii10060" unicode="&#x40b;" horiz-adv-x="518" 
d="M332 0v216q0 40 -18 62.5t-51 22.5q-25 0 -43 -5l1 -296h-152v535h-99v132h349v-132h-99v-110q32 8 71 8q92 0 142 -62t50 -154v-217h-151z" />
    <glyph glyph-name="afii10061" unicode="&#x40c;" horiz-adv-x="497" 
d="M396 867l-109 -144h-84l80 144h113zM499 0h-171l-90 237l-40 -84v-153h-151v667h151v-289l124 289h165l-159 -312z" />
    <glyph glyph-name="afii10062" unicode="&#x40e;" horiz-adv-x="460" 
d="M99 -12q-65 0 -106 28l35 124q20 -17 50 -17q36 0 53 49l18 52l-155 443h161l75 -258l75 259l160 -1l-179 -511q-33 -91 -72.5 -129.5t-114.5 -38.5zM356 772q-47 -63 -126 -63q-80 0 -127 63l62 47q22 -35 65 -35q41 0 65 35z" />
    <glyph glyph-name="afii10145" unicode="&#x40f;" horiz-adv-x="508" 
d="M47 0v667h151v-535h112v535h151v-667h-131v-128h-152v128h-131z" />
    <glyph glyph-name="afii10017" unicode="&#x410;" horiz-adv-x="454" 
d="M457 0h-155l-17 108h-116l-17 -108h-155l143 667h174zM267 240l-40 261l-40 -261h80z" />
    <glyph glyph-name="afii10018" unicode="&#x411;" horiz-adv-x="469" 
d="M47 667h366v-132h-215v-102h50q99 0 151 -61.5t52 -154.5q0 -92 -52 -154.5t-151 -62.5h-201v667zM231 301h-33v-169h33q31 0 48.5 23t17.5 61q0 39 -17.5 62t-48.5 23z" />
    <glyph glyph-name="afii10019" unicode="&#x412;" horiz-adv-x="477" 
d="M284 0h-237v667h229q84 0 126 -48.5t42 -121.5q0 -61 -28.5 -101t-75.5 -52q50 -8 81.5 -54t31.5 -109q0 -80 -41.5 -130.5t-127.5 -50.5zM235 405q54 0 54 65t-54 65h-37v-130h37zM239 132q59 0 59 71q0 32 -15.5 51t-43.5 19h-41v-141h41z" />
    <glyph glyph-name="afii10020" unicode="&#x413;" horiz-adv-x="388" 
d="M198 0h-151v667h314v-132h-163v-535z" />
    <glyph glyph-name="afii10021" unicode="&#x414;" horiz-adv-x="520" 
d="M13 -123v245q23 4 34.5 14t22.5 51.5t17 124.5l24 355h350v-535h47v-255h-152v123h-191v-123h-152zM239 336q-9 -138 -56 -204h127v403h-59z" />
    <glyph glyph-name="afii10022" unicode="&#x415;" horiz-adv-x="392" 
d="M361 0h-314v667h314v-132h-163v-130h156v-132h-156v-141h163v-132z" />
    <glyph glyph-name="afii10024" unicode="&#x416;" horiz-adv-x="694" 
d="M169 0h-170l171 355l-159 312h165l95 -223v223h152v-223l95 223h166l-160 -312l171 -355h-170l-91 237l-11 -24v-213h-152v213l-11 24z" />
    <glyph glyph-name="afii10025" unicode="&#x417;" horiz-adv-x="465" 
d="M228 -12q-70 0 -125.5 29.5t-86.5 77.5l100 90q41 -63 102 -63q71 0 71 75q0 37 -22.5 55.5t-55.5 18.5h-78v133h68q79 0 79 69q0 70 -68 70q-60 0 -92 -57l-96 82q72 109 204 109q93 0 149.5 -46t56.5 -136q0 -53 -32.5 -97t-85.5 -54q58 -10 92.5 -54.5t34.5 -104.5
q0 -89 -59.5 -143t-155.5 -54z" />
    <glyph glyph-name="afii10026" unicode="&#x418;" horiz-adv-x="508" 
d="M188 0h-141v667h151v-311l112 311h151v-667h-151v326z" />
    <glyph glyph-name="afii10027" unicode="&#x419;" horiz-adv-x="508" 
d="M188 0h-141v667h151v-311l112 311h151v-667h-151v326zM380 772q-47 -63 -126 -63q-80 0 -127 63l62 47q22 -35 65 -35q41 0 65 35z" />
    <glyph glyph-name="afii10028" unicode="&#x41a;" horiz-adv-x="497" 
d="M499 0h-171l-90 237l-40 -84v-153h-151v667h151v-289l124 289h165l-159 -312z" />
    <glyph glyph-name="afii10029" unicode="&#x41b;" horiz-adv-x="508" 
d="M14 -12v134q22 0 34 10.5t22.5 51.5t16.5 121l24 362h350v-667h-152v535h-58l-14 -232q-5 -99 -23.5 -163.5t-50.5 -96.5t-66 -43.5t-83 -11.5z" />
    <glyph glyph-name="afii10030" unicode="&#x41c;" horiz-adv-x="646" 
d="M599 0h-149v357l-103 -357h-49l-100 357v-357h-151v667h189l87 -305l89 305h187v-667z" />
    <glyph glyph-name="afii10031" unicode="&#x41d;" horiz-adv-x="508" 
d="M461 0h-151v277h-112v-277h-151v667h151v-258h112v258h151v-667z" />
    <glyph glyph-name="afii10032" unicode="&#x41e;" horiz-adv-x="500" 
d="M250 -12q-112 0 -169 94t-57 251t57 251t169 94t169 -94t57 -251t-57 -251t-169 -94zM250 122q71 0 71 211t-71 211t-71 -211t71 -211z" />
    <glyph glyph-name="afii10033" unicode="&#x41f;" horiz-adv-x="508" 
d="M461 0h-151v535h-112v-535h-151v667h414v-667z" />
    <glyph glyph-name="afii10034" unicode="&#x420;" horiz-adv-x="469" 
d="M198 0h-151v667h201q99 0 151 -62t52 -155t-52 -154.5t-151 -61.5h-50v-234zM231 366q31 0 48.5 23t17.5 62q0 38 -17.5 61t-48.5 23h-33v-169h33z" />
    <glyph glyph-name="afii10035" unicode="&#x421;" horiz-adv-x="448" 
d="M251 -12q-113 0 -170 93.5t-57 251.5t57 251.5t170 93.5q35 0 63 -11t46.5 -27t33.5 -41t23 -45.5t16 -47.5l-120 -44q-9 42 -23 62t-39 20q-72 0 -72 -211t72 -211q51 0 63 95l120 -43q-9 -35 -20 -63t-31.5 -58.5t-54 -47.5t-77.5 -17z" />
    <glyph glyph-name="afii10036" unicode="&#x422;" horiz-adv-x="385" 
d="M269 0h-152v535h-99v132h349v-132h-98v-535z" />
    <glyph glyph-name="afii10037" unicode="&#x423;" horiz-adv-x="460" 
d="M99 -12q-65 0 -106 28l35 124q20 -17 50 -17q36 0 53 49l18 52l-155 443h161l75 -258l75 259l160 -1l-179 -511q-33 -91 -72.5 -129.5t-114.5 -38.5z" />
    <glyph glyph-name="afii10038" unicode="&#x424;" horiz-adv-x="691" 
d="M421 0h-151v69q-123 17 -184.5 87.5t-61.5 176.5t61.5 176.5t184.5 87.5v70h151v-70q122 -17 184 -87.5t62 -176.5t-62 -176.5t-184 -87.5v-69zM513 333q0 100 -92 126v-252q92 27 92 126zM179 333q0 -99 91 -126v252q-91 -26 -91 -126z" />
    <glyph glyph-name="afii10039" unicode="&#x425;" horiz-adv-x="474" 
d="M478 0h-167l-74 210l-74 -210h-167l153 341l-145 326h167l66 -199l65 199h167l-145 -326z" />
    <glyph glyph-name="afii10040" unicode="&#x426;" horiz-adv-x="520" 
d="M356 -123v123h-309v667h151v-535h112v535h151v-535h47v-255h-152z" />
    <glyph glyph-name="afii10041" unicode="&#x427;" horiz-adv-x="496" 
d="M186 667v-216q0 -39 18 -62t51 -23q20 0 42 5v296h152v-667h-152v242q-30 -8 -70 -8q-92 0 -142 62t-50 154v217h151z" />
    <glyph glyph-name="afii10042" unicode="&#x428;" horiz-adv-x="734" 
d="M536 667h151v-667h-640v667h151v-535h93v535h152v-535h93v535z" />
    <glyph glyph-name="afii10043" unicode="&#x429;" horiz-adv-x="745" 
d="M536 667h151v-535h46v-255h-151v123h-535v667h151v-535h93v535h152v-535h93v535z" />
    <glyph glyph-name="afii10044" unicode="&#x42a;" horiz-adv-x="539" 
d="M318 0h-201v535h-99v132h251v-234h49q100 0 151.5 -61.5t51.5 -154.5q0 -92 -52 -154.5t-151 -62.5zM302 301h-33v-169h33q30 0 47.5 22.5t17.5 61.5t-17 62t-48 23z" />
    <glyph glyph-name="afii10045" unicode="&#x42b;" horiz-adv-x="688" 
d="M47 667h151v-234h50q99 0 151 -61.5t52 -154.5q0 -92 -52 -154.5t-151 -62.5h-201v667zM231 301h-33v-169h33q31 0 48.5 23t17.5 61q0 39 -17.5 62t-48.5 23zM642 0h-152v667h152v-667z" />
    <glyph glyph-name="afii10046" unicode="&#x42c;" horiz-adv-x="469" 
d="M47 667h151v-234h50q99 0 151 -61.5t52 -154.5q0 -92 -52 -154.5t-151 -62.5h-201v667zM231 301h-33v-169h33q31 0 48.5 23t17.5 61q0 39 -17.5 62t-48.5 23z" />
    <glyph glyph-name="afii10047" unicode="&#x42d;" horiz-adv-x="448" 
d="M197 -12q-44 0 -77.5 17t-54 47.5t-31.5 58.5t-20 63l119 43q14 -95 64 -95q60 0 70 151h-173v132h172q-10 139 -69 139q-25 0 -39 -20t-24 -62l-119 44q8 27 16 47.5t23 45.5t33.5 41t46.5 27t63 11q113 0 169.5 -93.5t56.5 -251.5t-56.5 -251.5t-169.5 -93.5z" />
    <glyph glyph-name="afii10048" unicode="&#x42e;" horiz-adv-x="738" 
d="M488 -12q-102 0 -158.5 78t-65.5 211h-65v-277h-152v667h152v-258h67q13 125 68.5 197t153.5 72q112 0 169 -94t57 -251t-57 -251t-169 -94zM488 122q71 0 71 211t-71 211t-71 -211t71 -211z" />
    <glyph glyph-name="afii10049" unicode="&#x42f;" horiz-adv-x="485" 
d="M190 0h-162l89 270q-83 53 -83 186q0 92 55 151.5t140 59.5h209v-667h-151v234h-32zM253 366h34v169h-34q-31 0 -48 -23t-17 -62t17.5 -61.5t47.5 -22.5z" />
    <glyph glyph-name="afii10065" unicode="&#x430;" 
d="M394 0h-135v46q-15 -26 -45.5 -42t-59.5 -16q-59 0 -96.5 43t-37.5 117t37 115t97 41q30 0 60.5 -14.5t44.5 -39.5v51q0 37 -18.5 58.5t-53.5 21.5q-48 0 -100 -47l-48 95q31 33 81 49.5t96 16.5q82 0 130 -40.5t48 -120.5v-334zM205 78q38 0 54 40v55q-17 41 -54 41
q-24 0 -37.5 -18.5t-13.5 -49.5t13.5 -49.5t37.5 -18.5z" />
    <glyph glyph-name="afii10066" unicode="&#x431;" horiz-adv-x="433" 
d="M216 107q57 0 57 136q0 133 -57 133q-56 0 -56 -133q0 -136 56 -136zM216 -12q-100 0 -147.5 74.5t-47.5 201.5q0 188 39.5 265t155.5 101q49 10 49 37h133q0 -102 -141 -133q-61 -13 -89 -34t-38 -59q42 54 114 54q84 0 126 -72t42 -180q0 -109 -49.5 -182t-146.5 -73z
" />
    <glyph glyph-name="afii10067" unicode="&#x432;" horiz-adv-x="436" 
d="M261 0h-221v483h214q77 0 114 -35t37 -89q0 -41 -23.5 -69.5t-62.5 -39.5q42 -9 68 -41.5t26 -76.5q0 -59 -37 -95.5t-115 -36.5zM229 107q46 0 46 42q0 19 -12 31t-34 12h-53v-85h53zM225 299q42 0 42 39q0 38 -42 38h-49v-77h49z" />
    <glyph glyph-name="afii10068" unicode="&#x433;" horiz-adv-x="325" 
d="M312 483v-118h-136v-365h-136v483h272z" />
    <glyph glyph-name="afii10069" unicode="&#x434;" horiz-adv-x="456" 
d="M15 -123v227q24 5 38.5 30.5t19.5 98.5l17 250h311v-365h45v-241h-136v123h-159v-123h-136zM217 365l-8 -126q-5 -82 -38 -121h94v247h-48z" />
    <glyph glyph-name="afii10070" unicode="&#x435;" horiz-adv-x="420" 
d="M226 -12q-96 0 -150.5 69.5t-54.5 184.5q0 110 51.5 181.5t144.5 71.5t139 -68t46 -182v-48h-250q1 -44 23 -71.5t66 -27.5q45 0 81 42l62 -77q-63 -75 -158 -75zM273 290q0 96 -61 96q-60 0 -60 -96h121z" />
    <glyph glyph-name="afii10072" unicode="&#x436;" horiz-adv-x="576" 
d="M148 0h-148l118 269l-111 214h149l64 -139v139h136v-138l64 138h149l-112 -214l118 -269h-148l-61 179l-10 -19v-160h-136v160l-10 19z" />
    <glyph glyph-name="afii10073" unicode="&#x437;" horiz-adv-x="391" 
d="M189 -12q-119 0 -181 75l63 80q37 -46 111 -46q60 0 60 49q0 28 -16.5 36t-46.5 8h-85v108h79q62 0 62 44q0 45 -63 45q-58 0 -96 -45l-63 81q63 72 159 72q89 0 140.5 -34.5t51.5 -99.5q0 -39 -28 -72.5t-70 -40.5q47 -7 76 -39t29 -76q0 -65 -50.5 -105t-131.5 -40z
" />
    <glyph glyph-name="afii10074" unicode="&#x438;" horiz-adv-x="441" 
d="M170 0h-130v483h136v-217l85 217h139v-483h-135v231z" />
    <glyph glyph-name="afii10075" unicode="&#x439;" horiz-adv-x="441" 
d="M170 0h-130v483h136v-217l85 217h139v-483h-135v231zM347 605q-47 -63 -126 -63q-80 0 -127 63l62 47q22 -35 65 -35q41 0 65 35z" />
    <glyph glyph-name="afii10076" unicode="&#x43a;" horiz-adv-x="424" 
d="M424 0h-148l-62 179l-38 -72v-107h-136v483h136v-200l92 200h149l-111 -214z" />
    <glyph glyph-name="afii10077" unicode="&#x43b;" horiz-adv-x="441" 
d="M15 -12v116q24 0 38.5 25t19.5 104l17 250h311v-483h-136v365h-48l-9 -144q-9 -135 -53 -184t-140 -49z" />
    <glyph glyph-name="afii10078" unicode="&#x43c;" horiz-adv-x="556" 
d="M516 0h-133v245l-80 -245h-50l-77 245v-245h-136v483h166l72 -227l76 227h162v-483z" />
    <glyph glyph-name="afii10079" unicode="&#x43d;" horiz-adv-x="441" 
d="M176 0h-136v483h136v-172h89v172h136v-483h-136v193h-89v-193z" />
    <glyph glyph-name="afii10080" unicode="&#x43e;" 
d="M217 -12q-96 0 -146 73t-50 181t50 180.5t146 72.5t146 -72.5t50 -180.5t-50 -181t-146 -73zM217 107q57 0 57 135q0 134 -57 134q-56 0 -56 -134q0 -135 56 -135z" />
    <glyph glyph-name="afii10081" unicode="&#x43f;" horiz-adv-x="441" 
d="M401 0h-136v365h-89v-365h-136v483h361v-483z" />
    <glyph glyph-name="afii10082" unicode="&#x440;" horiz-adv-x="442" 
d="M272 -12q-29 0 -55.5 17.5t-40.5 51.5v-241h-136v667h136v-57q32 69 96 69q72 0 110.5 -66.5t38.5 -187.5q0 -117 -39 -185t-110 -68zM225 107q58 0 58 134q0 135 -58 135q-32 0 -49 -45v-178q17 -46 49 -46z" />
    <glyph glyph-name="afii10083" unicode="&#x441;" horiz-adv-x="358" 
d="M219 -12q-90 0 -144 70.5t-54 183.5t53.5 183t144.5 70q83 0 126 -43l-41 -105q-31 29 -59 29q-40 0 -62.5 -37.5t-22.5 -96.5t22.5 -97t62.5 -38q28 0 59 29l41 -105q-41 -43 -126 -43z" />
    <glyph glyph-name="afii10084" unicode="&#x442;" horiz-adv-x="315" 
d="M226 0h-136v365h-77v118h289v-118h-76v-365z" />
    <glyph glyph-name="afii10085" unicode="&#x443;" horiz-adv-x="408" 
d="M44 -188l19 117q7 -6 21 -6q30 0 39 30l11 37l-136 493h143l62 -312l64 312h143l-155 -558q-20 -69 -54.5 -95t-96.5 -26q-42 0 -60 8z" />
    <glyph glyph-name="afii10086" unicode="&#x444;" horiz-adv-x="650" 
d="M165 495q28 0 53.5 -17.5t38.5 -51.5v241h136v-241q15 34 40 51.5t52 17.5q68 0 105 -66.5t37 -187.5q0 -117 -37.5 -185t-104.5 -68q-28 0 -53.5 17t-38.5 52v-241h-136v241q-14 -35 -39 -52t-53 -17q-68 0 -104.5 67t-36.5 187q0 118 37 185.5t104 67.5zM213 376
q-52 0 -52 -134q0 -135 53 -135q13 0 25 13t18 33v177q-14 46 -44 46zM436 107q54 0 54 134q0 135 -53 135q-29 0 -44 -45v-178q15 -46 43 -46z" />
    <glyph glyph-name="afii10087" unicode="&#x445;" horiz-adv-x="395" 
d="M396 0h-144l-55 144l-55 -144h-143l114 243l-109 240h142l51 -141l51 141h142l-109 -240z" />
    <glyph glyph-name="afii10088" unicode="&#x446;" horiz-adv-x="456" 
d="M310 -123v123h-270v483h136v-365h89v365h136v-365h45v-241h-136z" />
    <glyph glyph-name="afii10089" unicode="&#x447;" horiz-adv-x="437" 
d="M36 483h136v-171q0 -42 38 -42q29 0 51 13v200h136v-483h-136v180q-37 -29 -100 -29q-125 0 -125 112v220z" />
    <glyph glyph-name="afii10090" unicode="&#x448;" horiz-adv-x="644" 
d="M468 483h136v-483h-564v483h136v-365h78v365h136v-365h78v365z" />
    <glyph glyph-name="afii10091" unicode="&#x449;" horiz-adv-x="659" 
d="M468 483h136v-365h44v-241h-135v123h-473v483h136v-365h78v365h136v-365h78v365z" />
    <glyph glyph-name="afii10092" unicode="&#x44a;" horiz-adv-x="477" 
d="M277 0h-187v365h-77v118h213v-162h51q89 0 135.5 -45.5t46.5 -115.5q0 -68 -47 -114t-135 -46zM264 214h-38v-107h38q27 0 42 15t15 38t-15 38.5t-42 15.5z" />
    <glyph glyph-name="afii10093" unicode="&#x44b;" horiz-adv-x="629" 
d="M40 483h136v-162h51q89 0 135.5 -45.5t46.5 -115.5q0 -68 -47 -114t-135 -46h-187v483zM214 214h-38v-107h38q27 0 42 15t15 38t-15 38.5t-42 15.5zM589 0h-136v483h136v-483z" />
    <glyph glyph-name="afii10094" unicode="&#x44c;" horiz-adv-x="427" 
d="M40 483h136v-162h51q89 0 135.5 -45.5t46.5 -115.5q0 -68 -47 -114t-135 -46h-187v483zM214 214h-38v-107h38q27 0 42 15t15 38t-15 38.5t-42 15.5z" />
    <glyph glyph-name="afii10095" unicode="&#x44d;" horiz-adv-x="358" 
d="M139 -12q-85 0 -126 43l40 94q27 -27 63 -27q33 0 55 25.5t29 71.5h-131v98h130q-8 44 -29 68.5t-54 24.5q-34 0 -63 -28l-40 94q43 43 126 43q90 0 143.5 -70t53.5 -183t-53.5 -183.5t-143.5 -70.5z" />
    <glyph glyph-name="afii10096" unicode="&#x44e;" horiz-adv-x="638" 
d="M420 -12q-84 0 -133 57t-59 148h-52v-193h-136v483h136v-172h54q14 82 62.5 133t127.5 51q96 0 146.5 -72.5t50.5 -180.5t-50.5 -181t-146.5 -73zM420 107q58 0 58 135q0 134 -58 134q-55 0 -55 -134q0 -135 55 -135z" />
    <glyph glyph-name="afii10097" unicode="&#x44f;" horiz-adv-x="441" 
d="M167 0h-146l77 191q-29 15 -49.5 48.5t-20.5 85.5q0 69 48 113.5t134 44.5h191v-483h-136v163h-46zM223 270h42v106h-42q-28 0 -42.5 -14.5t-14.5 -38.5q0 -23 15 -38t42 -15z" />
    <glyph glyph-name="afii10071" unicode="&#x451;" horiz-adv-x="420" 
d="M375 612q0 -30 -21 -50.5t-51 -20.5q-29 0 -50 20.5t-21 50.5t21 50.5t50 20.5q30 0 51 -20.5t21 -50.5zM200 612q0 -29 -20.5 -50t-50.5 -21q-29 0 -50 21t-21 50t21 50t50 21q30 0 50.5 -21t20.5 -50zM226 -12q-96 0 -150.5 69.5t-54.5 184.5q0 110 51.5 181.5
t144.5 71.5t139 -68t46 -182v-48h-250q1 -44 23 -71.5t66 -27.5q45 0 81 42l62 -77q-63 -75 -158 -75zM273 290q0 96 -61 96q-60 0 -60 -96h121z" />
    <glyph glyph-name="afii10099" unicode="&#x452;" horiz-adv-x="451" 
d="M303 527h-117v-104q15 28 49.5 50t67.5 22q108 0 108 -111v-411q0 -169 -148 -169q-43 0 -69 20l26 106q9 -11 24 -11q32 0 32 54v359q0 44 -34 44q-17 0 -32 -16.5t-24 -38.5v-321h-135v527h-38v77h38v63h135v-63h117v-77z" />
    <glyph glyph-name="afii10100" unicode="&#x453;" horiz-adv-x="325" 
d="M321 700l-109 -144h-84l80 144h113zM312 483v-118h-136v-365h-136v483h272z" />
    <glyph glyph-name="afii10101" unicode="&#x454;" horiz-adv-x="358" 
d="M219 -12q-90 0 -144 70.5t-54 183.5t53.5 183t144.5 70q83 0 126 -43l-41 -94q-29 28 -62 28q-67 0 -85 -93h132v-98h-133q8 -45 30.5 -71t55.5 -26q35 0 62 27l41 -94q-41 -43 -126 -43z" />
    <glyph glyph-name="afii10102" unicode="&#x455;" horiz-adv-x="364" 
d="M178 -12q-111 0 -170 64l54 93q49 -51 103 -51q25 0 40 11t15 30q0 17 -20 29.5t-48.5 24t-57 28t-48.5 50.5t-20 82q0 62 43.5 104t123.5 42q88 0 154 -59l-53 -91q-14 17 -41.5 30.5t-56.5 13.5q-19 0 -32 -10t-13 -25q0 -16 20.5 -28t49.5 -24t58 -29t49.5 -51
t20.5 -82q0 -67 -47.5 -109.5t-123.5 -42.5z" />
    <glyph glyph-name="afii10103" unicode="&#x456;" horiz-adv-x="216" 
d="M108 532q-33 0 -56 23t-23 57q0 33 23 56.5t56 23.5t56.5 -23.5t23.5 -56.5q0 -34 -23.5 -57t-56.5 -23zM176 0h-136v483h136v-483z" />
    <glyph glyph-name="afii10104" unicode="&#x457;" horiz-adv-x="216" 
d="M267 612q0 -30 -21 -50.5t-51 -20.5q-29 0 -50 20.5t-21 50.5t21 50.5t50 20.5q30 0 51 -20.5t21 -50.5zM92 612q0 -29 -20.5 -50t-50.5 -21q-29 0 -50 21t-21 50t21 50t50 21q30 0 50.5 -21t20.5 -50zM176 0h-136v483h136v-483z" />
    <glyph glyph-name="afii10105" unicode="&#x458;" horiz-adv-x="216" 
d="M108 532q-33 0 -56 23t-23 57q0 33 23 56.5t56 23.5t56.5 -23.5t23.5 -56.5q0 -34 -23.5 -57t-56.5 -23zM27 -196q-42 0 -69 20l26 106q9 -11 25 -11q31 0 31 54v510h136v-510q0 -169 -149 -169z" />
    <glyph glyph-name="afii10106" unicode="&#x459;" horiz-adv-x="653" 
d="M15 -12v116q24 0 38.5 25t19.5 104l17 250h311v-162h51q89 0 135 -45.5t46 -115.5q0 -68 -46.5 -114t-134.5 -46h-187v365h-48l-9 -144q-9 -135 -53 -184t-140 -49zM439 214h-38v-107h38q27 0 42 15t15 38t-15 38.5t-42 15.5z" />
    <glyph glyph-name="afii10107" unicode="&#x45a;" horiz-adv-x="638" 
d="M176 0h-136v483h136v-172h89v172h136v-172h51q89 0 135 -44t46 -112q0 -67 -46.5 -111t-134.5 -44h-187v193h-89v-193zM446 196h-45v-89h45q24 0 37 12t13 32t-13 32.5t-37 12.5z" />
    <glyph glyph-name="afii10108" unicode="&#x45b;" horiz-adv-x="451" 
d="M301 528h-115v-105q15 28 49.5 50t67.5 22q108 0 108 -111v-384h-136v332q0 44 -33 44q-35 0 -56 -55v-321h-136v528h-37v76h37v63h136v-63h115v-76z" />
    <glyph glyph-name="afii10109" unicode="&#x45c;" horiz-adv-x="424" 
d="M358 700l-109 -144h-84l80 144h113zM424 0h-148l-62 179l-38 -72v-107h-136v483h136v-200l92 200h149l-111 -214z" />
    <glyph glyph-name="afii10110" unicode="&#x45e;" horiz-adv-x="408" 
d="M44 -188l19 117q7 -6 21 -6q30 0 39 30l11 37l-136 493h143l62 -312l64 312h143l-155 -558q-20 -69 -54.5 -95t-96.5 -26q-42 0 -60 8zM330 605q-47 -63 -126 -63q-80 0 -127 63l62 47q22 -35 65 -35q41 0 65 35z" />
    <glyph glyph-name="afii10193" unicode="&#x45f;" horiz-adv-x="441" 
d="M153 -124v124h-113v483h136v-365h89v365h136v-483h-113v-124h-135z" />
    <glyph glyph-name="afii10050" unicode="&#x490;" horiz-adv-x="388" 
d="M198 535v-535h-151v667h162v123h152v-255h-163z" />
    <glyph glyph-name="afii10098" unicode="&#x491;" horiz-adv-x="325" 
d="M176 365v-365h-136v483h136v124h136v-242h-136z" />
    <glyph glyph-name="uni1E02" unicode="&#x1e02;" horiz-adv-x="477" 
d="M284 0h-237v667h229q84 0 126 -48.5t42 -121.5q0 -61 -28.5 -101t-75.5 -52q50 -8 81.5 -54t31.5 -109q0 -80 -41.5 -130.5t-127.5 -50.5zM235 405q54 0 54 65t-54 65h-37v-130h37zM239 132q59 0 59 71q0 32 -15.5 51t-43.5 19h-41v-141h41zM239 708q-29 0 -50 20.5
t-21 50.5q0 29 21 49.5t50 20.5t50 -20.5t21 -49.5q0 -30 -21 -50.5t-50 -20.5z" />
    <glyph glyph-name="uni1E03" unicode="&#x1e03;" horiz-adv-x="442" 
d="M176 155q17 -48 49 -48q58 0 58 135q0 134 -58 134q-32 0 -49 -47v-174zM176 0h-136v667h136v-241q14 34 40.5 51.5t55.5 17.5q71 0 110 -68t39 -185q0 -120 -38.5 -187t-110.5 -67q-64 0 -96 69v-57zM227 708q-29 0 -50 20.5t-21 50.5q0 29 21 49.5t50 20.5t50 -20.5
t21 -49.5q0 -30 -21 -50.5t-50 -20.5z" />
    <glyph glyph-name="uni1E0A" unicode="&#x1e0a;" horiz-adv-x="500" 
d="M234 0h-187v667h186q122 0 182.5 -92t60.5 -242q0 -151 -60 -242t-182 -91zM233 132q88 0 88 201q0 202 -88 202h-35v-403h35zM249 708q-29 0 -50 20.5t-21 50.5q0 29 21 49.5t50 20.5t50 -20.5t21 -49.5q0 -30 -21 -50.5t-50 -20.5z" />
    <glyph glyph-name="uni1E0B" unicode="&#x1e0b;" horiz-adv-x="442" 
d="M402 0h-135v57q-33 -69 -97 -69q-72 0 -110.5 67t-38.5 187q0 117 38.5 185t110.5 68q29 0 56 -17t41 -52v241h135v-667zM217 107q15 0 28.5 13.5t21.5 34.5v175q-8 20 -21.5 33t-28.5 13q-57 0 -57 -134q0 -135 57 -135zM218 708q-29 0 -50 20.5t-21 50.5q0 29 21 49.5
t50 20.5t50 -20.5t21 -49.5q0 -30 -21 -50.5t-50 -20.5z" />
    <glyph glyph-name="uni1E1E" unicode="&#x1e1e;" horiz-adv-x="388" 
d="M205 708q-29 0 -50 20.5t-21 50.5q0 29 21 49.5t50 20.5t50 -20.5t21 -49.5q0 -30 -21 -50.5t-50 -20.5zM198 0h-151v667h314v-132h-163v-130h156v-132h-156v-273z" />
    <glyph glyph-name="uni1E1F" unicode="&#x1e1f;" horiz-adv-x="262" 
d="M198 708q-29 0 -50 20.5t-21 50.5q0 29 21 49.5t50 20.5t50 -20.5t21 -49.5q0 -30 -21 -50.5t-50 -20.5zM192 0h-135v365h-43v118h43v34q0 78 36.5 119t106.5 41q58 0 92 -26l-31 -104q-15 15 -32 15q-37 0 -37 -45v-34h59v-118h-59v-365z" />
    <glyph glyph-name="uni1E22" unicode="&#x1e22;" horiz-adv-x="508" 
d="M461 0h-151v277h-112v-277h-151v667h151v-258h112v258h151v-667zM253 708q-29 0 -50 20.5t-21 50.5q0 29 21 49.5t50 20.5t50 -20.5t21 -49.5q0 -30 -21 -50.5t-50 -20.5z" />
    <glyph glyph-name="uni1E23" unicode="&#x1e23;" horiz-adv-x="441" 
d="M401 0h-136v332q0 44 -33 44q-35 0 -56 -55v-321h-136v667h136v-244q15 28 49.5 50t67.5 22q108 0 108 -111v-384zM221 708q-29 0 -50 20.5t-21 50.5q0 29 21 49.5t50 20.5t50 -20.5t21 -49.5q0 -30 -21 -50.5t-50 -20.5z" />
    <glyph glyph-name="uni1E56" unicode="&#x1e56;" horiz-adv-x="469" 
d="M198 0h-151v667h201q99 0 151 -62t52 -155t-52 -154.5t-151 -61.5h-50v-234zM231 366q31 0 48.5 23t17.5 62q0 38 -17.5 61t-48.5 23h-33v-169h33zM235 708q-29 0 -50 20.5t-21 50.5q0 29 21 49.5t50 20.5t50 -20.5t21 -49.5q0 -30 -21 -50.5t-50 -20.5z" />
    <glyph glyph-name="uni1E57" unicode="&#x1e57;" horiz-adv-x="442" 
d="M272 -12q-29 0 -55.5 17.5t-40.5 51.5v-241h-136v667h136v-57q32 69 96 69q72 0 110.5 -66.5t38.5 -187.5q0 -117 -39 -185t-110 -68zM225 107q58 0 58 134q0 135 -58 135q-32 0 -49 -45v-178q17 -46 49 -46zM228 541q-29 0 -50 20.5t-21 50.5q0 29 21 49.5t50 20.5
t50 -20.5t21 -49.5q0 -30 -21 -50.5t-50 -20.5z" />
    <glyph glyph-name="uni1E60" unicode="&#x1e60;" horiz-adv-x="416" 
d="M195 -12q-118 0 -187 69l63 118q44 -53 114 -53q26 0 41 16.5t15 41.5q0 27 -22 49.5t-53.5 41.5t-63 43.5t-53.5 67.5t-22 100q0 81 54 138.5t148 57.5q96 0 158 -57l-56 -117q-40 40 -97 40q-24 0 -38.5 -15t-14.5 -39q0 -21 16 -40t39.5 -33t51.5 -35t51.5 -44
t39.5 -61.5t16 -85.5q0 -90 -54.5 -146.5t-145.5 -56.5zM208 708q-29 0 -50 20.5t-21 50.5q0 29 21 49.5t50 20.5t50 -20.5t21 -49.5q0 -30 -21 -50.5t-50 -20.5z" />
    <glyph glyph-name="uni1E61" unicode="&#x1e61;" horiz-adv-x="364" 
d="M178 -12q-111 0 -170 64l54 93q49 -51 103 -51q25 0 40 11t15 30q0 17 -20 29.5t-48.5 24t-57 28t-48.5 50.5t-20 82q0 62 43.5 104t123.5 42q88 0 154 -59l-53 -91q-14 17 -41.5 30.5t-56.5 13.5q-19 0 -32 -10t-13 -25q0 -16 20.5 -28t49.5 -24t58 -29t49.5 -51
t20.5 -82q0 -67 -47.5 -109.5t-123.5 -42.5zM182 541q-29 0 -50 20.5t-21 50.5q0 29 21 49.5t50 20.5t50 -20.5t21 -49.5q0 -30 -21 -50.5t-50 -20.5z" />
    <glyph glyph-name="uni1E6A" unicode="&#x1e6a;" horiz-adv-x="385" 
d="M269 0h-152v535h-99v132h349v-132h-98v-535zM193 708q-29 0 -50 20.5t-21 50.5q0 29 21 49.5t50 20.5t50 -20.5t21 -49.5q0 -30 -21 -50.5t-50 -20.5z" />
    <glyph glyph-name="uni1E6B" unicode="&#x1e6b;" horiz-adv-x="270" 
d="M179 -12q-65 0 -93.5 32.5t-28.5 100.5v244h-44v118h44v132h135v-132h59v-118h-59v-216q0 -42 24 -42q18 0 26 11l24 -107q-30 -23 -87 -23zM127 708q-29 0 -50 20.5t-21 50.5q0 29 21 49.5t50 20.5t50 -20.5t21 -49.5q0 -30 -21 -50.5t-50 -20.5z" />
    <glyph glyph-name="Wgrave" unicode="&#x1e80;" horiz-adv-x="650" 
d="M524 0h-151l-48 388l-48 -388h-151l-118 667h153l47 -404l59 404h116l60 -404l46 404h154zM373 723h-84l-109 144h114z" />
    <glyph glyph-name="wgrave" unicode="&#x1e81;" horiz-adv-x="641" 
d="M526 0h-142l-63 299l-64 -299h-142l-114 483h139l57 -301l56 301h127l64 -301l56 301h140zM368 556h-84l-109 144h114z" />
    <glyph glyph-name="Wacute" unicode="&#x1e82;" horiz-adv-x="650" 
d="M470 867l-109 -144h-84l80 144h113zM524 0h-151l-48 388l-48 -388h-151l-118 667h153l47 -404l59 404h116l60 -404l46 404h154z" />
    <glyph glyph-name="wacute" unicode="&#x1e83;" horiz-adv-x="641" 
d="M465 700l-109 -144h-84l80 144h113zM526 0h-142l-63 299l-64 -299h-142l-114 483h139l57 -301l56 301h127l64 -301l56 301h140z" />
    <glyph glyph-name="Wdieresis" unicode="&#x1e84;" horiz-adv-x="650" 
d="M483 779q0 -30 -21 -50.5t-51 -20.5q-29 0 -50 20.5t-21 50.5t21 50.5t50 20.5q30 0 51 -20.5t21 -50.5zM308 779q0 -29 -20.5 -50t-50.5 -21q-29 0 -50 21t-21 50t21 50t50 21q30 0 50.5 -21t20.5 -50zM524 0h-151l-48 388l-48 -388h-151l-118 667h153l47 -404l59 404
h116l60 -404l46 404h154z" />
    <glyph glyph-name="wdieresis" unicode="&#x1e85;" horiz-adv-x="641" 
d="M479 612q0 -30 -21 -50.5t-51 -20.5q-29 0 -50 20.5t-21 50.5t21 50.5t50 20.5q30 0 51 -20.5t21 -50.5zM304 612q0 -29 -20.5 -50t-50.5 -21q-29 0 -50 21t-21 50t21 50t50 21q30 0 50.5 -21t20.5 -50zM526 0h-142l-63 299l-64 -299h-142l-114 483h139l57 -301l56 301
h127l64 -301l56 301h140z" />
    <glyph glyph-name="uni1EA0" unicode="&#x1ea0;" horiz-adv-x="454" 
d="M457 0h-155l-17 108h-116l-17 -108h-155l143 667h174zM267 240l-40 261l-40 -261h80zM228 -198q-29 0 -50 20.5t-21 50.5q0 29 21 49.5t50 20.5t50 -20.5t21 -49.5q0 -30 -21 -50.5t-50 -20.5z" />
    <glyph glyph-name="uni1EA1" unicode="&#x1ea1;" 
d="M394 0h-135v46q-15 -26 -45.5 -42t-59.5 -16q-59 0 -96.5 43t-37.5 117t37 115t97 41q30 0 60.5 -14.5t44.5 -39.5v51q0 37 -18.5 58.5t-53.5 21.5q-48 0 -100 -47l-48 95q31 33 81 49.5t96 16.5q82 0 130 -40.5t48 -120.5v-334zM205 78q38 0 54 40v55q-17 41 -54 41
q-24 0 -37.5 -18.5t-13.5 -49.5t13.5 -49.5t37.5 -18.5zM220 -198q-29 0 -50 20.5t-21 50.5q0 29 21 49.5t50 20.5t50 -20.5t21 -49.5q0 -30 -21 -50.5t-50 -20.5z" />
    <glyph glyph-name="uni1EA2" unicode="&#x1ea2;" horiz-adv-x="454" 
d="M457 0h-155l-17 108h-116l-17 -108h-155l143 667h174zM267 240l-40 261l-40 -261h80zM209 756l-49 8q5 26 23.5 41t45.5 15q29 0 46.5 -17.5t17.5 -51.5q0 -26 -14 -54h-51q16 23 16 51t-17 28q-15 0 -18 -20z" />
    <glyph glyph-name="uni1EA3" unicode="&#x1ea3;" 
d="M394 0h-135v46q-15 -26 -45.5 -42t-59.5 -16q-59 0 -96.5 43t-37.5 117t37 115t97 41q30 0 60.5 -14.5t44.5 -39.5v51q0 37 -18.5 58.5t-53.5 21.5q-48 0 -100 -47l-48 95q31 33 81 49.5t96 16.5q82 0 130 -40.5t48 -120.5v-334zM205 78q38 0 54 40v55q-17 41 -54 41
q-24 0 -37.5 -18.5t-13.5 -49.5t13.5 -49.5t37.5 -18.5zM199 586l-49 8q5 26 23.5 41t45.5 15q29 0 46.5 -17.5t17.5 -51.5q0 -26 -14 -54h-51q16 23 16 51t-17 28q-15 0 -18 -20z" />
    <glyph glyph-name="uni1EA4" unicode="&#x1ea4;" horiz-adv-x="454" 
d="M350 682h-73l-51 64l-47 -64h-74l61 108h120zM457 0h-155l-17 108h-116l-17 -108h-155l143 667h174zM267 240l-40 261l-40 -261h80zM520 843l-109 -108h-84l80 108h113z" />
    <glyph glyph-name="uni1EA5" unicode="&#x1ea5;" 
d="M394 0h-135v46q-15 -26 -45.5 -42t-59.5 -16q-59 0 -96.5 43t-37.5 117t37 115t97 41q30 0 60.5 -14.5t44.5 -39.5v51q0 37 -18.5 58.5t-53.5 21.5q-48 0 -100 -47l-48 95q31 33 81 49.5t96 16.5q82 0 130 -40.5t48 -120.5v-334zM205 78q38 0 54 40v55q-17 41 -54 41
q-24 0 -37.5 -18.5t-13.5 -49.5t13.5 -49.5t37.5 -18.5zM343 556h-73l-51 86l-47 -86h-74l61 144h120zM509 770l-109 -144h-84l80 144h113z" />
    <glyph glyph-name="uni1EA6" unicode="&#x1ea6;" horiz-adv-x="454" 
d="M350 682h-73l-51 64l-47 -64h-74l61 108h120zM457 0h-155l-17 108h-116l-17 -108h-155l143 667h174zM267 240l-40 261l-40 -261h80zM128 735h-84l-109 108h114z" />
    <glyph glyph-name="uni1EA7" unicode="&#x1ea7;" 
d="M394 0h-135v46q-15 -26 -45.5 -42t-59.5 -16q-59 0 -96.5 43t-37.5 117t37 115t97 41q30 0 60.5 -14.5t44.5 -39.5v51q0 37 -18.5 58.5t-53.5 21.5q-48 0 -100 -47l-48 95q31 33 81 49.5t96 16.5q82 0 130 -40.5t48 -120.5v-334zM205 78q38 0 54 40v55q-17 41 -54 41
q-24 0 -37.5 -18.5t-13.5 -49.5t13.5 -49.5t37.5 -18.5zM343 556h-73l-51 86l-47 -86h-74l61 144h120zM119 626h-84l-109 144h114z" />
    <glyph glyph-name="uni1EA8" unicode="&#x1ea8;" horiz-adv-x="454" 
d="M350 682h-73l-51 64l-47 -64h-74l61 108h120zM457 0h-155l-17 108h-116l-17 -108h-155l143 667h174zM267 240l-40 261l-40 -261h80zM352 788l-49 6q11 42 69 42q64 0 64 -51q0 -19 -14 -41h-51q16 17 16 38t-17 21q-15 0 -18 -15z" />
    <glyph glyph-name="uni1EA9" unicode="&#x1ea9;" 
d="M394 0h-135v46q-15 -26 -45.5 -42t-59.5 -16q-59 0 -96.5 43t-37.5 117t37 115t97 41q30 0 60.5 -14.5t44.5 -39.5v51q0 37 -18.5 58.5t-53.5 21.5q-48 0 -100 -47l-48 95q31 33 81 49.5t96 16.5q82 0 130 -40.5t48 -120.5v-334zM205 78q38 0 54 40v55q-17 41 -54 41
q-24 0 -37.5 -18.5t-13.5 -49.5t13.5 -49.5t37.5 -18.5zM343 556h-73l-51 86l-47 -86h-74l61 144h120zM296 726l-49 8q5 26 23.5 41t45.5 15q29 0 46.5 -17.5t17.5 -51.5q0 -26 -14 -54h-51q16 23 16 51t-17 28q-15 0 -18 -20z" />
    <glyph glyph-name="uni1EAA" unicode="&#x1eaa;" horiz-adv-x="454" 
d="M350 678h-73l-51 43l-47 -43h-74l61 72h120zM457 0h-155l-17 108h-116l-17 -108h-155l143 667h174zM267 240l-40 261l-40 -261h80zM271 757q-29 0 -54 16t-35 16q-25 0 -25 -29h-66q0 30 24.5 48.5t66.5 18.5q28 0 54 -16t36 -16q24 0 24 29h66q0 -30 -24 -48.5
t-67 -18.5z" />
    <glyph glyph-name="uni1EAB" unicode="&#x1eab;" 
d="M394 0h-135v46q-15 -26 -45.5 -42t-59.5 -16q-59 0 -96.5 43t-37.5 117t37 115t97 41q30 0 60.5 -14.5t44.5 -39.5v51q0 37 -18.5 58.5t-53.5 21.5q-48 0 -100 -47l-48 95q31 33 81 49.5t96 16.5q82 0 130 -40.5t48 -120.5v-334zM205 78q38 0 54 40v55q-17 41 -54 41
q-24 0 -37.5 -18.5t-13.5 -49.5t13.5 -49.5t37.5 -18.5zM343 523h-73l-51 86l-47 -86h-74l61 144h120zM262 682q-22 0 -38.5 16t-28.5 32t-22 16q-25 0 -25 -58h-66q0 60 24.5 97t66.5 37q22 0 38.5 -16t28.5 -32t23 -16q24 0 24 58h66q0 -60 -24 -97t-67 -37z" />
    <glyph glyph-name="uni1EAC" unicode="&#x1eac;" horiz-adv-x="454" 
d="M457 0h-155l-17 108h-116l-17 -108h-155l143 667h174zM267 240l-40 261l-40 -261h80zM350 723h-73l-51 86l-47 -86h-74l61 144h120zM228 -198q-29 0 -50 20.5t-21 50.5q0 29 21 49.5t50 20.5t50 -20.5t21 -49.5q0 -30 -21 -50.5t-50 -20.5z" />
    <glyph glyph-name="uni1EAD" unicode="&#x1ead;" 
d="M394 0h-135v46q-15 -26 -45.5 -42t-59.5 -16q-59 0 -96.5 43t-37.5 117t37 115t97 41q30 0 60.5 -14.5t44.5 -39.5v51q0 37 -18.5 58.5t-53.5 21.5q-48 0 -100 -47l-48 95q31 33 81 49.5t96 16.5q82 0 130 -40.5t48 -120.5v-334zM205 78q38 0 54 40v55q-17 41 -54 41
q-24 0 -37.5 -18.5t-13.5 -49.5t13.5 -49.5t37.5 -18.5zM340 556h-73l-51 86l-47 -86h-74l61 144h120zM220 -198q-29 0 -50 20.5t-21 50.5q0 29 21 49.5t50 20.5t50 -20.5t21 -49.5q0 -30 -21 -50.5t-50 -20.5z" />
    <glyph glyph-name="uni1EAE" unicode="&#x1eae;" horiz-adv-x="454" 
d="M457 0h-155l-17 108h-116l-17 -108h-155l143 667h174zM267 240l-40 261l-40 -261h80zM370 831l-109 -82h-84l80 82h113zM353 723q-48 -41 -126 -41q-79 0 -127 41l62 30q22 -22 65 -22q41 0 65 22z" />
    <glyph glyph-name="uni1EAF" unicode="&#x1eaf;" 
d="M394 0h-135v46q-15 -26 -45.5 -42t-59.5 -16q-59 0 -96.5 43t-37.5 117t37 115t97 41q30 0 60.5 -14.5t44.5 -39.5v51q0 37 -18.5 58.5t-53.5 21.5q-48 0 -100 -47l-48 95q31 33 81 49.5t96 16.5q82 0 130 -40.5t48 -120.5v-334zM205 78q38 0 54 40v55q-17 41 -54 41
q-24 0 -37.5 -18.5t-13.5 -49.5t13.5 -49.5t37.5 -18.5zM360 781l-109 -144h-84l80 144h113zM344 580q-47 -63 -126 -63q-80 0 -127 63l62 47q22 -35 65 -35q41 0 65 35z" />
    <glyph glyph-name="uni1EB0" unicode="&#x1eb0;" horiz-adv-x="454" 
d="M457 0h-155l-17 108h-116l-17 -108h-155l143 667h174zM267 240l-40 261l-40 -261h80zM278 749h-84l-109 82h114zM353 722q-48 -41 -126 -41q-79 0 -127 41l62 30q22 -22 65 -22q41 0 65 22z" />
    <glyph glyph-name="uni1EB1" unicode="&#x1eb1;" 
d="M394 0h-135v46q-15 -26 -45.5 -42t-59.5 -16q-59 0 -96.5 43t-37.5 117t37 115t97 41q30 0 60.5 -14.5t44.5 -39.5v51q0 37 -18.5 58.5t-53.5 21.5q-48 0 -100 -47l-48 95q31 33 81 49.5t96 16.5q82 0 130 -40.5t48 -120.5v-334zM205 78q38 0 54 40v55q-17 41 -54 41
q-24 0 -37.5 -18.5t-13.5 -49.5t13.5 -49.5t37.5 -18.5zM267 637h-84l-109 144h114zM344 580q-47 -63 -126 -63q-80 0 -127 63l62 47q22 -35 65 -35q41 0 65 35z" />
    <glyph glyph-name="uni1EB2" unicode="&#x1eb2;" horiz-adv-x="454" 
d="M457 0h-155l-17 108h-116l-17 -108h-155l143 667h174zM267 240l-40 261l-40 -261h80zM210 782l-49 5q11 32 69 32q64 0 64 -40q0 -15 -14 -31h-51q16 13 16 30q0 16 -17 16q-15 0 -18 -12zM353 722q-48 -41 -126 -41q-79 0 -127 41l62 30q22 -22 65 -22q41 0 65 22z" />
    <glyph glyph-name="uni1EB3" unicode="&#x1eb3;" 
d="M394 0h-135v46q-15 -26 -45.5 -42t-59.5 -16q-59 0 -96.5 43t-37.5 117t37 115t97 41q30 0 60.5 -14.5t44.5 -39.5v51q0 37 -18.5 58.5t-53.5 21.5q-48 0 -100 -47l-48 95q31 33 81 49.5t96 16.5q82 0 130 -40.5t48 -120.5v-334zM205 78q38 0 54 40v55q-17 41 -54 41
q-24 0 -37.5 -18.5t-13.5 -49.5t13.5 -49.5t37.5 -18.5zM201 696l-49 8q5 26 23.5 41t45.5 15q29 0 46.5 -17.5t17.5 -51.5q0 -26 -14 -54h-51q16 23 16 51t-17 28q-15 0 -18 -20zM344 580q-47 -63 -126 -63q-80 0 -127 63l62 47q22 -35 65 -35q41 0 65 35z" />
    <glyph glyph-name="uni1EB4" unicode="&#x1eb4;" horiz-adv-x="454" 
d="M457 0h-155l-17 108h-116l-17 -108h-155l143 667h174zM267 240l-40 261l-40 -261h80zM354 720q-47 -37 -126 -37q-80 0 -127 37l62 27q22 -20 65 -20q42 0 65 20zM271 757q-29 0 -54 16t-35 16q-25 0 -25 -29h-66q0 30 24.5 48.5t66.5 18.5q28 0 54 -16t36 -16
q24 0 24 29h66q0 -30 -24 -48.5t-67 -18.5z" />
    <glyph glyph-name="uni1EB5" unicode="&#x1eb5;" 
d="M394 0h-135v46q-15 -26 -45.5 -42t-59.5 -16q-59 0 -96.5 43t-37.5 117t37 115t97 41q30 0 60.5 -14.5t44.5 -39.5v51q0 37 -18.5 58.5t-53.5 21.5q-48 0 -100 -47l-48 95q31 33 81 49.5t96 16.5q82 0 130 -40.5t48 -120.5v-334zM205 78q38 0 54 40v55q-17 41 -54 41
q-24 0 -37.5 -18.5t-13.5 -49.5t13.5 -49.5t37.5 -18.5zM344 580q-47 -63 -126 -63q-80 0 -127 63l62 47q22 -35 65 -35q41 0 65 35zM262 649q-22 0 -38.5 16t-28.5 32t-22 16q-25 0 -25 -58h-66q0 60 24.5 97t66.5 37q22 0 38.5 -16t28.5 -32t23 -16q24 0 24 58h66
q0 -60 -24 -97t-67 -37z" />
    <glyph glyph-name="uni1EB6" unicode="&#x1eb6;" horiz-adv-x="454" 
d="M457 0h-155l-17 108h-116l-17 -108h-155l143 667h174zM267 240l-40 261l-40 -261h80zM228 -198q-29 0 -50 20.5t-21 50.5q0 29 21 49.5t50 20.5t50 -20.5t21 -49.5q0 -30 -21 -50.5t-50 -20.5zM353 772q-47 -63 -126 -63q-80 0 -127 63l62 47q22 -35 65 -35q41 0 65 35z
" />
    <glyph glyph-name="uni1EB7" unicode="&#x1eb7;" 
d="M394 0h-135v46q-15 -26 -45.5 -42t-59.5 -16q-59 0 -96.5 43t-37.5 117t37 115t97 41q30 0 60.5 -14.5t44.5 -39.5v51q0 37 -18.5 58.5t-53.5 21.5q-48 0 -100 -47l-48 95q31 33 81 49.5t96 16.5q82 0 130 -40.5t48 -120.5v-334zM205 78q38 0 54 40v55q-17 41 -54 41
q-24 0 -37.5 -18.5t-13.5 -49.5t13.5 -49.5t37.5 -18.5zM220 -198q-29 0 -50 20.5t-21 50.5q0 29 21 49.5t50 20.5t50 -20.5t21 -49.5q0 -30 -21 -50.5t-50 -20.5zM344 605q-47 -63 -126 -63q-80 0 -127 63l62 47q22 -35 65 -35q41 0 65 35z" />
    <glyph glyph-name="uni1EB8" unicode="&#x1eb8;" horiz-adv-x="392" 
d="M361 0h-314v667h314v-132h-163v-130h156v-132h-156v-141h163v-132zM208 -198q-29 0 -50 20.5t-21 50.5q0 29 21 49.5t50 20.5t50 -20.5t21 -49.5q0 -30 -21 -50.5t-50 -20.5z" />
    <glyph glyph-name="uni1EB9" unicode="&#x1eb9;" horiz-adv-x="420" 
d="M226 -12q-96 0 -150.5 69.5t-54.5 184.5q0 110 51.5 181.5t144.5 71.5t139 -68t46 -182v-48h-250q1 -44 23 -71.5t66 -27.5q45 0 81 42l62 -77q-63 -75 -158 -75zM273 290q0 96 -61 96q-60 0 -60 -96h121zM216 -198q-29 0 -50 20.5t-21 50.5q0 29 21 49.5t50 20.5
t50 -20.5t21 -49.5q0 -30 -21 -50.5t-50 -20.5z" />
    <glyph glyph-name="uni1EBA" unicode="&#x1eba;" horiz-adv-x="392" 
d="M361 0h-314v667h314v-132h-163v-130h156v-132h-156v-141h163v-132zM178 756l-49 8q5 26 23.5 41t45.5 15q29 0 46.5 -17.5t17.5 -51.5q0 -26 -14 -54h-51q16 23 16 51t-17 28q-15 0 -18 -20z" />
    <glyph glyph-name="uni1EBB" unicode="&#x1ebb;" horiz-adv-x="420" 
d="M226 -12q-96 0 -150.5 69.5t-54.5 184.5q0 110 51.5 181.5t144.5 71.5t139 -68t46 -182v-48h-250q1 -44 23 -71.5t66 -27.5q45 0 81 42l62 -77q-63 -75 -158 -75zM273 290q0 96 -61 96q-60 0 -60 -96h121zM194 586l-49 8q5 26 23.5 41t45.5 15q29 0 46.5 -17.5
t17.5 -51.5q0 -26 -14 -54h-51q16 23 16 51t-17 28q-15 0 -18 -20z" />
    <glyph glyph-name="uni1EBC" unicode="&#x1ebc;" horiz-adv-x="392" 
d="M361 0h-314v667h314v-132h-163v-130h156v-132h-156v-141h163v-132zM250 721q-22 0 -38.5 16t-28.5 32t-22 16q-25 0 -25 -58h-66q0 60 24.5 97t66.5 37q22 0 38.5 -16t28.5 -32t23 -16q24 0 24 58h66q0 -60 -24 -97t-67 -37z" />
    <glyph glyph-name="uni1EBD" unicode="&#x1ebd;" horiz-adv-x="420" 
d="M226 -12q-96 0 -150.5 69.5t-54.5 184.5q0 110 51.5 181.5t144.5 71.5t139 -68t46 -182v-48h-250q1 -44 23 -71.5t66 -27.5q45 0 81 42l62 -77q-63 -75 -158 -75zM273 290q0 96 -61 96q-60 0 -60 -96h121zM257 554q-22 0 -38.5 16t-28.5 32t-22 16q-25 0 -25 -58h-66
q0 60 24.5 97t66.5 37q22 0 38.5 -16t28.5 -32t23 -16q24 0 24 58h66q0 -60 -24 -97t-67 -37z" />
    <glyph glyph-name="uni1EBE" unicode="&#x1ebe;" horiz-adv-x="392" 
d="M327 682h-73l-51 64l-47 -64h-74l61 108h120zM496 843l-109 -108h-84l80 108h113zM361 0h-314v667h314v-132h-163v-130h156v-132h-156v-141h163v-132z" />
    <glyph glyph-name="uni1EBF" unicode="&#x1ebf;" horiz-adv-x="420" 
d="M338 556h-73l-51 86l-47 -86h-74l61 144h120zM505 770l-109 -144h-84l80 144h113zM226 -12q-96 0 -150.5 69.5t-54.5 184.5q0 110 51.5 181.5t144.5 71.5t139 -68t46 -182v-48h-250q1 -44 23 -71.5t66 -27.5q45 0 81 42l62 -77q-63 -75 -158 -75zM273 290q0 96 -61 96
q-60 0 -60 -96h121z" />
    <glyph glyph-name="uni1EC0" unicode="&#x1ec0;" horiz-adv-x="392" 
d="M327 682h-73l-51 64l-47 -64h-74l61 108h120zM361 0h-314v667h314v-132h-163v-130h156v-132h-156v-141h163v-132zM105 735h-84l-109 108h114z" />
    <glyph glyph-name="uni1EC1" unicode="&#x1ec1;" horiz-adv-x="420" 
d="M338 556h-73l-51 86l-47 -86h-74l61 144h120zM226 -12q-96 0 -150.5 69.5t-54.5 184.5q0 110 51.5 181.5t144.5 71.5t139 -68t46 -182v-48h-250q1 -44 23 -71.5t66 -27.5q45 0 81 42l62 -77q-63 -75 -158 -75zM273 290q0 96 -61 96q-60 0 -60 -96h121zM113 626h-84
l-109 144h114z" />
    <glyph glyph-name="uni1EC2" unicode="&#x1ec2;" horiz-adv-x="392" 
d="M327 682h-73l-51 64l-47 -64h-74l61 108h120zM361 0h-314v667h314v-132h-163v-130h156v-132h-156v-141h163v-132zM328 788l-49 6q11 42 69 42q64 0 64 -51q0 -19 -14 -41h-51q16 17 16 38t-17 21q-15 0 -18 -15z" />
    <glyph glyph-name="uni1EC3" unicode="&#x1ec3;" horiz-adv-x="420" 
d="M337 556h-73l-51 86l-47 -86h-74l61 144h120zM226 -12q-96 0 -150.5 69.5t-54.5 184.5q0 110 51.5 181.5t144.5 71.5t139 -68t46 -182v-48h-250q1 -44 23 -71.5t66 -27.5q45 0 81 42l62 -77q-63 -75 -158 -75zM273 290q0 96 -61 96q-60 0 -60 -96h121zM290 726l-49 8
q5 26 23.5 41t45.5 15q29 0 46.5 -17.5t17.5 -51.5q0 -26 -14 -54h-51q16 23 16 51t-17 28q-15 0 -18 -20z" />
    <glyph glyph-name="uni1EC4" unicode="&#x1ec4;" horiz-adv-x="392" 
d="M326 678h-73l-51 43l-47 -43h-74l61 72h120zM361 0h-314v667h314v-132h-163v-130h156v-132h-156v-141h163v-132zM247 757q-29 0 -54 16t-35 16q-25 0 -25 -29h-66q0 30 24.5 48.5t66.5 18.5q28 0 54 -16t36 -16q24 0 24 29h66q0 -30 -24 -48.5t-67 -18.5z" />
    <glyph glyph-name="uni1EC5" unicode="&#x1ec5;" horiz-adv-x="420" 
d="M336 523h-73l-51 86l-47 -86h-74l61 144h120zM226 -12q-96 0 -150.5 69.5t-54.5 184.5q0 110 51.5 181.5t144.5 71.5t139 -68t46 -182v-48h-250q1 -44 23 -71.5t66 -27.5q45 0 81 42l62 -77q-63 -75 -158 -75zM273 290q0 96 -61 96q-60 0 -60 -96h121zM255 682
q-22 0 -38.5 16t-28.5 32t-22 16q-25 0 -25 -58h-66q0 60 24.5 97t66.5 37q22 0 38.5 -16t28.5 -32t23 -16q24 0 24 58h66q0 -60 -24 -97t-67 -37z" />
    <glyph glyph-name="uni1EC6" unicode="&#x1ec6;" horiz-adv-x="392" 
d="M326 723h-73l-51 86l-47 -86h-74l61 144h120zM361 0h-314v667h314v-132h-163v-130h156v-132h-156v-141h163v-132zM208 -198q-29 0 -50 20.5t-21 50.5q0 29 21 49.5t50 20.5t50 -20.5t21 -49.5q0 -30 -21 -50.5t-50 -20.5z" />
    <glyph glyph-name="uni1EC7" unicode="&#x1ec7;" horiz-adv-x="420" 
d="M338 556h-73l-51 86l-47 -86h-74l61 144h120zM226 -12q-96 0 -150.5 69.5t-54.5 184.5q0 110 51.5 181.5t144.5 71.5t139 -68t46 -182v-48h-250q1 -44 23 -71.5t66 -27.5q45 0 81 42l62 -77q-63 -75 -158 -75zM273 290q0 96 -61 96q-60 0 -60 -96h121zM216 -198
q-29 0 -50 20.5t-21 50.5q0 29 21 49.5t50 20.5t50 -20.5t21 -49.5q0 -30 -21 -50.5t-50 -20.5z" />
    <glyph glyph-name="uni1EC8" unicode="&#x1ec8;" horiz-adv-x="245" 
d="M198 0h-151v667h151v-667zM105 756l-49 8q5 26 23.5 41t45.5 15q29 0 46.5 -17.5t17.5 -51.5q0 -26 -14 -54h-51q16 23 16 51t-17 28q-15 0 -18 -20z" />
    <glyph glyph-name="uni1EC9" unicode="&#x1ec9;" horiz-adv-x="216" 
d="M176 0h-136v483h136v-483zM91 586l-49 8q5 26 23.5 41t45.5 15q29 0 46.5 -17.5t17.5 -51.5q0 -26 -14 -54h-51q16 23 16 51t-17 28q-15 0 -18 -20z" />
    <glyph glyph-name="uni1ECA" unicode="&#x1eca;" horiz-adv-x="245" 
d="M198 0h-151v667h151v-667zM124 -198q-29 0 -50 20.5t-21 50.5q0 29 21 49.5t50 20.5t50 -20.5t21 -49.5q0 -30 -21 -50.5t-50 -20.5z" />
    <glyph glyph-name="uni1ECB" unicode="&#x1ecb;" horiz-adv-x="216" 
d="M108 532q-33 0 -56 23t-23 57q0 33 23 56.5t56 23.5t56.5 -23.5t23.5 -56.5q0 -34 -23.5 -57t-56.5 -23zM176 0h-136v483h136v-483zM110 -198q-29 0 -50 20.5t-21 50.5q0 29 21 49.5t50 20.5t50 -20.5t21 -49.5q0 -30 -21 -50.5t-50 -20.5z" />
    <glyph glyph-name="uni1ECC" unicode="&#x1ecc;" horiz-adv-x="500" 
d="M250 -12q-112 0 -169 94t-57 251t57 251t169 94t169 -94t57 -251t-57 -251t-169 -94zM250 122q71 0 71 211t-71 211t-71 -211t71 -211zM253 -198q-29 0 -50 20.5t-21 50.5q0 29 21 49.5t50 20.5t50 -20.5t21 -49.5q0 -30 -21 -50.5t-50 -20.5z" />
    <glyph glyph-name="uni1ECD" unicode="&#x1ecd;" 
d="M217 -12q-96 0 -146 73t-50 181t50 180.5t146 72.5t146 -72.5t50 -180.5t-50 -181t-146 -73zM217 107q57 0 57 135q0 134 -57 134q-56 0 -56 -134q0 -135 56 -135zM218 -198q-29 0 -50 20.5t-21 50.5q0 29 21 49.5t50 20.5t50 -20.5t21 -49.5q0 -30 -21 -50.5t-50 -20.5z
" />
    <glyph glyph-name="uni1ECE" unicode="&#x1ece;" horiz-adv-x="500" 
d="M250 -12q-112 0 -169 94t-57 251t57 251t169 94t169 -94t57 -251t-57 -251t-169 -94zM250 122q71 0 71 211t-71 211t-71 -211t71 -211zM233 756l-49 8q5 26 23.5 41t45.5 15q29 0 46.5 -17.5t17.5 -51.5q0 -26 -14 -54h-51q16 23 16 51t-17 28q-15 0 -18 -20z" />
    <glyph glyph-name="uni1ECF" unicode="&#x1ecf;" 
d="M217 -12q-96 0 -146 73t-50 181t50 180.5t146 72.5t146 -72.5t50 -180.5t-50 -181t-146 -73zM217 107q57 0 57 135q0 134 -57 134q-56 0 -56 -134q0 -135 56 -135zM201 586l-49 8q5 26 23.5 41t45.5 15q29 0 46.5 -17.5t17.5 -51.5q0 -26 -14 -54h-51q16 23 16 51t-17 28
q-15 0 -18 -20z" />
    <glyph glyph-name="uni1ED0" unicode="&#x1ed0;" horiz-adv-x="500" 
d="M371 682h-73l-51 64l-47 -64h-74l61 108h120zM540 843l-109 -108h-84l80 108h113zM250 -12q-112 0 -169 94t-57 251t57 251t169 94t169 -94t57 -251t-57 -251t-169 -94zM250 122q71 0 71 211t-71 211t-71 -211t71 -211z" />
    <glyph glyph-name="uni1ED1" unicode="&#x1ed1;" 
d="M338 556h-73l-51 86l-47 -86h-74l61 144h120zM504 770l-109 -144h-84l80 144h113zM217 -12q-96 0 -146 73t-50 181t50 180.5t146 72.5t146 -72.5t50 -180.5t-50 -181t-146 -73zM217 107q57 0 57 135q0 134 -57 134q-56 0 -56 -134q0 -135 56 -135z" />
    <glyph glyph-name="uni1ED2" unicode="&#x1ed2;" horiz-adv-x="500" 
d="M369 682h-73l-51 64l-47 -64h-74l61 108h120zM250 -12q-112 0 -169 94t-57 251t57 251t169 94t169 -94t57 -251t-57 -251t-169 -94zM250 122q71 0 71 211t-71 211t-71 -211t71 -211zM147 735h-84l-109 108h114z" />
    <glyph glyph-name="uni1ED3" unicode="&#x1ed3;" 
d="M338 556h-73l-51 86l-47 -86h-74l61 144h120zM217 -12q-96 0 -146 73t-50 181t50 180.5t146 72.5t146 -72.5t50 -180.5t-50 -181t-146 -73zM217 107q57 0 57 135q0 134 -57 134q-56 0 -56 -134q0 -135 56 -135zM113 626h-84l-109 144h114z" />
    <glyph glyph-name="uni1ED4" unicode="&#x1ed4;" horiz-adv-x="500" 
d="M369 682h-73l-51 64l-47 -64h-74l61 108h120zM250 -12q-112 0 -169 94t-57 251t57 251t169 94t169 -94t57 -251t-57 -251t-169 -94zM250 122q71 0 71 211t-71 211t-71 -211t71 -211zM370 788l-49 6q11 42 69 42q64 0 64 -51q0 -19 -14 -41h-51q16 17 16 38t-17 21
q-15 0 -18 -15z" />
    <glyph glyph-name="uni1ED5" unicode="&#x1ed5;" 
d="M339 556h-73l-51 86l-47 -86h-74l61 144h120zM217 -12q-96 0 -146 73t-50 181t50 180.5t146 72.5t146 -72.5t50 -180.5t-50 -181t-146 -73zM217 107q57 0 57 135q0 134 -57 134q-56 0 -56 -134q0 -135 56 -135zM292 726l-49 8q5 26 23.5 41t45.5 15q29 0 46.5 -17.5
t17.5 -51.5q0 -26 -14 -54h-51q16 23 16 51t-17 28q-15 0 -18 -20z" />
    <glyph glyph-name="uni1ED6" unicode="&#x1ed6;" horiz-adv-x="500" 
d="M370 678h-73l-51 43l-47 -43h-74l61 72h120zM250 -12q-112 0 -169 94t-57 251t57 251t169 94t169 -94t57 -251t-57 -251t-169 -94zM250 122q71 0 71 211t-71 211t-71 -211t71 -211zM291 757q-29 0 -54 16t-35 16q-25 0 -25 -29h-66q0 30 24.5 48.5t66.5 18.5q28 0 54 -16
t36 -16q24 0 24 29h66q0 -30 -24 -48.5t-67 -18.5z" />
    <glyph glyph-name="uni1ED7" unicode="&#x1ed7;" 
d="M340 523h-73l-51 86l-47 -86h-74l61 144h120zM217 -12q-96 0 -146 73t-50 181t50 180.5t146 72.5t146 -72.5t50 -180.5t-50 -181t-146 -73zM217 107q57 0 57 135q0 134 -57 134q-56 0 -56 -134q0 -135 56 -135zM259 682q-22 0 -38.5 16t-28.5 32t-22 16q-25 0 -25 -58
h-66q0 60 24.5 97t66.5 37q22 0 38.5 -16t28.5 -32t23 -16q24 0 24 58h66q0 -60 -24 -97t-67 -37z" />
    <glyph glyph-name="uni1ED8" unicode="&#x1ed8;" horiz-adv-x="500" 
d="M374 723h-73l-51 86l-47 -86h-74l61 144h120zM250 -12q-112 0 -169 94t-57 251t57 251t169 94t169 -94t57 -251t-57 -251t-169 -94zM250 122q71 0 71 211t-71 211t-71 -211t71 -211zM253 -198q-29 0 -50 20.5t-21 50.5q0 29 21 49.5t50 20.5t50 -20.5t21 -49.5
q0 -30 -21 -50.5t-50 -20.5z" />
    <glyph glyph-name="uni1ED9" unicode="&#x1ed9;" 
d="M340 556h-73l-51 86l-47 -86h-74l61 144h120zM217 -12q-96 0 -146 73t-50 181t50 180.5t146 72.5t146 -72.5t50 -180.5t-50 -181t-146 -73zM217 107q57 0 57 135q0 134 -57 134q-56 0 -56 -134q0 -135 56 -135zM217 -198q-29 0 -50 20.5t-21 50.5q0 29 21 49.5t50 20.5
t50 -20.5t21 -49.5q0 -30 -21 -50.5t-50 -20.5z" />
    <glyph glyph-name="uni1EDA" unicode="&#x1eda;" horiz-adv-x="500" 
d="M395 867l-109 -144h-84l80 144h113zM250 -12q-112 0 -169 94t-57 251t57 251t169 94q111 0 170 -96q26 26 32 52q-3 -3 -14 -3q-21 0 -35 15t-14 38q0 24 16.5 41t40.5 17q27 0 46 -20.5t19 -55.5q0 -76 -68 -131q33 -84 33 -202q0 -157 -57 -251t-169 -94zM250 122
q71 0 71 211t-71 211t-71 -211t71 -211z" />
    <glyph glyph-name="uni1EDB" unicode="&#x1edb;" 
d="M361 700l-109 -144h-84l80 144h113zM429 532q0 -69 -58 -122q42 -69 42 -168q0 -108 -50 -181t-146 -73t-146 73t-50 181t50 180.5t146 72.5q73 0 122 -46q25 25 31 51q-3 -3 -14 -3q-21 0 -35 15t-14 38q0 24 16.5 41t40.5 17q27 0 46 -20.5t19 -55.5zM217 107
q57 0 57 135q0 134 -57 134q-56 0 -56 -134q0 -135 56 -135z" />
    <glyph glyph-name="uni1EDC" unicode="&#x1edc;" horiz-adv-x="500" 
d="M250 -12q-112 0 -169 94t-57 251t57 251t169 94q111 0 170 -96q26 26 32 52q-3 -3 -14 -3q-21 0 -35 15t-14 38q0 24 16.5 41t40.5 17q27 0 46 -20.5t19 -55.5q0 -76 -68 -131q33 -84 33 -202q0 -157 -57 -251t-169 -94zM250 122q71 0 71 211t-71 211t-71 -211t71 -211z
M298 723h-84l-109 144h114z" />
    <glyph glyph-name="uni1EDD" unicode="&#x1edd;" 
d="M429 532q0 -69 -58 -122q42 -69 42 -168q0 -108 -50 -181t-146 -73t-146 73t-50 181t50 180.5t146 72.5q73 0 122 -46q25 25 31 51q-3 -3 -14 -3q-21 0 -35 15t-14 38q0 24 16.5 41t40.5 17q27 0 46 -20.5t19 -55.5zM217 107q57 0 57 135q0 134 -57 134q-56 0 -56 -134
q0 -135 56 -135zM265 556h-84l-109 144h114z" />
    <glyph glyph-name="uni1EDE" unicode="&#x1ede;" horiz-adv-x="500" 
d="M250 -12q-112 0 -169 94t-57 251t57 251t169 94q111 0 170 -96q26 26 32 52q-3 -3 -14 -3q-21 0 -35 15t-14 38q0 24 16.5 41t40.5 17q27 0 46 -20.5t19 -55.5q0 -76 -68 -131q33 -84 33 -202q0 -157 -57 -251t-169 -94zM250 122q71 0 71 211t-71 211t-71 -211t71 -211z
M233 756l-49 8q5 26 23.5 41t45.5 15q29 0 46.5 -17.5t17.5 -51.5q0 -26 -14 -54h-51q16 23 16 51t-17 28q-15 0 -18 -20z" />
    <glyph glyph-name="uni1EDF" unicode="&#x1edf;" 
d="M429 532q0 -69 -58 -122q42 -69 42 -168q0 -108 -50 -181t-146 -73t-146 73t-50 181t50 180.5t146 72.5q73 0 122 -46q25 25 31 51q-3 -3 -14 -3q-21 0 -35 15t-14 38q0 24 16.5 41t40.5 17q27 0 46 -20.5t19 -55.5zM217 107q57 0 57 135q0 134 -57 134q-56 0 -56 -134
q0 -135 56 -135zM199 586l-49 8q5 26 23.5 41t45.5 15q29 0 46.5 -17.5t17.5 -51.5q0 -26 -14 -54h-51q16 23 16 51t-17 28q-15 0 -18 -20z" />
    <glyph glyph-name="uni1EE0" unicode="&#x1ee0;" horiz-adv-x="500" 
d="M250 -12q-112 0 -169 94t-57 251t57 251t169 94q111 0 170 -96q26 26 32 52q-3 -3 -14 -3q-21 0 -35 15t-14 38q0 24 16.5 41t40.5 17q27 0 46 -20.5t19 -55.5q0 -76 -68 -131q33 -84 33 -202q0 -157 -57 -251t-169 -94zM250 122q71 0 71 211t-71 211t-71 -211t71 -211z
M296 721q-22 0 -38.5 16t-28.5 32t-22 16q-25 0 -25 -58h-66q0 60 24.5 97t66.5 37q22 0 38.5 -16t28.5 -32t23 -16q24 0 24 58h66q0 -60 -24 -97t-67 -37z" />
    <glyph glyph-name="uni1EE1" unicode="&#x1ee1;" 
d="M429 532q0 -69 -58 -122q42 -69 42 -168q0 -108 -50 -181t-146 -73t-146 73t-50 181t50 180.5t146 72.5q73 0 122 -46q25 25 31 51q-3 -3 -14 -3q-21 0 -35 15t-14 38q0 24 16.5 41t40.5 17q27 0 46 -20.5t19 -55.5zM217 107q57 0 57 135q0 134 -57 134q-56 0 -56 -134
q0 -135 56 -135zM237 554q-22 0 -38.5 16t-28.5 32t-22 16q-25 0 -25 -58h-66q0 60 24.5 97t66.5 37q22 0 38.5 -16t28.5 -32t23 -16q24 0 24 58h66q0 -60 -24 -97t-67 -37z" />
    <glyph glyph-name="uni1EE2" unicode="&#x1ee2;" horiz-adv-x="500" 
d="M250 -12q-112 0 -169 94t-57 251t57 251t169 94q111 0 170 -96q26 26 32 52q-3 -3 -14 -3q-21 0 -35 15t-14 38q0 24 16.5 41t40.5 17q27 0 46 -20.5t19 -55.5q0 -76 -68 -131q33 -84 33 -202q0 -157 -57 -251t-169 -94zM250 122q71 0 71 211t-71 211t-71 -211t71 -211z
M253 -198q-29 0 -50 20.5t-21 50.5q0 29 21 49.5t50 20.5t50 -20.5t21 -49.5q0 -30 -21 -50.5t-50 -20.5z" />
    <glyph glyph-name="uni1EE3" unicode="&#x1ee3;" 
d="M429 532q0 -69 -58 -122q42 -69 42 -168q0 -108 -50 -181t-146 -73t-146 73t-50 181t50 180.5t146 72.5q73 0 122 -46q25 25 31 51q-3 -3 -14 -3q-21 0 -35 15t-14 38q0 24 16.5 41t40.5 17q27 0 46 -20.5t19 -55.5zM217 107q57 0 57 135q0 134 -57 134q-56 0 -56 -134
q0 -135 56 -135zM218 -198q-29 0 -50 20.5t-21 50.5q0 29 21 49.5t50 20.5t50 -20.5t21 -49.5q0 -30 -21 -50.5t-50 -20.5z" />
    <glyph glyph-name="uni1EE4" unicode="&#x1ee4;" horiz-adv-x="508" 
d="M254 -12q-86 0 -146.5 55t-60.5 160v464h151v-472q0 -75 56 -75t56 75v472h152v-463q0 -106 -60.5 -161t-147.5 -55zM256 -198q-29 0 -50 20.5t-21 50.5q0 29 21 49.5t50 20.5t50 -20.5t21 -49.5q0 -30 -21 -50.5t-50 -20.5z" />
    <glyph glyph-name="uni1EE5" unicode="&#x1ee5;" horiz-adv-x="441" 
d="M401 0h-136v58q-15 -28 -49 -49t-68 -21q-108 0 -108 111v384h136v-332q0 -44 33 -44q18 0 33 15.5t23 37.5v323h136v-483zM221 -198q-29 0 -50 20.5t-21 50.5q0 29 21 49.5t50 20.5t50 -20.5t21 -49.5q0 -30 -21 -50.5t-50 -20.5z" />
    <glyph glyph-name="uni1EE6" unicode="&#x1ee6;" horiz-adv-x="508" 
d="M254 -12q-86 0 -146.5 55t-60.5 160v464h151v-472q0 -75 56 -75t56 75v472h152v-463q0 -106 -60.5 -161t-147.5 -55zM237 756l-49 8q5 26 23.5 41t45.5 15q29 0 46.5 -17.5t17.5 -51.5q0 -26 -14 -54h-51q16 23 16 51t-17 28q-15 0 -18 -20z" />
    <glyph glyph-name="uni1EE7" unicode="&#x1ee7;" horiz-adv-x="441" 
d="M401 0h-136v58q-15 -28 -49 -49t-68 -21q-108 0 -108 111v384h136v-332q0 -44 33 -44q18 0 33 15.5t23 37.5v323h136v-483zM203 586l-49 8q5 26 23.5 41t45.5 15q29 0 46.5 -17.5t17.5 -51.5q0 -26 -14 -54h-51q16 23 16 51t-17 28q-15 0 -18 -20z" />
    <glyph glyph-name="uni1EE8" unicode="&#x1ee8;" horiz-adv-x="508" 
d="M399 867l-109 -144h-84l80 144h113zM558 727q0 -43 -24.5 -83t-71.5 -67v-373q0 -106 -60.5 -161t-147.5 -55q-86 0 -146.5 55t-60.5 160v464h151v-472q0 -75 56 -75t56 75v472h152v-30q31 29 37 57q-4 -2 -14 -2q-21 0 -35 14.5t-14 37.5q0 24 16.5 41t40.5 17
q27 0 46 -20.5t19 -54.5z" />
    <glyph glyph-name="uni1EE9" unicode="&#x1ee9;" horiz-adv-x="441" 
d="M365 700l-109 -144h-84l80 144h113zM401 0h-136v58q-15 -28 -49 -49t-68 -21q-108 0 -108 111v384h136v-332q0 -44 33 -44q18 0 33 15.5t23 37.5v323h125q10 14 15 31q-5 -3 -15 -3q-21 0 -35 15t-14 38q0 24 16.5 41t40.5 17q27 0 46 -20.5t19 -54.5q0 -73 -62 -126
v-421z" />
    <glyph glyph-name="uni1EEA" unicode="&#x1eea;" horiz-adv-x="508" 
d="M302 723h-84l-109 144h114zM558 727q0 -43 -24.5 -83t-71.5 -67v-373q0 -106 -60.5 -161t-147.5 -55q-86 0 -146.5 55t-60.5 160v464h151v-472q0 -75 56 -75t56 75v472h152v-30q31 29 37 57q-4 -2 -14 -2q-21 0 -35 14.5t-14 37.5q0 24 16.5 41t40.5 17q27 0 46 -20.5
t19 -54.5z" />
    <glyph glyph-name="uni1EEB" unicode="&#x1eeb;" horiz-adv-x="441" 
d="M268 556h-84l-109 144h114zM401 0h-136v58q-15 -28 -49 -49t-68 -21q-108 0 -108 111v384h136v-332q0 -44 33 -44q18 0 33 15.5t23 37.5v323h125q10 14 15 31q-5 -3 -15 -3q-21 0 -35 15t-14 38q0 24 16.5 41t40.5 17q27 0 46 -20.5t19 -54.5q0 -73 -62 -126v-421z" />
    <glyph glyph-name="uni1EEC" unicode="&#x1eec;" horiz-adv-x="508" 
d="M237 756l-49 8q5 26 23.5 41t45.5 15q29 0 46.5 -17.5t17.5 -51.5q0 -26 -14 -54h-51q16 23 16 51t-17 28q-15 0 -18 -20zM558 727q0 -43 -24.5 -83t-71.5 -67v-373q0 -106 -60.5 -161t-147.5 -55q-86 0 -146.5 55t-60.5 160v464h151v-472q0 -75 56 -75t56 75v472h152
v-30q31 29 37 57q-4 -2 -14 -2q-21 0 -35 14.5t-14 37.5q0 24 16.5 41t40.5 17q27 0 46 -20.5t19 -54.5z" />
    <glyph glyph-name="uni1EED" unicode="&#x1eed;" horiz-adv-x="441" 
d="M203 586l-49 8q5 26 23.5 41t45.5 15q29 0 46.5 -17.5t17.5 -51.5q0 -26 -14 -54h-51q16 23 16 51t-17 28q-15 0 -18 -20zM401 0h-136v58q-15 -28 -49 -49t-68 -21q-108 0 -108 111v384h136v-332q0 -44 33 -44q18 0 33 15.5t23 37.5v323h125q10 14 15 31q-5 -3 -15 -3
q-21 0 -35 15t-14 38q0 24 16.5 41t40.5 17q27 0 46 -20.5t19 -54.5q0 -73 -62 -126v-421z" />
    <glyph glyph-name="uni1EEE" unicode="&#x1eee;" horiz-adv-x="508" 
d="M558 727q0 -43 -24.5 -83t-71.5 -67v-373q0 -106 -60.5 -161t-147.5 -55q-86 0 -146.5 55t-60.5 160v464h151v-472q0 -75 56 -75t56 75v472h152v-30q31 29 37 57q-4 -2 -14 -2q-21 0 -35 14.5t-14 37.5q0 24 16.5 41t40.5 17q27 0 46 -20.5t19 -54.5zM298 721
q-22 0 -38.5 16t-28.5 32t-22 16q-25 0 -25 -58h-66q0 60 24.5 97t66.5 37q22 0 38.5 -16t28.5 -32t23 -16q24 0 24 58h66q0 -60 -24 -97t-67 -37z" />
    <glyph glyph-name="uni1EEF" unicode="&#x1eef;" horiz-adv-x="441" 
d="M401 0h-136v58q-15 -28 -49 -49t-68 -21q-108 0 -108 111v384h136v-332q0 -44 33 -44q18 0 33 15.5t23 37.5v323h125q10 14 15 31q-5 -3 -15 -3q-21 0 -35 15t-14 38q0 24 16.5 41t40.5 17q27 0 46 -20.5t19 -54.5q0 -73 -62 -126v-421zM254 554q-22 0 -38.5 16t-28.5 32
t-22 16q-25 0 -25 -58h-66q0 60 24.5 97t66.5 37q22 0 38.5 -16t28.5 -32t23 -16q24 0 24 58h66q0 -60 -24 -97t-67 -37z" />
    <glyph glyph-name="uni1EF0" unicode="&#x1ef0;" horiz-adv-x="508" 
d="M256 -198q-29 0 -50 20.5t-21 50.5q0 29 21 49.5t50 20.5t50 -20.5t21 -49.5q0 -30 -21 -50.5t-50 -20.5zM558 727q0 -43 -24.5 -83t-71.5 -67v-373q0 -106 -60.5 -161t-147.5 -55q-86 0 -146.5 55t-60.5 160v464h151v-472q0 -75 56 -75t56 75v472h152v-30q31 29 37 57
q-4 -2 -14 -2q-21 0 -35 14.5t-14 37.5q0 24 16.5 41t40.5 17q27 0 46 -20.5t19 -54.5z" />
    <glyph glyph-name="uni1EF1" unicode="&#x1ef1;" horiz-adv-x="441" 
d="M221 -198q-29 0 -50 20.5t-21 50.5q0 29 21 49.5t50 20.5t50 -20.5t21 -49.5q0 -30 -21 -50.5t-50 -20.5zM401 0h-136v58q-15 -28 -49 -49t-68 -21q-108 0 -108 111v384h136v-332q0 -44 33 -44q18 0 33 15.5t23 37.5v323h125q10 14 15 31q-5 -3 -15 -3q-21 0 -35 15
t-14 38q0 24 16.5 41t40.5 17q27 0 46 -20.5t19 -54.5q0 -73 -62 -126v-421z" />
    <glyph glyph-name="Ygrave" unicode="&#x1ef2;" horiz-adv-x="460" 
d="M306 0h-152v273l-160 394h161l75 -251l76 251h159l-159 -394v-273zM278 723h-84l-109 144h114z" />
    <glyph glyph-name="ygrave" unicode="&#x1ef3;" horiz-adv-x="408" 
d="M44 -188l19 117q7 -6 21 -6q30 0 39 30l11 37l-136 493h143l62 -312l64 312h143l-155 -558q-20 -69 -54.5 -95t-96.5 -26q-42 0 -60 8zM251 556h-84l-109 144h114z" />
    <glyph glyph-name="thinspace" unicode="&#x2009;" horiz-adv-x="32" 
 />
    <glyph glyph-name="endash" unicode="&#x2013;" horiz-adv-x="460" 
d="M430 185h-400v114h400v-114z" />
    <glyph glyph-name="emdash" unicode="&#x2014;" horiz-adv-x="640" 
d="M610 185h-580v114h580v-114z" />
    <glyph glyph-name="afii00208" unicode="&#x2015;" horiz-adv-x="460" 
d="M430 185h-400v114h400v-114z" />
    <glyph glyph-name="quoteleft" unicode="&#x2018;" horiz-adv-x="262" 
d="M39 488q0 56 29 105.5t78 84.5l58 -47q-25 -13 -49.5 -41t-30.5 -54q9 3 20 3q30 0 50.5 -21t20.5 -54q0 -34 -24.5 -58.5t-58.5 -24.5q-39 0 -66 29t-27 78z" />
    <glyph glyph-name="quoteright" unicode="&#x2019;" horiz-adv-x="262" 
d="M220 570q0 -57 -28 -106.5t-78 -83.5l-58 47q25 13 49.5 41t30.5 54q-12 -3 -20 -3q-30 0 -50.5 21t-20.5 54q0 34 24.5 58.5t58.5 24.5q38 0 65 -29t27 -78z" />
    <glyph glyph-name="quotesinglbase" unicode="&#x201a;" horiz-adv-x="259" 
d="M220 52q0 -116 -107 -190l-57 46q25 14 48.5 42t30.5 54q-6 -4 -20 -4q-30 0 -50 21t-20 54q0 34 24 58.5t58 24.5q39 0 66 -29t27 -77z" />
    <glyph glyph-name="quotereversed" unicode="&#x201b;" horiz-adv-x="262" 
d="M42 570q0 49 27 78t66 29q33 0 57.5 -24.5t24.5 -58.5q0 -33 -20.5 -54t-50.5 -21q-11 0 -20 3q7 -26 30.5 -54t48.5 -41l-57 -47q-106 75 -106 190z" />
    <glyph glyph-name="quotedblleft" unicode="&#x201c;" horiz-adv-x="472" 
d="M42 488q0 115 106 190l57 -47q-25 -13 -48.5 -41t-30.5 -54q9 3 20 3q30 0 50.5 -21t20.5 -54q0 -34 -24.5 -58.5t-57.5 -24.5q-39 0 -66 29t-27 78zM252 488q0 115 106 190l58 -47q-25 -13 -49.5 -41t-30.5 -54q12 3 21 3q30 0 50 -21t20 -54q0 -34 -24 -58.5t-58 -24.5
q-39 0 -66 29t-27 78z" />
    <glyph glyph-name="quotedblright" unicode="&#x201d;" horiz-adv-x="472" 
d="M430 570q0 -115 -106 -190l-58 47q25 13 49.5 41t30.5 54q-9 -3 -20 -3q-30 0 -50.5 21t-20.5 54q0 34 24.5 58.5t58.5 24.5q38 0 65 -29t27 -78zM220 570q0 -57 -28 -106.5t-78 -83.5l-58 47q25 13 49.5 41t30.5 54q-12 -3 -20 -3q-30 0 -50.5 21t-20.5 54
q0 34 24.5 58.5t58.5 24.5q38 0 65 -29t27 -78z" />
    <glyph glyph-name="quotedblbase" unicode="&#x201e;" horiz-adv-x="469" 
d="M220 52q0 -116 -107 -190l-57 46q25 14 48.5 42t30.5 54q-6 -4 -20 -4q-30 0 -50 21t-20 54q0 34 24 58.5t58 24.5q39 0 66 -29t27 -77zM429 52q0 -115 -106 -190l-57 46q25 14 48.5 42t30.5 54q-6 -4 -20 -4q-30 0 -50.5 21t-20.5 54q0 34 24.5 58.5t58.5 24.5
q38 0 65 -29t27 -77z" />
    <glyph glyph-name="dagger" unicode="&#x2020;" horiz-adv-x="279" 
d="M260 521l-89 4l4 -198h-72l5 198l-89 -4v65l89 -3l-5 94h72l-4 -94l89 3v-65z" />
    <glyph glyph-name="daggerdbl" unicode="&#x2021;" horiz-adv-x="279" 
d="M260 586v-65l-89 4v-191l89 4v-65l-89 3l4 -96h-72l4 96l-88 -3v65l88 -4v191l-88 -4v65l88 -3l-4 94h72l-4 -94z" />
    <glyph glyph-name="bullet" unicode="&#x2022;" horiz-adv-x="358" 
d="M300 242q0 -50 -35 -84.5t-85 -34.5t-85 34.5t-35 84.5t35 85t85 35t85 -35t35 -85z" />
    <glyph glyph-name="ellipsis" unicode="&#x2026;" horiz-adv-x="777" 
d="M215 73q0 -35 -25.5 -60t-60.5 -25q-34 0 -59 25t-25 60t24.5 60t59.5 25t60.5 -25t25.5 -60zM474 73q0 -35 -25 -60t-60 -25t-60 25t-25 60t25 60t60 25t60 -25t25 -60zM733 73q0 -35 -25 -60t-60 -25q-34 0 -59.5 25t-25.5 60t25 60t60 25t60 -25t25 -60z" />
    <glyph glyph-name="perthousand" unicode="&#x2030;" horiz-adv-x="880" 
d="M284 510q0 -71 -36.5 -118.5t-96.5 -47.5q-61 0 -98 47.5t-37 118.5q0 72 37 119.5t98 47.5q60 0 96.5 -47.5t36.5 -119.5zM467 667l-282 -667h-55l281 667h56zM579 153q0 -71 -36.5 -118t-96.5 -47q-61 0 -98 47t-37 118q0 72 37 120t98 48q60 0 96.5 -48t36.5 -120z
M198 510q0 40 -12.5 62.5t-34.5 22.5t-34.5 -22.5t-12.5 -62.5q0 -39 12.5 -61t34.5 -22t34.5 22t12.5 61zM493 153q0 85 -47 85t-47 -85q0 -38 12.5 -60.5t34.5 -22.5t34.5 22.5t12.5 60.5zM864 153q0 -71 -37 -118t-97 -47t-97 47t-37 118q0 72 37 120t97 48t97 -48
t37 -120zM777 153q0 85 -47 85t-47 -85q0 -38 12.5 -60.5t34.5 -22.5t34.5 22.5t12.5 60.5z" />
    <glyph glyph-name="guilsinglleft" unicode="&#x2039;" horiz-adv-x="252" 
d="M222 63h-102l-90 180l90 177h102l-90 -177z" />
    <glyph glyph-name="guilsinglright" unicode="&#x203a;" horiz-adv-x="252" 
d="M222 243l-90 -180h-102l90 180l-90 177h102z" />
    <glyph glyph-name="uni203E" unicode="&#x203e;" horiz-adv-x="263" 
d="M263 560h-263v76h263v-76z" />
    <glyph glyph-name="fraction" unicode="&#x2044;" horiz-adv-x="142" 
d="M240 667l-283 -667h-55l282 667h56z" />
    <glyph glyph-name="zerosuperior" unicode="&#x2070;" horiz-adv-x="308" 
d="M296 621q0 -87 -37 -147t-105 -60t-105 60t-37 147t37 146.5t105 59.5t105 -59.5t37 -146.5zM192 621q0 64 -7.5 95t-30.5 31q-24 0 -31.5 -31t-7.5 -95t7.5 -95.5t31.5 -31.5q23 0 30.5 31.5t7.5 95.5z" />
    <glyph glyph-name="foursuperior" unicode="&#x2074;" horiz-adv-x="308" 
d="M296 504h-32v-83h-101v83h-151v78l130 239h122v-237h32v-80zM163 584v129l-67 -129h67z" />
    <glyph glyph-name="fivesuperior" unicode="&#x2075;" horiz-adv-x="308" 
d="M293 554q0 -63 -39 -101.5t-106 -38.5q-92 0 -137 64l61 62q30 -46 70 -46q22 0 35 16.5t13 41.5q0 56 -43 56q-30 0 -52 -38l-73 23v228h248v-80h-148v-91q26 31 66 31q44 0 74.5 -33.5t30.5 -93.5z" />
    <glyph glyph-name="sixsuperior" unicode="&#x2076;" horiz-adv-x="308" 
d="M294 554q0 -63 -37 -101.5t-94 -38.5q-75 0 -112.5 57.5t-37.5 148.5q0 96 44.5 151.5t119.5 55.5q65 0 101 -38l-48 -70q-21 28 -51 28q-27 0 -45.5 -28t-18.5 -73v-6q26 48 78 48q42 0 71.5 -36.5t29.5 -97.5zM192 550q0 30 -11 44.5t-27 14.5q-24 0 -40 -32
q4 -83 41 -83q18 0 27.5 17t9.5 39z" />
    <glyph glyph-name="sevensuperior" unicode="&#x2077;" horiz-adv-x="283" 
d="M272 752l-114 -331h-97l117 320h-166v80h260v-69z" />
    <glyph glyph-name="eightsuperior" unicode="&#x2078;" horiz-adv-x="308" 
d="M294 525q0 -53 -37.5 -82t-102.5 -29q-67 0 -104 28.5t-37 82.5q0 34 21.5 63t53.5 39q-30 9 -49.5 34.5t-19.5 59.5q0 53 39.5 79.5t95.5 26.5q55 0 94.5 -26.5t39.5 -79.5q0 -34 -19.5 -59.5t-49.5 -34.5q31 -10 53 -39t22 -63zM190 706q0 44 -36 44q-37 0 -37 -44
q0 -33 37 -47q36 15 36 47zM194 536q0 23 -14.5 37.5t-25.5 17.5q-12 -2 -26.5 -17t-14.5 -39q0 -44 41 -44q17 0 28.5 11t11.5 34z" />
    <glyph glyph-name="ninesuperior" unicode="&#x2079;" horiz-adv-x="308" 
d="M13 687q0 63 37.5 101.5t94.5 38.5q75 0 112.5 -57.5t37.5 -148.5q0 -96 -44.5 -151.5t-119.5 -55.5q-65 0 -101 39l48 69q19 -28 51 -28q26 0 45 28.5t19 73.5v5q-26 -48 -79 -48q-42 0 -71.5 36.5t-29.5 97.5zM115 691q0 -30 11.5 -44.5t26.5 -14.5q24 0 40 33
q-2 82 -40 82q-18 0 -28 -17t-10 -39z" />
    <glyph glyph-name="parenleftsuperior" unicode="&#x207d;" horiz-adv-x="175" 
d="M158 381l-54 -25q-77 123 -77 265t77 265l54 -24q-48 -108 -48 -241q0 -134 48 -240z" />
    <glyph glyph-name="parenrightsuperior" unicode="&#x207e;" horiz-adv-x="176" 
d="M148 621q0 -141 -76 -265l-56 25q49 106 49 240q0 133 -49 241l56 24q76 -124 76 -265z" />
    <glyph glyph-name="nsuperior" unicode="&#x207f;" horiz-adv-x="323" 
d="M289 326h-96v210q0 30 -25 30q-22 0 -37 -32v-208h-98v314h98v-38q11 18 34 32t47 14q77 0 77 -79v-243z" />
    <glyph glyph-name="zeroinferior" unicode="&#x2080;" horiz-adv-x="308" 
d="M296 54q0 -87 -37 -147t-105 -60t-105 60t-37 147t37 146.5t105 59.5t105 -59.5t37 -146.5zM192 54q0 64 -7.5 95t-30.5 31q-24 0 -31.5 -31t-7.5 -95t7.5 -95.5t31.5 -31.5q23 0 30.5 31.5t7.5 95.5z" />
    <glyph glyph-name="oneinferior" unicode="&#x2081;" horiz-adv-x="259" 
d="M220 -146h-102v271l-55 -56l-57 60l127 125h87v-400z" />
    <glyph glyph-name="twoinferior" unicode="&#x2082;" horiz-adv-x="308" 
d="M294 -146h-268v74q107 104 136.5 140.5t29.5 66.5q0 20 -12.5 32.5t-33.5 12.5q-42 0 -73 -47l-59 60q53 67 138 67q64 0 102 -32t38 -89q0 -41 -30 -83.5t-109 -121.5h141v-80z" />
    <glyph glyph-name="threeinferior" unicode="&#x2083;" horiz-adv-x="308" 
d="M293 -35q0 -54 -39 -86t-102 -32q-96 0 -140 64l63 61q30 -45 73 -45q23 0 35 13t12 32q0 46 -53 46q-24 0 -30 -1v79q5 -1 26 -1q52 0 52 42q0 43 -45 43q-43 0 -68 -40l-61 55q48 65 136 65q62 0 98.5 -28t36.5 -81q0 -32 -21 -58.5t-52 -32.5q34 -5 56.5 -32t22.5 -63
z" />
    <glyph glyph-name="fourinferior" unicode="&#x2084;" horiz-adv-x="308" 
d="M296 -63h-32v-83h-101v83h-151v78l130 239h122v-237h32v-80zM163 17v129l-67 -129h67z" />
    <glyph glyph-name="fiveinferior" unicode="&#x2085;" horiz-adv-x="308" 
d="M293 -13q0 -63 -39 -101.5t-106 -38.5q-92 0 -137 64l61 62q30 -46 70 -46q22 0 35 16.5t13 41.5q0 56 -43 56q-30 0 -52 -38l-73 23v228h248v-80h-148v-91q26 31 66 31q44 0 74.5 -33.5t30.5 -93.5z" />
    <glyph glyph-name="sixinferior" unicode="&#x2086;" horiz-adv-x="308" 
d="M294 -13q0 -63 -37 -101.5t-94 -38.5q-75 0 -112.5 57.5t-37.5 148.5q0 96 44.5 151.5t119.5 55.5q65 0 101 -38l-48 -70q-21 28 -51 28q-27 0 -45.5 -28t-18.5 -73v-6q26 48 78 48q42 0 71.5 -36.5t29.5 -97.5zM192 -17q0 30 -11 44.5t-27 14.5q-24 0 -40 -32
q4 -83 41 -83q18 0 27.5 17t9.5 39z" />
    <glyph glyph-name="seveninferior" unicode="&#x2087;" horiz-adv-x="283" 
d="M272 185l-114 -331h-97l117 320h-166v80h260v-69z" />
    <glyph glyph-name="eightinferior" unicode="&#x2088;" horiz-adv-x="308" 
d="M294 -42q0 -53 -37.5 -82t-102.5 -29q-67 0 -104 28.5t-37 82.5q0 34 21.5 63t53.5 39q-30 9 -49.5 34.5t-19.5 59.5q0 53 39.5 79.5t95.5 26.5q55 0 94.5 -26.5t39.5 -79.5q0 -34 -19.5 -59.5t-49.5 -34.5q31 -10 53 -39t22 -63zM190 139q0 44 -36 44q-37 0 -37 -44
q0 -33 37 -47q36 15 36 47zM194 -31q0 23 -14.5 37.5t-25.5 17.5q-12 -2 -26.5 -17t-14.5 -39q0 -44 41 -44q17 0 28.5 11t11.5 34z" />
    <glyph glyph-name="nineinferior" unicode="&#x2089;" horiz-adv-x="308" 
d="M13 120q0 63 37.5 101.5t94.5 38.5q75 0 112.5 -57.5t37.5 -148.5q0 -96 -44.5 -151.5t-119.5 -55.5q-65 0 -101 39l48 69q19 -28 51 -28q26 0 45 28.5t19 73.5v5q-26 -48 -79 -48q-42 0 -71.5 36.5t-29.5 97.5zM115 124q0 -30 11.5 -44.5t26.5 -14.5q24 0 40 33
q-2 82 -40 82q-18 0 -28 -17t-10 -39z" />
    <glyph glyph-name="parenleftinferior" unicode="&#x208d;" horiz-adv-x="175" 
d="M158 -186l-54 -25q-77 123 -77 265t77 265l54 -24q-48 -108 -48 -241q0 -134 48 -240z" />
    <glyph glyph-name="parenrightinferior" unicode="&#x208e;" horiz-adv-x="176" 
d="M148 54q0 -142 -76 -265l-56 25q49 106 49 240q0 133 -49 241l56 24q76 -123 76 -265z" />
    <glyph glyph-name="colonmonetary" unicode="&#x20a1;" horiz-adv-x="438" 
d="M419 768l-34 -161q25 -35 45 -101l-120 -44q-9 42 -23 62t-39 20q-72 0 -72 -211t72 -211q51 0 63 95l120 -43q-8 -34 -19 -61t-30 -56.5t-50.5 -47.5t-71.5 -20l-18 -89h-73l20 96q-29 10 -35 13l-22 -109h-72l32 161q-71 90 -71 272q0 147 49 238.5t147 104.5l19 92h73
l-19 -95q22 -5 34 -11l22 106h73z" />
    <glyph glyph-name="frenchfranc" unicode="&#x20a3;" horiz-adv-x="399" 
d="M210 0h-151v105h-46v76h46v486h314v-132h-163v-130h156v-132h-156v-92h77v-76h-77v-105z" />
    <glyph glyph-name="lira" unicode="&#x20a4;" horiz-adv-x="447" 
d="M30 335v67h24q-10 35 -10 72q0 86 62.5 144.5t142.5 58.5q69 0 118 -36t61 -104l-122 -50q-11 68 -48 68q-21 0 -35.5 -22.5t-14.5 -60.5t10 -70h84v-67h-60q7 -20 10 -51h50v-68h-55q-15 -52 -46 -79q19 8 37 8q22 0 49 -11.5t45 -11.5q46 0 69 27l38 -119
q-15 -17 -49 -29.5t-71 -12.5q-40 0 -81.5 21t-62.5 21q-41 0 -89 -37l-41 102q33 22 53.5 54.5t20.5 65.5v1h-89v68h75q-11 26 -24 51h-51z" />
    <glyph glyph-name="uni20A6" unicode="&#x20a6;" horiz-adv-x="531" 
d="M473 0h-141l-122 315v-315h-151v230h-46v76h46v61h-46v77h46v223h151l112 -300v300h151v-223h42v-77h-42v-61h42v-76h-42v-230z" />
    <glyph glyph-name="peseta" unicode="&#x20a7;" horiz-adv-x="511" 
d="M501 405h-42q-10 -80 -61 -132t-138 -52h-50v-221h-152v405h-45v78h45v184h202q87 0 138 -52t61 -132h42v-78zM243 353q45 0 60 52h-93v-52h33zM210 535v-52h93q-15 52 -60 52h-33z" />
    <glyph glyph-name="rupee" unicode="&#x20a8;" horiz-adv-x="816" 
d="M630 -12q-111 0 -170 64l54 93q49 -51 103 -51q25 0 40 11t15 30q0 17 -20 29.5t-48.5 24t-57 28t-48.5 50.5t-20 82q0 62 43.5 104t123.5 42q88 0 154 -59l-53 -91q-14 17 -41.5 30.5t-56.5 13.5q-19 0 -32 -10t-13 -25q0 -16 20.5 -28t49.5 -24t58 -29t49.5 -51
t20.5 -82q0 -67 -47.5 -109.5t-123.5 -42.5zM457 0h-162l-65 234h-32v-234h-151v667h209q85 0 140 -59.5t55 -151.5q0 -133 -83 -186zM231 366q31 0 48.5 23t17.5 61q0 39 -17.5 62t-48.5 23h-33v-169h33z" />
    <glyph glyph-name="uni20A9" unicode="&#x20a9;" horiz-adv-x="686" 
d="M542 0h-151l-29 230h-39l-28 -230h-151l-41 230h-77v76h64l-11 61h-53v77h39l-39 223h153l26 -223h47l33 223h116l33 -223h47l26 223h154l-40 -223h35v-77h-49l-11 -61h60v-76h-73zM445 367l16 -104l12 104h-28zM214 367l12 -104l15 104h-27zM343 388l-10 -82h20z" />
    <glyph glyph-name="afii57636" unicode="&#x20aa;" horiz-adv-x="591" 
d="M364 0h-187v392h98v-297h89q88 0 88 80v375h99v-358q0 -100 -52 -146t-135 -46zM227 550q83 0 135.5 -46t52.5 -146v-201h-99v218q0 80 -89 80h-89v-455h-98v550h187z" />
    <glyph glyph-name="dong" unicode="&#x20ab;" horiz-adv-x="452" 
d="M365 -175h-263v76h263v-76zM402 0h-135v57q-33 -69 -97 -69q-72 0 -110.5 67t-38.5 187q0 117 38.5 185t110.5 68q29 0 56 -17t41 -52v102h-119v76h119v63h135v-63h34v-76h-34v-528zM217 107q15 0 28.5 13.5t21.5 34.5v175q-8 20 -21.5 33t-28.5 13q-57 0 -57 -134
q0 -135 57 -135z" />
    <glyph glyph-name="Euro" unicode="&#x20ac;" horiz-adv-x="467" 
d="M292 363h-278v83h278v-83zM292 223h-278v83h278v-83zM270 -12q-113 0 -170 93.5t-57 251.5t57 251.5t170 93.5q35 0 63 -11t46.5 -27t33.5 -41t23 -45.5t16 -47.5l-120 -44q-9 42 -23 62t-39 20q-72 0 -72 -211t72 -211q51 0 63 95l120 -43q-9 -35 -20 -63t-31.5 -58.5
t-54 -47.5t-77.5 -17z" />
    <glyph glyph-name="afii61289" unicode="&#x2113;" horiz-adv-x="458" 
d="M180 212v-82q0 -41 24 -41q16 0 25 11l24 -89q-26 -23 -86 -23q-62 0 -92.5 30.5t-30.5 102.5v366q0 86 57 138t152 52q77 0 135.5 -43t58.5 -111q0 -38 -16.5 -70t-65.5 -76zM180 358l87 79q18 17 27 27.5t16.5 26t7.5 32.5q0 23 -18.5 38t-46.5 15q-34 0 -53.5 -22.5
t-19.5 -66.5v-129z" />
    <glyph glyph-name="afii61352" unicode="&#x2116;" horiz-adv-x="825" 
d="M668 350q-66 0 -102 47.5t-36 117.5t36 117.5t102 47.5q67 0 103.5 -47.5t36.5 -117.5t-36.5 -117.5t-103.5 -47.5zM668 428q23 0 31 21.5t8 65.5t-8 65t-31 21q-38 0 -38 -86q0 -87 38 -87zM461 0h-141l-122 315v-315h-151v667h151l112 -300v300h151v-667z" />
    <glyph glyph-name="published" unicode="&#x2117;" horiz-adv-x="778" 
d="M735 334q0 -142 -101.5 -243.5t-244.5 -101.5t-244 101.5t-101 243.5t101 243.5t244 101.5t244.5 -101.5t101.5 -243.5zM696 334q0 126 -90.5 216.5t-216.5 90.5t-216 -90.5t-90 -216.5t90 -216.5t216 -90.5t216.5 90.5t90.5 216.5zM556 415q0 -52 -37.5 -85t-90.5 -33
h-112v-166h-46v405h158q52 0 90 -33.5t38 -87.5zM507 415q0 35 -23 57t-56 22h-112v-154h112q32 0 55.5 21.5t23.5 53.5z" />
    <glyph glyph-name="servicemark" unicode="&#x2120;" horiz-adv-x="374" 
d="M337 447h-28v182l-55 -182h-8l-55 182v-182h-28v220h43l44 -157l44 157h43v-220zM122 501q0 -26 -15.5 -43t-40.5 -17q-32 0 -51 21l14 25q16 -19 34 -19q12 0 21 9t9 24q0 17 -11.5 30.5t-24.5 22t-24.5 25t-11.5 37.5q0 25 15 41t39 16q25 0 43 -16l-12 -24
q-12 13 -29 13q-11 0 -18.5 -8t-7.5 -22t11 -26.5t24.5 -21.5t24.5 -26.5t11 -40.5z" />
    <glyph glyph-name="trademark" unicode="&#x2122;" horiz-adv-x="374" 
d="M339 447h-28v182l-55 -182h-8l-55 182v-182h-28v220h43l44 -157l44 157h43v-220zM129 641h-42v-194h-28v194h-42v26h112v-26z" />
    <glyph glyph-name="Omega" unicode="&#x2126;" horiz-adv-x="494" 
d="M32 132h78q-88 86 -88 236q0 143 57 226.5t168 83.5t168.5 -83.5t57.5 -226.5q0 -149 -91 -236h80v-132h-189v132q20 20 32.5 79.5t12.5 121.5q0 210 -71 210q-72 0 -72 -210q0 -62 13 -121t33 -80v-132h-189v132z" />
    <glyph glyph-name="estimated" unicode="&#x212e;" horiz-adv-x="842" 
d="M811 324h-632q-5 0 -5 -5v-190q0 -14 9 -23q98 -103 240 -103q151 0 250 115h57q-54 -63 -135 -99.5t-174 -36.5q-161 0 -275.5 103t-114.5 248t114.5 248t275.5 103t275.5 -103t114.5 -248v-9zM668 349v191q0 14 -10 24q-97 99 -235 99q-140 0 -239 -102
q-10 -10 -10 -24v-188q0 -6 5 -6h485q4 0 4 6z" />
    <glyph glyph-name="onethird" unicode="&#x2153;" horiz-adv-x="721" 
d="M220 267h-102v271l-55 -56l-57 60l127 125h87v-400zM512 667l-283 -667h-55l282 667h56zM707 111q0 -54 -39 -86t-102 -32q-96 0 -140 64l63 61q30 -45 73 -45q23 0 35 13t12 32q0 46 -53 46q-24 0 -30 -1v79q5 -1 26 -1q52 0 52 42q0 43 -45 43q-43 0 -68 -40l-61 55
q48 65 136 65q62 0 98.5 -28t36.5 -81q0 -32 -21 -58.5t-52 -32.5q34 -5 56.5 -32t22.5 -63z" />
    <glyph glyph-name="twothirds" unicode="&#x2154;" horiz-adv-x="757" 
d="M294 267h-268v74q107 104 136.5 140.5t29.5 66.5q0 20 -12.5 32.5t-33.5 12.5q-42 0 -73 -47l-59 60q53 67 138 67q64 0 102 -32t38 -89q0 -41 -30 -83.5t-109 -121.5h141v-80zM548 667l-283 -667h-55l282 667h56zM743 111q0 -54 -39 -86t-102 -32q-96 0 -140 64l63 61
q30 -45 73 -45q23 0 35 13t12 32q0 46 -53 46q-24 0 -30 -1v79q5 -1 26 -1q52 0 52 42q0 43 -45 43q-43 0 -68 -40l-61 55q48 65 136 65q62 0 98.5 -28t36.5 -81q0 -32 -21 -58.5t-52 -32.5q34 -5 56.5 -32t22.5 -63z" />
    <glyph glyph-name="oneeighth" unicode="&#x215b;" horiz-adv-x="721" 
d="M220 267h-102v271l-55 -56l-57 60l127 125h87v-400zM708 104q0 -53 -37.5 -82t-102.5 -29q-67 0 -104 28.5t-37 82.5q0 34 21.5 63t53.5 39q-30 9 -49.5 34.5t-19.5 59.5q0 53 39.5 79.5t95.5 26.5q55 0 94.5 -26.5t39.5 -79.5q0 -34 -19.5 -59.5t-49.5 -34.5
q31 -10 53 -39t22 -63zM604 285q0 44 -36 44q-37 0 -37 -44q0 -33 37 -47q36 15 36 47zM608 115q0 23 -14.5 37.5t-25.5 17.5q-12 -2 -26.5 -17t-14.5 -39q0 -44 41 -44q17 0 28.5 11t11.5 34zM512 667l-283 -667h-55l282 667h56z" />
    <glyph glyph-name="threeeighths" unicode="&#x215c;" horiz-adv-x="757" 
d="M744 104q0 -53 -37.5 -82t-102.5 -29q-67 0 -104 28.5t-37 82.5q0 34 21.5 63t53.5 39q-30 9 -49.5 34.5t-19.5 59.5q0 53 39.5 79.5t95.5 26.5q55 0 94.5 -26.5t39.5 -79.5q0 -34 -19.5 -59.5t-49.5 -34.5q31 -10 53 -39t22 -63zM640 285q0 44 -36 44q-37 0 -37 -44
q0 -33 37 -47q36 15 36 47zM644 115q0 23 -14.5 37.5t-25.5 17.5q-12 -2 -26.5 -17t-14.5 -39q0 -44 41 -44q17 0 28.5 11t11.5 34zM548 667l-283 -667h-55l282 667h56zM293 378q0 -54 -39 -86t-102 -32q-96 0 -140 64l63 61q30 -45 73 -45q23 0 35 13t12 32q0 46 -53 46
q-24 0 -30 -1v79q5 -1 26 -1q52 0 52 42q0 43 -45 43q-43 0 -68 -40l-61 55q48 65 136 65q62 0 98.5 -28t36.5 -81q0 -32 -21 -58.5t-52 -32.5q34 -5 56.5 -32t22.5 -63z" />
    <glyph glyph-name="fiveeighths" unicode="&#x215d;" horiz-adv-x="750" 
d="M736 104q0 -53 -37.5 -82t-102.5 -29q-67 0 -104 28.5t-37 82.5q0 34 21.5 63t53.5 39q-30 9 -49.5 34.5t-19.5 59.5q0 53 39.5 79.5t95.5 26.5q55 0 94.5 -26.5t39.5 -79.5q0 -34 -19.5 -59.5t-49.5 -34.5q31 -10 53 -39t22 -63zM632 285q0 44 -36 44q-37 0 -37 -44
q0 -33 37 -47q36 15 36 47zM636 115q0 23 -14.5 37.5t-25.5 17.5q-12 -2 -26.5 -17t-14.5 -39q0 -44 41 -44q17 0 28.5 11t11.5 34zM293 400q0 -63 -39 -101.5t-106 -38.5q-92 0 -137 64l61 62q30 -46 70 -46q22 0 35 16.5t13 41.5q0 56 -43 56q-30 0 -52 -38l-73 23v228
h248v-80h-148v-91q26 31 66 31q44 0 74.5 -33.5t30.5 -93.5zM540 667l-283 -667h-55l282 667h56z" />
    <glyph glyph-name="seveneighths" unicode="&#x215e;" horiz-adv-x="698" 
d="M684 104q0 -53 -37.5 -82t-102.5 -29q-67 0 -104 28.5t-37 82.5q0 34 21.5 63t53.5 39q-30 9 -49.5 34.5t-19.5 59.5q0 53 39.5 79.5t95.5 26.5q55 0 94.5 -26.5t39.5 -79.5q0 -34 -19.5 -59.5t-49.5 -34.5q31 -10 53 -39t22 -63zM580 285q0 44 -36 44q-37 0 -37 -44
q0 -33 37 -47q36 15 36 47zM584 115q0 23 -14.5 37.5t-25.5 17.5q-12 -2 -26.5 -17t-14.5 -39q0 -44 41 -44q17 0 28.5 11t11.5 34zM272 598l-114 -331h-97l117 320h-166v80h260v-69zM488 667l-283 -667h-55l282 667h56z" />
    <glyph glyph-name="arrowleft" unicode="&#x2190;" horiz-adv-x="582" 
d="M538 211h-269l12 -130l-281 205l281 204l-12 -129h269v-150z" />
    <glyph glyph-name="arrowup" unicode="&#x2191;" horiz-adv-x="582" 
d="M216 17v269l-130 -12l205 281l204 -281l-129 12v-269h-150z" />
    <glyph glyph-name="arrowright" unicode="&#x2192;" horiz-adv-x="582" 
d="M584 286l-281 -205l12 130h-268v150h268l-12 129z" />
    <glyph glyph-name="arrowdown" unicode="&#x2193;" horiz-adv-x="582" 
d="M366 555v-269l130 12l-205 -281l-204 281l129 -12v269h150z" />
    <glyph glyph-name="partialdiff" unicode="&#x2202;" 
d="M217 -12q-96 0 -146 67.5t-50 168.5q0 98 41.5 166t113.5 68q66 0 98 -72q-21 143 -97 245l114 53q122 -183 122 -442q0 -113 -49.5 -183.5t-146.5 -70.5zM217 107q57 0 57 116q0 115 -57 115q-56 0 -56 -115q0 -116 56 -116z" />
    <glyph glyph-name="Delta" unicode="&#x2206;" horiz-adv-x="466" 
d="M469 0h-472l148 667h175zM294 132l-61 369l-62 -369h123z" />
    <glyph glyph-name="product" unicode="&#x220f;" horiz-adv-x="561" 
d="M493 -90h-150v625h-124v-625h-152v625h-49v132h525v-132h-50v-625z" />
    <glyph glyph-name="summation" unicode="&#x2211;" horiz-adv-x="381" 
d="M189 535l109 -238l-114 -255h170v-132h-322v138l110 250l-110 237v132h322v-132h-165z" />
    <glyph glyph-name="minus" unicode="&#x2212;" horiz-adv-x="386" 
d="M357 296h-328v82h328v-82z" />
    <glyph glyph-name="uni2215" unicode="&#x2215;" horiz-adv-x="142" 
d="M240 667l-283 -667h-55l282 667h56z" />
    <glyph glyph-name="uni2219" unicode="&#x2219;" horiz-adv-x="259" 
d="M215 244q0 -35 -25.5 -60t-60.5 -25q-34 0 -59 25t-25 60t25 60.5t59 25.5q35 0 60.5 -25.5t25.5 -60.5z" />
    <glyph glyph-name="radical" unicode="&#x221a;" horiz-adv-x="466" 
d="M288 0h-88l-64 295l-84 -17l-15 81l161 31l48 -255l117 532h85z" />
    <glyph glyph-name="infinity" unicode="&#x221e;" horiz-adv-x="502" 
d="M146 157q-58 0 -87.5 53t-29.5 126t29.5 126t87.5 53q69 0 105 -98q15 43 42.5 70t61.5 27q59 0 88.5 -53t29.5 -126t-29.5 -125.5t-88.5 -52.5q-34 0 -61.5 26.5t-42.5 70.5q-35 -97 -105 -97zM342 239q23 0 37 26.5t14 70.5t-14 70.5t-37 26.5q-39 0 -57 -97
q18 -97 57 -97zM160 239q37 0 57 97q-20 97 -57 97q-23 0 -37.5 -27t-14.5 -70q0 -44 14.5 -70.5t37.5 -26.5z" />
    <glyph glyph-name="integral" unicode="&#x222b;" horiz-adv-x="249" 
d="M44 -100h-27v88h27q14 0 23.5 10.5t9.5 25.5v619q0 53 38 89t90 36h27v-89h-27q-14 0 -23 -10t-9 -26v-619q0 -53 -38.5 -88.5t-90.5 -35.5z" />
    <glyph glyph-name="approxequal" unicode="&#x2248;" horiz-adv-x="386" 
d="M29 199v86q38 -20 82 -20q33 0 78 18t86 18q47 0 82 -16v-86q-38 19 -82 19q-34 0 -78.5 -17.5t-85.5 -17.5q-44 0 -82 16zM29 383v86q38 -20 82 -20q33 0 78 17.5t86 17.5q46 0 82 -15v-86q-38 19 -82 19q-34 0 -78.5 -18t-85.5 -18q-45 0 -82 17z" />
    <glyph glyph-name="notequal" unicode="&#x2260;" horiz-adv-x="386" 
d="M118 93h-55l45 106h-79v82h114l44 106h-158v82h192l45 105h56l-44 -105h79v-82h-115l-43 -106h158v-82h-193z" />
    <glyph glyph-name="lessequal" unicode="&#x2264;" horiz-adv-x="386" 
d="M357 153l-328 133v98l328 133v-98l-233 -85l233 -83v-98zM357 18h-328v83h328v-83z" />
    <glyph glyph-name="greaterequal" unicode="&#x2265;" horiz-adv-x="386" 
d="M357 286l-328 -133v98l232 83l-232 85v98l328 -133v-98zM357 18h-328v83h328v-83z" />
    <glyph glyph-name="triangleright" unicode="&#x22b2;" horiz-adv-x="587" 
d="M589 286l-535 -309v618z" />
    <glyph glyph-name="triangleleft" unicode="&#x22b3;" horiz-adv-x="587" 
d="M535 595v-618l-535 309z" />
    <glyph glyph-name="dotmath" unicode="&#x22c5;" horiz-adv-x="259" 
d="M215 244q0 -35 -25.5 -60t-60.5 -25q-34 0 -59 25t-25 60t25 60.5t59 25.5q35 0 60.5 -25.5t25.5 -60.5z" />
    <glyph glyph-name="uni2318" unicode="&#x2318;" horiz-adv-x="667" 
d="M218 154v65h-65q-27 0 -45.5 -19t-18.5 -46q0 -28 18.5 -46.5t45.5 -18.5t46 18.5t19 46.5zM218 449v65q0 27 -19 46t-45 19q-28 0 -46.5 -19t-18.5 -46t18.5 -46t46.5 -19h64zM265 265h137v137h-137v-137zM578 154q0 27 -18.5 46t-45.5 19h-64v-65q0 -28 18.5 -46.5
t45.5 -18.5t45.5 18.5t18.5 46.5zM578 514q0 27 -19 46t-45 19q-27 0 -45.5 -19t-18.5 -46v-65h64q26 0 45 19t19 46zM625 154q0 -46 -32.5 -79t-78.5 -33t-79 33t-33 79v65h-137v-65q0 -46 -33 -79t-79 -33t-78.5 33t-32.5 79t32.5 78.5t78.5 32.5h65v137h-64q-46 0 -79 33
t-33 79t33 78.5t79 32.5t78.5 -32.5t32.5 -78.5v-65h137v65q0 46 33 78.5t79 32.5t78.5 -32.5t32.5 -78.5t-32.5 -79t-78.5 -33h-64v-137h64q46 0 78.5 -32.5t32.5 -78.5z" />
    <glyph glyph-name="blacksquare" unicode="&#x25a0;" horiz-adv-x="661" 
d="M618 0h-571v572h571v-572z" />
    <glyph glyph-name="triagup" unicode="&#x25b2;" horiz-adv-x="616" 
d="M617 29l-619 1l309 535z" />
    <glyph glyph-name="triagdn" unicode="&#x25bc;" horiz-adv-x="616" 
d="M617 510l-310 -535l-309 535h619z" />
    <glyph glyph-name="lozenge" unicode="&#x25ca;" horiz-adv-x="375" 
d="M198 0h-21l-158 334l158 333h21l158 -333zM188 41l132 293l-133 292l-132 -292z" />
    <glyph glyph-name="circlesolid" unicode="&#x25cf;" horiz-adv-x="695" 
d="M644 285q0 -123 -87 -210t-210 -87t-210 87t-87 210t87 210t210 87t210 -87t87 -210z" />
    <glyph glyph-name="blackstar" unicode="&#x2605;" horiz-adv-x="759" 
d="M759 421l-235 -171l90 -275l-235 170l-234 -170l89 275l-234 171h290l89 276l90 -276h290z" />
    <glyph glyph-name="ballotbox" unicode="&#x2610;" horiz-adv-x="661" 
d="M616 0h-571v572h571v-572zM526 83v406h-391v-406h391z" />
    <glyph glyph-name="boxchecked" unicode="&#x2611;" horiz-adv-x="661" 
d="M616 0h-571v572h484l92 170l72 -44l-77 -142v-556zM526 83v307l-162 -299l-202 246l65 60l125 -151l132 243h-349v-406h391z" />
    <glyph glyph-name="diamond" unicode="&#x2666;" horiz-adv-x="501" 
d="M501 285l-251 -250l-250 250l250 251z" />
    <glyph glyph-name="checkmark" unicode="&#x2713;" horiz-adv-x="531" 
d="M531 698l-329 -607l-202 246l65 60l125 -151l269 496z" />
    <glyph glyph-name="perthousand.onum" unicode="&#xf628;" horiz-adv-x="728" 
d="M237 423q0 -59 -30.5 -98.5t-81.5 -39.5t-82 39.5t-31 98.5t31 99t82 40t81.5 -40t30.5 -99zM473 128q0 -59 -30.5 -98.5t-81.5 -39.5t-81.5 39.5t-30.5 98.5q0 60 30.5 99.5t81.5 39.5t81.5 -40t30.5 -99zM404 550l-252 -550h-54l251 550h55zM159 423q0 69 -34 69
q-16 0 -25.5 -18.5t-9.5 -50.5q0 -31 9.5 -49t25.5 -18t25 18t9 49zM395 128q0 31 -9.5 50t-24.5 19q-16 0 -25.5 -19t-9.5 -50t9.5 -49.5t25.5 -18.5q15 0 24.5 18.5t9.5 49.5zM716 128q0 -59 -31 -98.5t-82 -39.5t-81.5 39.5t-30.5 98.5t30.5 99t81.5 40t82 -40t31 -99z
M637 128q0 31 -9.5 50t-24.5 19q-16 0 -25.5 -19t-9.5 -50t9.5 -49.5t25.5 -18.5q15 0 24.5 18.5t9.5 49.5z" />
    <glyph glyph-name="uniF637" unicode="&#xf637;" horiz-adv-x="321" 
d="M289 326h-97v209q0 29 -25 29q-23 0 -37 -33v-205h-97v434h97v-158q11 18 34.5 32t47.5 14q77 0 77 -77v-245z" />
    <glyph glyph-name="zero.tzero" unicode="&#xf638;" horiz-adv-x="466" 
d="M234 -12q-66 0 -114 43l-16 -31h-84l50 97q-50 94 -50 236q0 93 22 168.5t71.5 125.5t120.5 50q64 0 111 -42l17 32h84l-50 -98q50 -93 50 -236q0 -93 -21.5 -168.5t-71 -126t-119.5 -50.5zM234 122q35 0 46.5 49.5t11.5 161.5v33l-104 -201q14 -43 46 -43zM175 333v-31
l102 200q-12 41 -43 41q-36 0 -47.5 -48.5t-11.5 -161.5z" />
    <glyph glyph-name="zero.tnum" unicode="&#xf639;" horiz-adv-x="466" 
d="M234 -12q-71 0 -120.5 50.5t-71.5 126.5t-22 168q0 93 22 168.5t71.5 125.5t120.5 50q70 0 119.5 -50t71 -125.5t21.5 -168.5t-21.5 -168.5t-71 -126t-119.5 -50.5zM234 122q35 0 46.5 49.5t11.5 161.5t-11.5 161t-46.5 49q-36 0 -47.5 -48.5t-11.5 -161.5t11.5 -162
t47.5 -49z" />
    <glyph glyph-name="two.tnum" unicode="&#xf63a;" horiz-adv-x="466" 
d="M444 0h-402v125q167 189 206.5 244.5t39.5 101.5q0 31 -17 51.5t-47 20.5q-64 0 -109 -69l-93 92q79 111 210 111q95 0 152 -55t57 -147q0 -66 -39.5 -133.5t-156.5 -209.5h199v-132z" />
    <glyph glyph-name="three.tnum" unicode="&#xf63b;" horiz-adv-x="466" 
d="M228 -12q-70 0 -125.5 29.5t-86.5 77.5l100 90q41 -63 105 -63q72 0 72 75q0 40 -23 57.5t-55 17.5q-31 0 -42 -2v136q8 -1 36 -1q77 0 77 68q0 70 -67 70q-29 0 -56.5 -15t-42.5 -42l-96 82q72 109 204 109q92 0 148 -46t56 -136q0 -53 -32 -97t-81 -54q54 -10 88 -55
t34 -104q0 -89 -58.5 -143t-154.5 -54z" />
    <glyph glyph-name="four.tnum" unicode="&#xf63c;" horiz-adv-x="466" 
d="M400 0h-151v133h-231v134l206 400h176v-401h49v-133h-49v-133zM249 266v228l-108 -228h108z" />
    <glyph glyph-name="five.tnum" unicode="&#xf63d;" horiz-adv-x="466" 
d="M224 -12q-138 0 -208 107l97 92q41 -65 101 -65q35 0 55 27t20 66q0 43 -17 67t-49 24q-45 0 -78 -52l-112 27v386h375v-132h-223v-151q32 52 98 52q72 0 116 -57.5t44 -160.5q0 -102 -59 -166t-160 -64z" />
    <glyph glyph-name="six.tnum" unicode="&#xf63e;" horiz-adv-x="466" 
d="M248 -12q-113 0 -168.5 96t-55.5 248q0 157 66 251t180 94q97 0 154 -70l-76 -110q-28 46 -74 46q-42 0 -69.5 -51.5t-27.5 -126.5v-7q14 36 45 57t70 21q65 0 109 -58t44 -160q0 -101 -55.5 -165.5t-141.5 -64.5zM238 122q27 0 40.5 27t13.5 64q0 49 -16 71.5t-39 22.5
q-36 0 -61 -58q7 -127 62 -127z" />
    <glyph glyph-name="seven.tnum" unicode="&#xf63f;" horiz-adv-x="466" 
d="M254 0h-161l167 535h-222v132h389v-104z" />
    <glyph glyph-name="eight.tnum" unicode="&#xf640;" horiz-adv-x="466" 
d="M233 -12q-102 0 -156 48t-54 135q0 57 34 105.5t81 67.5q-46 17 -76.5 59t-30.5 100q0 86 59 130t143 44t143 -44t59 -130q0 -58 -31 -100t-77 -59q48 -19 82 -67.5t34 -104.5q0 -88 -54 -136t-156 -48zM233 391q53 27 53 82q0 70 -53 70q-25 0 -39.5 -18.5t-14.5 -51.5
q0 -55 54 -82zM233 122q25 0 42 18.5t17 54.5q0 39 -22 65t-37 30q-16 -4 -37.5 -30t-21.5 -65q0 -36 16.5 -54.5t42.5 -18.5z" />
    <glyph glyph-name="nine.tnum" unicode="&#xf641;" horiz-adv-x="466" 
d="M196 -11q-46 0 -86.5 18.5t-66.5 51.5l76 110q28 -46 74 -46q39 0 67.5 50t28.5 127v8q-15 -35 -45.5 -56.5t-68.5 -21.5q-66 0 -109.5 57.5t-43.5 160.5q0 101 55.5 165.5t141.5 64.5q76 0 127.5 -48t73.5 -123t22 -173q0 -157 -65.5 -251t-180.5 -94zM230 359
q35 0 60 58q-6 127 -60 127q-28 0 -42 -27t-14 -63q0 -50 16.5 -72.5t39.5 -22.5z" />
    <glyph glyph-name="percent.onum" unicode="&#xf642;" horiz-adv-x="485" 
d="M237 423q0 -59 -30.5 -98.5t-81.5 -39.5t-82 39.5t-31 98.5t31 99t82 40t81.5 -40t30.5 -99zM473 128q0 -59 -30.5 -98.5t-81.5 -39.5t-81.5 39.5t-30.5 98.5q0 60 30.5 99.5t81.5 39.5t81.5 -40t30.5 -99zM396 550l-252 -550h-54l252 550h54zM159 423q0 69 -34 69
q-16 0 -25.5 -18.5t-9.5 -50.5q0 -31 9.5 -49t25.5 -18t25 18t9 49zM395 128q0 31 -9.5 50t-24.5 19q-16 0 -25.5 -19t-9.5 -50t9.5 -49.5t25.5 -18.5q15 0 24.5 18.5t9.5 49.5z" />
    <glyph glyph-name="zero.tonum" unicode="&#xf643;" horiz-adv-x="466" 
d="M446 275q0 -121 -54 -204t-158 -83q-105 0 -159.5 83t-54.5 204q0 122 54.5 204.5t159.5 82.5q104 0 158 -82.5t54 -204.5zM292 275q0 153 -58 153q-59 0 -59 -153t59 -153q58 0 58 153z" />
    <glyph glyph-name="one.tonum" unicode="&#xf644;" horiz-adv-x="466" 
d="M379 0h-151v356l-89 -92l-86 90l195 196h131v-550z" />
    <glyph glyph-name="two.tonum" unicode="&#xf645;" horiz-adv-x="466" 
d="M420 0h-378v126q118 75 175 135.5t57 102.5q0 28 -16 46t-44 18q-58 0 -98 -61l-94 84q77 111 205 111q89 0 144 -46t55 -126q0 -57 -44 -124t-135 -134h173v-132z" />
    <glyph glyph-name="three.tonum" unicode="&#xf646;" horiz-adv-x="466" 
d="M228 -127q-70 0 -125.5 29.5t-86.5 77.5l100 90q41 -63 105 -63q72 0 72 75q0 40 -23 57.5t-55 17.5q-31 0 -42 -2v136q8 -1 36 -1q77 0 77 68q0 70 -67 70q-29 0 -56.5 -15t-42.5 -42l-96 82q72 109 204 109q92 0 148 -46t56 -136q0 -53 -32 -97t-81 -54q54 -10 88 -55
t34 -104q0 -89 -58.5 -143t-154.5 -54z" />
    <glyph glyph-name="four.tonum" unicode="&#xf647;" horiz-adv-x="466" 
d="M449 24h-49v-141h-151v141h-231v133l206 393h176v-394h49v-132zM249 156v221l-108 -221h108z" />
    <glyph glyph-name="five.tonum" unicode="&#xf648;" horiz-adv-x="466" 
d="M224 -129q-138 0 -208 107l97 92q41 -65 101 -65q35 0 55 27t20 66q0 43 -17 67t-49 24q-45 0 -78 -52l-112 27v386h375v-132h-223v-151q32 52 98 52q72 0 116 -57.5t44 -160.5q0 -102 -59 -166t-160 -64z" />
    <glyph glyph-name="six.tonum" unicode="&#xf649;" horiz-adv-x="466" 
d="M248 -12q-113 0 -168.5 96t-55.5 248q0 157 66 251t180 94q97 0 154 -70l-76 -110q-28 46 -74 46q-42 0 -69.5 -51.5t-27.5 -126.5v-7q14 36 45 57t70 21q65 0 109 -58t44 -160q0 -101 -55.5 -165.5t-141.5 -64.5zM238 122q27 0 40.5 27t13.5 64q0 49 -16 71.5t-39 22.5
q-36 0 -61 -58q7 -127 62 -127z" />
    <glyph glyph-name="seven.tonum" unicode="&#xf64a;" horiz-adv-x="466" 
d="M254 -117h-161l167 535h-222v132h389v-104z" />
    <glyph glyph-name="eight.tonum" unicode="&#xf64b;" horiz-adv-x="466" 
d="M233 -12q-102 0 -156 48t-54 135q0 57 34 105.5t81 67.5q-46 17 -76.5 59t-30.5 100q0 86 59 130t143 44t143 -44t59 -130q0 -58 -31 -100t-77 -59q48 -19 82 -67.5t34 -104.5q0 -88 -54 -136t-156 -48zM233 391q53 27 53 82q0 70 -53 70q-25 0 -39.5 -18.5t-14.5 -51.5
q0 -55 54 -82zM233 122q25 0 42 18.5t17 54.5q0 39 -22 65t-37 30q-16 -4 -37.5 -30t-21.5 -65q0 -36 16.5 -54.5t42.5 -18.5z" />
    <glyph glyph-name="nine.tonum" unicode="&#xf64c;" horiz-adv-x="466" 
d="M196 -127q-46 0 -86.5 18.5t-66.5 51.5l76 110q28 -46 74 -46q39 0 67.5 50t28.5 127v8q-15 -35 -45.5 -56.5t-68.5 -21.5q-66 0 -109.5 57.5t-43.5 160.5q0 101 55.5 165.5t141.5 64.5q76 0 127.5 -48t73.5 -123t22 -173q0 -157 -65.5 -251t-180.5 -94zM230 243
q35 0 60 58q-6 127 -60 127q-28 0 -42 -27t-14 -63q0 -50 16.5 -72.5t39.5 -22.5z" />
    <glyph glyph-name="colonmonetary.onum" unicode="&#xf64d;" horiz-adv-x="403" 
d="M87 -53l17 86q-79 73 -79 242q0 127 47 204.5t142 82.5l8 37h51l-9 -41q16 -4 23 -7l10 48h51l-16 -78q34 -34 58 -111l-113 -36q-15 65 -50 65q-60 0 -60 -164t60 -164q39 0 50 68l113 -34q-9 -32 -19.5 -55.5t-28.5 -49t-47.5 -39t-67.5 -13.5h-6l-8 -41h-51l10 48
q-8 2 -22 8l-12 -56h-51z" />
    <glyph glyph-name="Euro.onum" unicode="&#xf64e;" horiz-adv-x="420" 
d="M254 188h-240v63h240v-63zM254 298h-240v63h240v-63zM244 -12q-101 0 -151.5 78.5t-50.5 208.5q0 131 50.5 209t151.5 78q71 0 107 -42t56 -110l-113 -36q-15 65 -50 65q-60 0 -60 -164t60 -164q39 0 50 68l113 -34q-9 -32 -19.5 -55.5t-28.5 -49t-47.5 -39t-67.5 -13.5z
" />
    <glyph glyph-name="florin.onum" unicode="&#xf64f;" horiz-adv-x="390" 
d="M177 -119h-154l70 319h-35v97h57l26 110q19 81 64.5 117.5t104.5 36.5q57 0 90 -28l-50 -114q-10 10 -22 10q-28 0 -39 -48l-19 -84h55v-97h-77z" />
    <glyph glyph-name="numbersign.onum" unicode="&#xf650;" horiz-adv-x="402" 
d="M388 404l-15 -72h-47l-25 -111h48l-18 -71h-47l-34 -150h-89l37 150h-52l-34 -150h-89l35 150h-43l17 71h44l25 111h-45l16 72h46l34 146h89l-34 -146h49l34 146h89l-35 -146h44zM239 332h-50l-25 -111h49z" />
    <glyph glyph-name="sterling.onum" unicode="&#xf651;" horiz-adv-x="368" 
d="M23 231v73h29q-17 48 -17 95q0 70 50.5 116t117.5 46q58 0 98.5 -29.5t50.5 -82.5l-106 -39q-8 51 -35 51q-16 0 -26.5 -17t-10.5 -46q0 -32 16 -94h60v-73h-42q2 -20 2 -28q0 -52 -32 -90q12 4 17 4q18 0 38.5 -8.5t36.5 -8.5q35 0 57 24l34 -97q-32 -36 -103 -36
q-36 0 -66.5 15.5t-47.5 15.5q-35 0 -73 -30l-37 84q60 38 60 92q0 22 -13 63h-58z" />
    <glyph glyph-name="yen.onum" unicode="&#xf652;" horiz-adv-x="405" 
d="M383 224h-360v71h360v-71zM383 106h-360v72h360v-72zM273 0h-140v225l-138 325h147l60 -188l61 188h148l-138 -325v-225z" />
    <glyph glyph-name="cent.onum" unicode="&#xf654;" horiz-adv-x="403" 
d="M178 -82v76q-77 18 -115 93t-38 188t38 188t115 93v68h96v-68q47 -14 73 -52.5t43 -93.5l-113 -36q-15 65 -50 65q-60 0 -60 -164t60 -164q39 0 50 68l113 -34q-16 -58 -42 -97.5t-74 -52.5v-77h-96z" />
    <glyph glyph-name="zero.dnom" unicode="&#xf655;" horiz-adv-x="308" 
d="M296 200q0 -87 -37 -147t-105 -60t-105 60t-37 147t37 146.5t105 59.5t105 -59.5t37 -146.5zM192 200q0 64 -7.5 95t-30.5 31q-24 0 -31.5 -31t-7.5 -95t7.5 -95.5t31.5 -31.5q23 0 30.5 31.5t7.5 95.5z" />
    </font>
</defs>
</svg>
